<svg xmlns="http://www.w3.org/2000/svg" id="Layer_1" viewBox="0 0 450 200"> <defs> <style>.cls-1{fill:#231f20;}.cls-2{fill:#fff;}.cls-3{fill:#ef2f51;}.cls-4{fill:#fddd04;}.cls-5,.cls-6{fill:none;stroke:#231f20;}.cls-5{stroke-width:0.09px;}.cls-6{stroke-width:0.03px;}</style> </defs> <title>logo-cambridge</title> <path class="cls-1" d="M79.72,68.26H109.8l1.38,0h3.06c1.46,0,3.87-.07,7.27-.21l1.27-.05c-.19,2.64-.22,3.68-.23,5.07l0,4,0,3.83v21.4c0,13.48-3.05,18.05-17.59,25.23-.64.32-8.05,4-8.83,4.43l-.72.39-.74.39-.74-.39-.74-.39c-3.06-1.6-6.16-3-8.56-4.19C71.27,121.27,67,116.63,67,102.33V80.93l0-3.83,0-4A41.13,41.13,0,0,0,66.72,68L68,68c3.35.14,5.84.21,7.29.21h3l1.39,0"></path> <path class="cls-2" d="M94.63,131.47l5.73-2.81.14-.05,0-.12V102.13l-.05-.16.18,0h20.72l.18.05-.05-.23V90.66l.05-.18-.18.05H100.59l-.18,0,.05-.18v-21l0-.18-.16.05H89l-.18-.05.05.18v21l0,.18-.16,0H68.18L68,90.48l.05.18v11.28l-.05.12.18-.05H88.75l.16,0,0,.21v26.24l-.05.21.14,0,5.67,2.79"></path> <path class="cls-3" d="M68.27,69.31,68,69.26l.05.19v21l-.05.16.25-.05H88.73l.18.05,0-.18v-21l0-.14-.18.05H68.27m32.41,0-.25-.05,0,.19v21l0,.16.23-.05H121.3l.2.05-.05-.18v-21l.05-.14-.2.05H100.68M88.82,102H68.13L68,102l.05.14v1.25c0,11.52,3.84,17.12,15.68,22.84L87.48,128l1.3.61.11.12,0-.18V102.12l0-.16-.09.05m11.76,0-.14-.05,0,.12v26.4l0,.2.14-.16,1.18-.54c16.07-7.56,19.69-12.07,19.69-24.52v-1.32l.05-.18-.18.05H100.58"></path> <path class="cls-1" d="M71.42,91.57l.13.14.14.16.16.16.14.14-.09.07-.18.16-.14.16-.05.05v.17a3.68,3.68,0,0,0,1.18,3.09l.14.12-.14.1-.16,0-.34,0-.3-.05-.18,0-.18,1.29H71.3L71.12,96l-.18,0-.29.05-.36,0-.16,0c-.07,0-.14,0-.14-.05a.17.17,0,0,1,.08-.11l.27-.21a2.28,2.28,0,0,0,.63-.91,1.48,1.48,0,0,0,.18-.59c0-.38.06-.68.12-.68l0-.66,0-.25-.07-.05-.14-.16-.18-.16-.07-.07L71,92a2.72,2.72,0,0,0,.41-.46m6.78,0a2.8,2.8,0,0,0,.41.46l.14.14-.07.07-.18.16-.14.16-.09.05,0,.25,0,.66a3.19,3.19,0,0,0,1.13,2.34c.1.05.15.1.15.12a.08.08,0,0,1-.08.09h-.23L79,96l-.3-.05-.18,0-.18,1.29h-.23L77.9,96l-.18,0-.3.05-.34,0-.16,0h0c-.07,0-.12,0-.12-.06a.16.16,0,0,1,.07-.11l.27-.21c.23-.18.3-.27.63-.91a1.48,1.48,0,0,0,.2-.59c0-.38,0-.68.11-.68l0-.66,0-.25L78,92.57l-.16-.16-.18-.16-.07-.07.14-.14.16-.16.14-.16.12-.14m-3.38,4,.13.14.12.16a1.28,1.28,0,0,0,.16.16l.16.14-.09.07-.16.16-.16.14-.05.07v.17a3.59,3.59,0,0,0,1.18,3.09l.14.12-.14.1-.16,0-.34,0-.3-.05-.18,0-.18,1.29H74.7l-.18-1.29-.18,0L74,100l-.34,0-.16,0h0c-.07,0-.12,0-.12-.06s0-.07.09-.11l.27-.21a4,4,0,0,0,1-2.93V96.6l-.05-.07-.16-.14-.16-.16-.09-.07a3.16,3.16,0,0,0,.57-.61m6.8,0a3.17,3.17,0,0,0,.57.61l-.09.07-.16.16-.16.14-.05.07v.17a4.89,4.89,0,0,0,.61,2.52l.36.41.2.16.16.12-.14.1-.16,0-.34,0-.3-.05-.18,0-.18,1.29H81.5l-.18-1.29-.18,0-.3.05-.34,0-.16,0h0c-.07,0-.12,0-.12-.06s0-.07.08-.11l.26-.21a4,4,0,0,0,1-2.93V96.6l-.05-.07-.16-.14-.16-.16-.09-.07.16-.14a1.28,1.28,0,0,0,.16-.16l.12-.16.13-.14m3.4-4a2.78,2.78,0,0,0,.41.46l.14.14-.07.07-.18.16-.14.16-.07.05,0,.25,0,.66a3.27,3.27,0,0,0,1.13,2.34c.09.05.15.1.15.12a.08.08,0,0,1-.07.09h-.22l-.36,0-.3-.05-.16,0-.18,1.29H84.9L84.72,96l-.19,0-.29,0-.34,0-.16,0h0c-.07,0-.12,0-.12-.05a.18.18,0,0,1,.08-.12l.26-.21c.24-.19.31-.3.63-.91a1.47,1.47,0,0,0,.2-.59c0-.38,0-.68.11-.68l0-.66,0-.25-.05-.05-.16-.16-.16-.16-.09-.07.14-.14.16-.16.14-.16.13-.14m19.31,0,.13.16.12.14.16.18.16.14-.09.07-.16.16-.16.14-.05.07v.15c0,1.44.48,2.7,1.18,3.08.11.06.15.11.15.16v0l-.14,0h-.16a3.24,3.24,0,0,1-.82-.14l-.18,1.29h-.25L104,95.92a3.22,3.22,0,0,1-.82.14H103c-.1,0-.15,0-.15-.06s0-.1.15-.15c.69-.36,1.18-1.65,1.18-3.08v-.15l-.05-.07L104,92.4l-.16-.16-.09-.07.16-.14.16-.18.12-.14.13-.16m6.82,0,.13.16.14.14.16.18.14.14-.09.07-.16.16-.16.14-.05.07v.15c0,1.42.49,2.71,1.18,3.08.11.06.15.11.15.16v0l-.14,0h-.16a3.24,3.24,0,0,1-.82-.14l-.18,1.29H111l-.18-1.29a3,3,0,0,1-.89.14c-.2,0-.24,0-.24-.07s0-.09.16-.14a1.77,1.77,0,0,0,.56-.57,2.5,2.5,0,0,0,.45-1.07c0-.39.06-.7.13-.7l0-.66,0-.23-.07-.07a3.2,3.2,0,0,0-.41-.37l.16-.14.16-.18.14-.14.11-.16m-3.4,4,.13.14.14.16s.07.09.15.17l.15.13-.09.07-.16.18-.16.14-.05.07,0,.23,0,.66A3.11,3.11,0,0,0,109,99.82c.11.06.15.11.15.16v0l-.14,0h-.16a3.17,3.17,0,0,1-.82-.14l-.18,1.29h-.25l-.18-1.29a2.85,2.85,0,0,1-.9.15c-.18,0-.23,0-.23-.08s0-.09.16-.13a1.77,1.77,0,0,0,.56-.57,2.76,2.76,0,0,0,.46-1.07c0-.38,0-.7.11-.7l0-.66,0-.23-.07-.07-.14-.14-.18-.18-.07-.07.14-.14a2.79,2.79,0,0,0,.41-.47m6.87,0,.13.14.14.16.16.16.14.14-.07.07-.18.18-.16.14-.05.07,0,.23,0,.66a3.11,3.11,0,0,0,1.13,2.34c.11.06.15.11.15.16v0l-.14,0h-.16a3.17,3.17,0,0,1-.82-.14l-.18,1.29h-.23l-.2-1.29a2.85,2.85,0,0,1-.9.15c-.18,0-.23,0-.23-.08s0-.09.16-.13a1.77,1.77,0,0,0,.56-.57,2.79,2.79,0,0,0,.46-1.07c0-.38,0-.7.11-.7l0-.66,0-.23-.07-.07-.14-.14-.18-.18-.07-.07.14-.14a2.71,2.71,0,0,0,.41-.47m3.4-4,.13.16.14.14.16.18.14.14-.09.07-.16.16-.16.14-.05.07v.15c0,1.42.49,2.71,1.18,3.08.11.06.15.11.15.16v0l-.14,0h-.16a3.24,3.24,0,0,1-.82-.14l-.18,1.29h-.25l-.18-1.29a3,3,0,0,1-.89.14c-.2,0-.24,0-.24-.07s0-.09.16-.14a1.77,1.77,0,0,0,.56-.57,2.5,2.5,0,0,0,.45-1.07c0-.39.06-.7.13-.7l0-.66,0-.23-.07-.07-.14-.14-.18-.16-.07-.07.14-.14.16-.18.14-.14.11-.16M91.54,110a2.84,2.84,0,0,0,.41.46l.14.14-.07.07-.18.16-.14.16-.07.07,0,.23,0,.66a3.9,3.9,0,0,0,.57,1.77,1.77,1.77,0,0,0,.56.57c.12.05.16.09.16.15s0,.07-.25.07a2.89,2.89,0,0,1-.88-.14l-.18,1.29h-.25l-.18-1.29a3.26,3.26,0,0,1-.82.14h-.16c-.11,0-.15,0-.15-.06s0-.1.15-.15a1.74,1.74,0,0,0,.55-.57,2.65,2.65,0,0,0,.46-1.07c0-.39,0-.7.11-.7l0-.66,0-.23-.05-.07-.16-.16-.16-.16-.09-.07.14-.14.16-.16.14-.16.13-.14m6.39,0a2.79,2.79,0,0,0,.41.46l.14.14-.07.07-.18.16-.14.16-.07.07,0,.23,0,.66a3.89,3.89,0,0,0,.57,1.77,1.75,1.75,0,0,0,.55.57c.12.05.16.09.16.15s0,.07-.25.07a2.87,2.87,0,0,1-.88-.14l-.18,1.29H97.8l-.18-1.29a3.24,3.24,0,0,1-.82.14h-.16c-.1,0-.15,0-.15-.06s0-.1.15-.15a1.73,1.73,0,0,0,.56-.57,2.67,2.67,0,0,0,.46-1.07c0-.39,0-.7.11-.7l0-.66,0-.23-.05-.07-.16-.16-.16-.16-.09-.07.14-.14.16-.16.14-.16.13-.14m-3.26,5.8.08.19.17.12.16.18.14.14-.07.07-.18.16-.14.14-.07.07,0,.23,0,.66a3.11,3.11,0,0,0,1.13,2.34c.12.06.16.09.16.14l0,0-.12.05-.16,0-.36,0-.3-.05-.16,0-.2,1.29h-.23l-.18-1.29-.18,0-.3.05-.34,0-.16,0h0c-.08,0-.13,0-.13-.08s0-.1.15-.15a1.7,1.7,0,0,0,.56-.57,2.67,2.67,0,0,0,.46-1.07c0-.38,0-.7.11-.7l0-.66,0-.23-.05-.07-.16-.14-.16-.16-.09-.07.14-.14.16-.18.14-.14.13-.16m-3.17,5.91.12.16.14.14.16.18.12.17-.06,0-.16.16-.16.14-.05.07,0,.23,0,.66A3.11,3.11,0,0,0,92.79,126c.11.06.15.11.15.16v0l-.14,0h-.16a5.08,5.08,0,0,1-.82-.12l-.18,1.27h-.25l-.18-1.27a4.09,4.09,0,0,1-.9.13c-.18,0-.23,0-.23-.08s0-.09.16-.13a1.78,1.78,0,0,0,.56-.57,2.81,2.81,0,0,0,.46-1.07c0-.39,0-.7.11-.7l0-.66,0-.23-.07-.07-.14-.14-.18-.16-.07-.07.14-.14.16-.18.14-.14.11-.16m6.42,0,.11.16.14.14.13.2.17.12-.07.07-.18.16-.14.14-.07.07,0,.23,0,.66a3.91,3.91,0,0,0,.57,1.77,1.75,1.75,0,0,0,.55.57c.12.05.16.09.16.15s0,.07-.24.07a4.16,4.16,0,0,1-.89-.13l-.18,1.27H97.8l-.18-1.27a5.08,5.08,0,0,1-.82.12h-.16c-.1,0-.15,0-.15-.06s0-.1.15-.15a1.71,1.71,0,0,0,.56-.57,2.69,2.69,0,0,0,.46-1.07c0-.39,0-.7.11-.7l0-.66,0-.23-.05-.07-.16-.14-.16-.16-.09-.07.14-.14.16-.18.14-.14.13-.16m-3.26-17.54.11.16.14.14.16.18.14.14-.07.07L95,105l-.14.14-.07.07,0,.23,0,.66a3.12,3.12,0,0,0,1.13,2.34c.12.05.16.09.16.14s0,.08-.23.08a4.16,4.16,0,0,1-.9-.12l-.2,1.29h-.23l-.18-1.29a5.21,5.21,0,0,1-.82.12h-.16c-.1,0-.15,0-.15-.06s0-.1.15-.15a1.73,1.73,0,0,0,.56-.57,2.69,2.69,0,0,0,.46-1.07c0-.39,0-.7.11-.7l0-.66,0-.23-.05-.07-.16-.14-.16-.16-.09-.07.14-.14.16-.18.14-.14.13-.16M91.45,71.53l.13.14.14.16.16.16.14.14-.07.07-.18.16-.16.16-.05.05,0,.25,0,.64a3.77,3.77,0,0,0,.57,1.79l.36.41.2.16.15.12-.15.1-.16,0-.34,0-.3-.05-.18,0-.2,1.23-.21.05-.18-1.29-.18,0-.3.05-.34,0-.19,0c-.07,0-.12,0-.12-.06a.18.18,0,0,1,.07-.11l.27-.21c.23-.17.3-.27.63-.91a1.46,1.46,0,0,0,.2-.59c0-.38,0-.7.11-.7l0-.64,0-.25-.07-.05-.14-.16L91,72.21l-.07-.07L91,72a2.72,2.72,0,0,0,.41-.46m6.48,0a2.72,2.72,0,0,0,.41.46l.14.14-.07.07-.18.16-.14.16-.07.05,0,.25,0,.64a3.27,3.27,0,0,0,1.13,2.36c.09.05.15.1.15.12a.08.08,0,0,1-.07.09h-.22l-.36,0-.3-.05-.16,0-.18,1.29H97.8l-.18-1.29-.2,0-.29.11-.34,0-.16,0h0c-.07,0-.12,0-.12-.06s0-.07.08-.12l.26-.21c.24-.19.32-.3.63-.91a1.51,1.51,0,0,0,.2-.59c0-.38.05-.7.11-.7l0-.64,0-.25-.05-.05-.16-.16-.16-.16-.09-.07L97.5,72l.16-.16.14-.16.13-.14m-3.29,5.6.13.14.14.16.16.18.14.14-.09.07L95,78l-.16.14-.05.07,0,.23,0,.61a3.23,3.23,0,0,0,1.14,2.4c.11.06.15.11.15.16v0l-.14,0h-.16a3.24,3.24,0,0,1-.82-.14l-.18,1.29h-.25l-.18-1.29a2.89,2.89,0,0,1-.89.14c-.2,0-.24,0-.24-.07s0-.09.16-.14a1.78,1.78,0,0,0,.56-.57,2.51,2.51,0,0,0,.45-1.07c0-.39.06-.7.13-.7l0-.66,0-.23-.07-.07L94.33,78l-.18-.16-.07-.07.14-.14.16-.18.14-.16.11-.14m-3.2,5.58.12.14.13.16.16.16.16.14-.09.07-.16.16-.16.16-.05.05v.17a4.79,4.79,0,0,0,.59,2.46l.39.46.2.16.14.12-.14.1-.16,0-.34,0-.3-.05-.18,0-.18,1.29H91.3l-.18-1.29-.18,0-.3.05-.34,0-.16,0h0c-.07,0-.12,0-.12-.06a.18.18,0,0,1,.08-.11l.26-.21a3.92,3.92,0,0,0,1-2.93v-.17l-.05-.05-.16-.16-.16-.16-.09-.07.16-.14.16-.16.12-.16.13-.14m6.46,0,.13.14.14.16.16.16.14.14-.09.07-.16.16-.16.16-.05.05L98,84l0,.66A3.11,3.11,0,0,0,99.18,87l.14.12-.14.1-.16,0-.34,0-.3-.05-.18,0L98,88.39h-.25L97.57,87c-.33.07-.34.13-.45.14l-.36,0-.16,0h0c-.06,0-.11,0-.11-.06a.16.16,0,0,1,.07-.11l.27-.21c.23-.18.3-.28.63-.91a1.47,1.47,0,0,0,.2-.59c0-.37,0-.68.11-.68l0-.66,0-.25-.07-.05-.14-.16-.18-.16-.07-.07.14-.14a2.7,2.7,0,0,0,.41-.46m-13.4-2.88.07.27q.1.36.14.57c.23,1,.42,1.29.91,1.29a.59.59,0,0,0,.59-.4l.11-.36a.17.17,0,0,1,.17-.13c.19,0,.28.2.29.65a7.71,7.71,0,0,0,.13.88,4.51,4.51,0,0,1,.07.78,1.28,1.28,0,0,1-.11.56A7.57,7.57,0,0,1,87,85a2.24,2.24,0,0,1-.22,1.07,2.18,2.18,0,0,1,.09.67,3.45,3.45,0,0,1-.05.6,4.41,4.41,0,0,0-.1.62.72.72,0,0,0,0,.24.81.81,0,0,1,.05.21c0,.05,0,.09-.05.09l-.36-.14L86,88.19a1.85,1.85,0,0,1-.41-.32c-.35.31-.45.36-1.36.61a1.27,1.27,0,0,0-.39.16.58.58,0,0,1-.24.12c-.15,0-.23-.25-.23-.76a4.07,4.07,0,0,1,.11-1,2,2,0,0,0-.64-.16l-.27,0h-.07c-.05,0-.1-.08-.1-.17a1.44,1.44,0,0,1,.11-.39l.18-.43a1.51,1.51,0,0,1,.43-.52,1.13,1.13,0,0,1,.46-.27l.64-.12c.38-.07.61-.28.61-.54s-.17-.43-.56-.57l-.77-.27a4,4,0,0,1-.7-.34c-.43-.25-.5-.29-.6-.29s-.24.11-.24.32a.5.5,0,0,0,.5.54.49.49,0,0,0,.18,0,.64.64,0,0,1,.18-.05c.08,0,.13,0,.13.14V84l0,.3a2.48,2.48,0,0,1-.57,1.07l-.16.21a2.45,2.45,0,0,1-1,1.41l-.2.14-.14.25a3,3,0,0,1-.36.43,3.26,3.26,0,0,1-.45.41,1.63,1.63,0,0,0-.36.32l-.18.3a.17.17,0,0,1-.14.09c-.16,0-.3-.17-.39-.45s-.12-.27-.26-.27a1.38,1.38,0,0,0-.31.05l-.25,0h-.65a2.89,2.89,0,0,0-1,.18.52.52,0,0,1-.18.06s-.07,0-.12-.11a.26.26,0,0,1,0-.14,3.37,3.37,0,0,1,.54-1.43,1.88,1.88,0,0,1,.48-.57.8.8,0,0,0-.5-.61l-.3-.09a.1.1,0,0,1-.07-.09c0-.09.15-.22.41-.36a2.24,2.24,0,0,1,1-.29,1.46,1.46,0,0,1,.91.38c.49.38.62.45.85.45a.77.77,0,0,0,.75-.72,1.67,1.67,0,0,0-.47-.95,2.21,2.21,0,0,1-.65-1.45,1.83,1.83,0,0,1,.2-.84l.18-.27a.33.33,0,0,0,.06-.17c0-.12-.14-.2-.32-.2a3,3,0,0,0-1.26.46c-.21.13-.36.29-.36.38a.16.16,0,0,0,.07.14l.2.13a.09.09,0,0,1,0,.07.32.32,0,0,1-.07.14l-.36.46a6.15,6.15,0,0,1-.75.79,1.27,1.27,0,0,0-.18.18l-.14.27a2.75,2.75,0,0,1-.79.81,1.52,1.52,0,0,0-.25.2,1.82,1.82,0,0,0-.14.25,3.79,3.79,0,0,1-.23.38,4,4,0,0,1-.43.55l-.5.5a3,3,0,0,0-.5,1.11c-.13.4-.24.63-.31.63s-.08,0-.14-.11c-.35-.41-.66-.65-.82-.65a.49.49,0,0,0-.2.09,1.37,1.37,0,0,1-.49.18l-.66.12a1.41,1.41,0,0,0-1,.54c-.07.08-.12.13-.15.13s-.1-.09-.1-.21l0-.17.09-.48a4.07,4.07,0,0,1,.36-1.16l.3-.56a.62.62,0,0,0,.09-.29,1,1,0,0,0-.95-.84c-.13,0-.18,0-.18-.12s.15-.27.34-.42a2.19,2.19,0,0,1,1.13-.47,2.4,2.4,0,0,1,.81.22l.39.16a1.05,1.05,0,0,0,.4.09c.42,0,.82-.38,1.32-1.24a1.89,1.89,0,0,0,.32-.92c0-.45-.21-.73-.57-.73a1.14,1.14,0,0,0-.77.34.81.81,0,0,0-.28.55v.24c0,.17-.05.26-.15.26S72,82.85,71.3,82a2.1,2.1,0,0,1-.66-1.54c-.61-.77-.76-1.1-.76-1.65l0-.37a1.71,1.71,0,0,1-.54-1.25.92.92,0,0,1,.13-.47,1.84,1.84,0,0,1-.34-.7l-.09-.38a1.9,1.9,0,0,0-.29-.66c-.16-.23-.18-.26-.18-.34s.14-.29.77-.45a3.25,3.25,0,0,1,0-.4,2.22,2.22,0,0,1,.06-.43l.12-.66a3.49,3.49,0,0,0,.08-.57,3.37,3.37,0,0,0-.29-1,.71.71,0,0,1-.11-.25c0-.06,0-.1.12-.1a3,3,0,0,1,1.13.68,2.82,2.82,0,0,1,1.38,2.22c0,.08,0,.2.05.36a1.6,1.6,0,0,1,.75,1.27,2.21,2.21,0,0,1-.36,1.15L71.9,77a1.1,1.1,0,0,0-.16.59,2.08,2.08,0,0,0,.34,1.07c.27.48.51.68.8.68.47,0,.89-.82.89-1.76v-.45a4.79,4.79,0,0,1,0-.59c0-.28.05-.45.05-.52l0-.43v-.28a.53.53,0,0,0-.19-.34l-.39-.43a2.79,2.79,0,0,1-.88-1.64.91.91,0,0,1,.91-1,1.33,1.33,0,0,1,.38.07v-.12c0-.79.16-1.37.38-1.37l.09,0,.32.29.39.25.11.11c0-.22,0-.25.23-.5l.25-.34.18-.27.09-.16c0-.09.1-.13.15-.13s.09.07.15.26.07.15.38.43a1.19,1.19,0,0,1,.21.23,2.19,2.19,0,0,1,.14.36l.05.14a1.08,1.08,0,0,1,.36-.32l.27-.16a.6.6,0,0,1,.2-.09s.05,0,.09.11l.14.27a1.36,1.36,0,0,1,.25.65v.39A1,1,0,0,1,79,73.22a2.52,2.52,0,0,1-.7,1.53c-.31.37-.34.44-.34.69,0,1.32.92,2.09,2.55,2.11l1.2,0a5.79,5.79,0,0,1,2,.32,4.68,4.68,0,0,0,1.34.34.41.41,0,0,0,.23-.07.22.22,0,0,0,.11-.16c0-.25-.44-.45-1.88-.86-2.95-.84-4.2-2-4.2-4a2.75,2.75,0,0,1,2.88-2.68,6.26,6.26,0,0,1,1.79.31l.73.27a1.12,1.12,0,0,0,.38.07c.25,0,.38-.21.38-.63,0-.23.06-.3.2-.3s.53.26.82.66A2.29,2.29,0,0,1,86.89,72a1,1,0,0,1-.63.93,1.75,1.75,0,0,1-1.56.9,5.8,5.8,0,0,1-2.47-1,1.75,1.75,0,0,0-.86-.32.47.47,0,0,0-.52.46c0,.26.2.43.72.61a2.55,2.55,0,0,1,1.27.7,3.61,3.61,0,0,1,1.88.75c1.57.5,2.54,1.57,2.54,2.8a1.92,1.92,0,0,1-1.93,2.05,3.46,3.46,0,0,1-.85-.11m33.39,0,.07.27c.06.24.11.43.14.57.22,1,.42,1.29.91,1.29a.59.59,0,0,0,.59-.4l.11-.36a.17.17,0,0,1,.17-.13c.2,0,.3.21.31.65a8.2,8.2,0,0,0,.11.88,5.35,5.35,0,0,1,.07.83,1.24,1.24,0,0,1-.11.51l0,.21a3.66,3.66,0,0,1,.07.66,2.17,2.17,0,0,1-.22,1.3,2.3,2.3,0,0,1,.09.64,5,5,0,0,1-.06.63l-.07.54,0,.32a1,1,0,0,1,.07.21.08.08,0,0,1-.07.09l-.36-.14-.39-.21a1.85,1.85,0,0,1-.41-.32,1.44,1.44,0,0,1-.81.45,3.44,3.44,0,0,0-.93.32.6.6,0,0,1-.25.12c-.14,0-.24-.27-.24-.66a2.91,2.91,0,0,1,.13-1.09,2.29,2.29,0,0,0-.65-.16l-.26,0h-.08c-.05,0-.08-.06-.08-.17a2.16,2.16,0,0,1,.29-.82,1.6,1.6,0,0,1,.88-.79l.65-.12c.38-.07.61-.28.61-.54s-.17-.43-.56-.57l-.75-.27a3.83,3.83,0,0,1-.72-.34l-.4-.23a.43.43,0,0,0-.19-.05c-.16,0-.26.11-.26.3a.54.54,0,0,0,.52.56.46.46,0,0,0,.18,0l.17-.05c.08,0,.14.08.14.19a2.27,2.27,0,0,1-.41,1.13l-.21.27-.16.21a2.41,2.41,0,0,1-1,1.41l-.2.14-.14.25a3,3,0,0,1-.36.43,3.25,3.25,0,0,1-.45.41,1.66,1.66,0,0,0-.36.32l-.18.3a.16.16,0,0,1-.14.09c-.16,0-.31-.17-.4-.45s-.12-.27-.26-.27a1.39,1.39,0,0,0-.31.05l-.25,0h-.63a2.89,2.89,0,0,0-1,.18.5.5,0,0,1-.18.06c-.09,0-.14-.09-.14-.27a3.3,3.3,0,0,1,1-2,.77.77,0,0,0-.48-.61l-.32-.09a.1.1,0,0,1-.05-.09c0-.11.13-.23.41-.36a1.9,1.9,0,0,1,.94-.29,1.45,1.45,0,0,1,.94.38c.49.38.62.45.85.45a.77.77,0,0,0,.75-.72,1.66,1.66,0,0,0-.47-1,2.31,2.31,0,0,1-.65-1.52,1.72,1.72,0,0,1,.38-1,.43.43,0,0,0,.07-.19c0-.1-.16-.19-.34-.19a1.91,1.91,0,0,0-.75.21c-.54.25-.86.48-.86.62a.19.19,0,0,0,.09.15l.18.13a.09.09,0,0,1,0,.07.29.29,0,0,1-.07.14l-.36.46a4,4,0,0,1-.75.79.73.73,0,0,0-.18.18l-.14.27a3,3,0,0,1-.77.81,2,2,0,0,0-.25.2,1.54,1.54,0,0,0-.16.25,5.32,5.32,0,0,1-.66.93l-.48.5a3.73,3.73,0,0,0-.52,1.11c-.15.43-.24.63-.31.63s-.08,0-.14-.11c-.35-.4-.66-.65-.81-.65a.54.54,0,0,0-.21.09A1.48,1.48,0,0,1,105,88l-.64.12a1.39,1.39,0,0,0-1,.54c-.06.08-.11.13-.14.13s-.11-.09-.11-.22l0-.16s0-.18.09-.48a4,4,0,0,1,.36-1.16l.32-.56A.58.58,0,0,0,104,86c0-.41-.38-.75-1-.84-.12,0-.18-.06-.18-.13s.14-.24.36-.41a2,2,0,0,1,1.1-.46,2.34,2.34,0,0,1,.82.21l.39.16a1.06,1.06,0,0,0,.4.09c.42,0,.82-.38,1.32-1.24a1.86,1.86,0,0,0,.32-.92c0-.45-.21-.73-.56-.73a1.06,1.06,0,0,0-.76.34.86.86,0,0,0-.3.57v.28c0,.14,0,.21-.15.21s-.29-.13-.6-.5l-.5-.59a2,2,0,0,1-.68-1.54,2.59,2.59,0,0,1-.76-1.65l0-.37a1.57,1.57,0,0,1-.52-1.24.81.81,0,0,1,.11-.48,1.84,1.84,0,0,1-.34-.7l-.09-.38a1.92,1.92,0,0,0-.29-.66c-.16-.23-.18-.26-.18-.33s.18-.31.63-.42l.14,0a3.17,3.17,0,0,1,0-.4,2.32,2.32,0,0,1,.05-.43l.12-.66a3.45,3.45,0,0,0,.07-.59,1.77,1.77,0,0,0-.11-.56,1.53,1.53,0,0,0-.18-.41.51.51,0,0,1-.11-.24c0-.06.06-.11.14-.11a.42.42,0,0,1,.18.06,7,7,0,0,1,1.74,1.38,2.65,2.65,0,0,1,.63,1.83,1.53,1.53,0,0,1,.75,1.36,1.9,1.9,0,0,1-.36,1.06l-.36.56a1.17,1.17,0,0,0-.16.61,2.08,2.08,0,0,0,.34,1.06c.27.48.51.68.79.68.47,0,.89-.81.89-1.7V77l.05-.43,0-.52,0-.43v-.24c0-.18,0-.23-.59-.82a2.65,2.65,0,0,1-.9-1.71.91.91,0,0,1,.91-.88,1.32,1.32,0,0,1,.38.07v-.21l0-.38.11-.46c.09-.37.13-.44.25-.44l.09,0,.32.29.4.25.11.11a.72.72,0,0,1,.23-.5c.09-.12.18-.23.25-.34l.18-.27.11-.16c.07-.11.1-.14.15-.14s.08.06.14.26a.5.5,0,0,0,.16.23l.23.2a1.29,1.29,0,0,1,.39.73,1.05,1.05,0,0,1,.36-.32l.29-.16.19-.09s.05,0,.08.11a2.14,2.14,0,0,0,.14.27c.23.37.25.42.25.67v.36a1,1,0,0,1,.81,1.12,2.45,2.45,0,0,1-.68,1.53c-.31.37-.36.48-.36.76,0,1.26,1,2,2.56,2.05l1.18,0a5.78,5.78,0,0,1,1.95.32,4.69,4.69,0,0,0,1.35.34c.18,0,.33-.1.33-.22s-.43-.46-1.88-.87c-2.95-.83-4.21-2-4.21-4a2.75,2.75,0,0,1,2.9-2.68,6.25,6.25,0,0,1,1.78.3l.73.27a1.12,1.12,0,0,0,.38.07c.25,0,.35-.16.39-.63,0-.21.08-.3.22-.3s.55.3.82.66a2.37,2.37,0,0,1,.46,1.2,1,1,0,0,1-.63.91,1.76,1.76,0,0,1-1.56.9,6,6,0,0,1-2.47-1,1.62,1.62,0,0,0-.86-.32.47.47,0,0,0-.53.46c0,.26.19.42.72.61.85.3,1,.4,1.27.7a3.6,3.6,0,0,1,1.88.75c1.63.52,2.54,1.53,2.54,2.82a1.9,1.9,0,0,1-1.91,2,3.5,3.5,0,0,1-.87-.11M84.83,113.62a2.72,2.72,0,0,1,.23.84l0,.75c0,.75.28,1.13.75,1.13a.56.56,0,0,0,.4-.13l.2-.2.08,0c.12,0,.19.08.19.23l0,.29a4,4,0,0,0,.07.82,5,5,0,0,1,.05.72,1.9,1.9,0,0,1-.16.87,3.41,3.41,0,0,1,.2,1.08,1.45,1.45,0,0,1-.21.87,2.39,2.39,0,0,1,.09.61,4.19,4.19,0,0,1-.07.68,3.62,3.62,0,0,0-.07.86v0c0,.11,0,.17-.1.17a.32.32,0,0,1-.22-.14c-.11-.14-.18-.19-.26-.19s-.16.06-.35.6a2.38,2.38,0,0,1-.43.66,1.56,1.56,0,0,0-.32.52c-.06.22-.09.34-.11.38a.14.14,0,0,1-.11.09h0c-.29,0-.63-.63-1-1.83-.1-.34-.22-.49-.4-.49a.35.35,0,0,0-.31.2l-.11.25a.11.11,0,0,1-.09.07c-.14,0-.36-.26-.5-.59a2.28,2.28,0,0,1-.17-.82c0-.56.41-1,1.66-1.68a1.38,1.38,0,0,0,.75-1.4,1.36,1.36,0,0,0-.65-1.24,1.44,1.44,0,0,0-.8-.39.28.28,0,0,0-.3.26c0,.17.1.27.33.35s.4.2.4.32a1.68,1.68,0,0,1-.31.65,1.64,1.64,0,0,1-.57.59,1.62,1.62,0,0,1-.86,1.16,1.86,1.86,0,0,1-.36.66l-.38.48a1.57,1.57,0,0,0-.27.56c0,.27-.06.32-.17.32s-.43-.25-.73-.63a.88.88,0,0,1-.23-.59.92.92,0,0,1-.61.21,1.56,1.56,0,0,0-.48.13,1.36,1.36,0,0,1-.42.18c-.07,0-.1,0-.1-.17l0-.39a2.79,2.79,0,0,1,.54-1.59,1.78,1.78,0,0,0-.88-.47c-.11,0-.13,0-.13-.06a.73.73,0,0,1,.17-.33,2.68,2.68,0,0,1,.32-.36,1.78,1.78,0,0,1,1-.38,3.26,3.26,0,0,1,1,.25,1.22,1.22,0,0,0,.43.09c.2,0,.31-.13.31-.35a4.85,4.85,0,0,0-.52-1.65,3.27,3.27,0,0,1-.36-1.18,1.72,1.72,0,0,1,.66-1.45.73.73,0,0,0-.4-.11,1,1,0,0,0-.55.18c-.27.16-.41.29-.41.38s.05.09.14.15.16.13.16.26a2.07,2.07,0,0,1-.88,1.42,1.57,1.57,0,0,1-1,1.27,1.74,1.74,0,0,1-.39.82,3.09,3.09,0,0,0-.66,1.23c0,.19-.09.27-.15.27s-.23-.12-.41-.31a3.11,3.11,0,0,1-.29-.34,1.7,1.7,0,0,1-.2-.57.72.72,0,0,1-.25,0h-.44a2.21,2.21,0,0,0-1,.22.43.43,0,0,1-.15.07c-.12,0-.21-.24-.21-.54a2.87,2.87,0,0,1,.6-1.76,3,3,0,0,1-.34-.32.62.62,0,0,0-.14-.13l-.2-.11c-.07,0-.11-.08-.11-.12s.26-.34.57-.54a1.62,1.62,0,0,1,.87-.32c.29,0,.45.07.82.39s.43.32.55.32a.35.35,0,0,0,.26-.16.47.47,0,0,0,.09-.27,1.93,1.93,0,0,0-.86-1.22,2,2,0,0,0-1.07-.34,1.2,1.2,0,0,0-1.12.64l-.2.41c0,.1-.1.14-.17.14s-.17-.05-.58-.52l-.46-.54a1.45,1.45,0,0,1-.29-.46,1.13,1.13,0,0,0-.09-.23l-.18-.14a2.34,2.34,0,0,1-.77-1.49l-.05-.23a3,3,0,0,1-.7-1.78.8.8,0,0,1,0-.24c-.25-.26-.28-.32-.48-1a2.51,2.51,0,0,0-.41-.93.31.31,0,0,1-.07-.14c0-.1.15-.18.41-.22a1.7,1.7,0,0,1,.36,0l.36,0,0-.49a3.47,3.47,0,0,1,.09-.82,2.06,2.06,0,0,0,.05-.37s0-.13,0-.3a1.46,1.46,0,0,0-.05-.27.49.49,0,0,1,0-.15c0-.06,0-.09.11-.09a.64.64,0,0,1,.24.08,4.51,4.51,0,0,1,.77.46,2.74,2.74,0,0,1,1.1,1.69v.14c0,.16,0,.25,0,.26a.55.55,0,0,0,.12.29l.2.27a1.36,1.36,0,0,1,.29.7c0,.17,0,.24-.32.66a1.36,1.36,0,0,0-.3.8,2.41,2.41,0,0,0,.36,1.13c.21.37.45.58.69.58.4,0,.57-.35.64-1.31,0-.5.08-.95.14-1.36l0-.25c0-.11,0-.18-.18-.35l-.54-.63c-.51-.6-.67-.91-.67-1.33a.78.78,0,0,1,.79-.83l.21,0v-.14a1.94,1.94,0,0,1,.09-.49c.11-.38.26-.68.33-.68a.52.52,0,0,1,.17.09l.32.12a2,2,0,0,1,.36.18,1.57,1.57,0,0,1,.29-.63c.23-.3.49-.54.59-.54s.16.08.29.21l.34.36a1.38,1.38,0,0,1,.2.34l.07.16.21-.13.29-.16.34-.16a.54.54,0,0,1,.18-.09c.06,0,.1.11.23.7a4.09,4.09,0,0,1,.13.79.89.89,0,0,1,.84,1,2.7,2.7,0,0,1-.9,1.81.54.54,0,0,0-.21.43c0,1.58.55,2.08,2.53,2.29a12.74,12.74,0,0,1,3,.65A6.06,6.06,0,0,0,85,112c.34,0,.53-.12.53-.34s-.24-.44-1.67-.74c-3.32-.7-4.62-1.83-4.62-4a2.66,2.66,0,0,1,2.72-2.73,4.36,4.36,0,0,1,2.27.77c.9.52,1.08.61,1.29.61s.34-.15.34-.54.08-.37.23-.37a.93.93,0,0,1,.55.38,1.28,1.28,0,0,1,.41,1,1.22,1.22,0,0,1-1,1.26l-.16.18a1.47,1.47,0,0,1-1.28.56A3,3,0,0,1,83,107.5l-.86-.61a1.59,1.59,0,0,0-.9-.37.54.54,0,0,0-.59.59.81.81,0,0,0,.63.77l.81.25a4.2,4.2,0,0,1,.77.32,2.56,2.56,0,0,1,.4,0,3.4,3.4,0,0,1,1.52.38,2.06,2.06,0,0,0,.32.14l.45.13a2.75,2.75,0,0,1,1.85,2.53,2,2,0,0,1-2.15,2.05l-.41,0m31.14-.27a1.56,1.56,0,0,0,1.11.68,2.32,2.32,0,0,0,.48-.07l.24,0c.09,0,.12,0,.12.11a1.22,1.22,0,0,1-.09.33,1.84,1.84,0,0,0-.11.32l-.07.38-.18.32-.25.23-.07.07v.24a1,1,0,0,1-.48.92l-.12.09,0,.14a4.06,4.06,0,0,1-.18.63,3.52,3.52,0,0,1-.34.5,3.28,3.28,0,0,0-.45.74c-.07.18-.13.23-.25.23s-.35-.22-.38-.48l-.09.11-.21.14-.34.23a2.16,2.16,0,0,0-.29.21l-.2.2a.16.16,0,0,1-.1.05c-.09,0-.18-.15-.27-.45l-.18-.59a2,2,0,0,1-.07-.58,1.25,1.25,0,0,1,.13-.64,2.25,2.25,0,0,0-.64.13l-.16,0c-.06,0-.1,0-.1-.11a1.14,1.14,0,0,1,.07-.27l.23-.61a1.51,1.51,0,0,1,1.23-.9,1.59,1.59,0,0,1,.46.1,1,1,0,0,0,.27.06.36.36,0,0,0,.37-.34.27.27,0,0,0-.14-.23l-.64-.2a1.48,1.48,0,0,1-.79-.59c-.25-.28-.34-.36-.43-.36s-.11,0-.11.13l0,.24v.11a3.29,3.29,0,0,1-.51,1.63l-.5.91a2.24,2.24,0,0,0-.34,1.09c0,.36.16.68.36.73l.27.07a.19.19,0,0,1,.09.05.17.17,0,0,1,.05.1.31.31,0,0,1-.09.17l-.32.41a1.53,1.53,0,0,1-.88.66,1.73,1.73,0,0,1-1.2,1l-.07.12a1.45,1.45,0,0,1-1,.72h-.07a1.4,1.4,0,0,1-.63.91,4.42,4.42,0,0,0-.41.3.68.68,0,0,0-.09.16c-.08.18-.15.25-.26.25s-.35-.18-.46-.52l-.16.11-.34.23a4,4,0,0,1-.63.18,1.69,1.69,0,0,0-.91.45l-.16.27-.07,0c-.09,0-.19-.12-.23-.28a4.39,4.39,0,0,1-.16-1,2.18,2.18,0,0,1,.86-1.7v-.15a1.68,1.68,0,0,1,1.86-1.66h.18l.61,0h.06a1.49,1.49,0,0,0,1-.4c.44-.36.56-.58.56-1a2.75,2.75,0,0,0-.17-.72A2.91,2.91,0,0,1,109,117a2.94,2.94,0,0,1,1.28-2.17c.19-.13.33-.3.33-.41s0-.07,0-.07a.45.45,0,0,0-.23.14,2,2,0,0,1-.43.27l-.29.14-.32.13c-.1,0-.15.09-.15.16a.46.46,0,0,0,0,.16.43.43,0,0,1,0,.13.51.51,0,0,1-.09.21l-.25.41a1.53,1.53,0,0,1-.74.72c-.2.59-.49.89-.91.95-.34.68-.64.92-1.24,1a2.17,2.17,0,0,1-.54.82,2,2,0,0,0-.23.29c-.14.25-.15.27-.22.27a.87.87,0,0,1-.41-.27,1.07,1.07,0,0,1-.16-.22l-.16-.29c-.05-.09-.1-.13-.17-.13H104l-.39.05a1.25,1.25,0,0,0-.72.41l-.21.32a.11.11,0,0,1-.09.05c-.16,0-.26-.35-.26-.94a1.85,1.85,0,0,1,.26-1.1l.5-.7a.52.52,0,0,0,.11-.27.36.36,0,0,0-.09-.23.56.56,0,0,0-.29-.21l-.38-.05c-.07,0-.09,0-.09-.06a.23.23,0,0,1,.06-.12,1.74,1.74,0,0,1,.45-.39,2,2,0,0,1,1-.38,1.75,1.75,0,0,1,.94.3l.52.34a.45.45,0,0,0,.25.07c.24,0,.42-.14.59-.47a1.71,1.71,0,0,0,.24-.83,1.11,1.11,0,0,0-1.15-1.16,1.53,1.53,0,0,0-.93.36.58.58,0,0,0-.18.2l-.14.32c0,.08-.09.13-.13.13s-.29-.26-.46-.59a4.07,4.07,0,0,1-.25-.65,2.91,2.91,0,0,1-.15-.89l0-.48a1.8,1.8,0,0,1-.33-1.11,2,2,0,0,1,.13-.63,1.31,1.31,0,0,1-.2-.8l0-.22.05-.25,0-.21c-.17-.23-.22-.38-.39-1.16a2.45,2.45,0,0,0-.23-.75.27.27,0,0,1-.05-.11c0-.11.25-.2.53-.2l.25,0a.85.85,0,0,1-.07-.36,2.21,2.21,0,0,1,.13-.71,1.38,1.38,0,0,0,.11-.44,1.71,1.71,0,0,0-.08-.55l-.14-.36a.51.51,0,0,1,0-.19s0,0,.09,0a3,3,0,0,1,1.55.88,1.92,1.92,0,0,1,.69,1.63l0,.39a1.59,1.59,0,0,1,.7,1.16.94.94,0,0,1-.36.73,1.54,1.54,0,0,0-.59,1.35c0,1,.28,1.46.81,1.46s.82-.5.88-1.24l.05-.68c0-.18,0-.39.09-.65a3.52,3.52,0,0,0,.05-.47c0-.24-.16-.54-.63-1.09a2,2,0,0,1-.67-1.36.9.9,0,0,1,.9-1,.64.64,0,0,1,.35.1,1.7,1.7,0,0,1,.2-.81c.14-.35.29-.59.36-.59a.2.2,0,0,1,.11.07,1.7,1.7,0,0,0,.23.2l.18.13.16.16a1.71,1.71,0,0,1,.56-.91c.25-.25.34-.32.39-.32a.19.19,0,0,1,.13.09l.22.29.3.34a1,1,0,0,1,.21.55l.18-.11.29-.16.22-.14a.25.25,0,0,1,.11-.06s.06.05.08.13l.11.41.23.46a.9.9,0,0,1,.09.46v.11h.12c.35,0,.66.42.66.9a2.59,2.59,0,0,1-1.17,1.9,1.44,1.44,0,0,0-.07.48c0,1.42.37,1.72,2.56,2a11.66,11.66,0,0,1,1.47.3l1.42.46a3.54,3.54,0,0,0,1.06.23c.27,0,.41-.08.41-.22s-.36-.46-1.46-.89l-1.56-.61a3.09,3.09,0,0,1-2.33-3,2.83,2.83,0,0,1,2.9-2.9,5.94,5.94,0,0,1,2.11.45,5.46,5.46,0,0,0,1.31.43c.22,0,.34-.15.37-.46s.1-.38.25-.38.46.2.63.54a2.13,2.13,0,0,1,.23.93A1,1,0,0,1,119,107a1.74,1.74,0,0,1-1.44.74c-.71,0-1.07-.14-2.28-.9a1.55,1.55,0,0,0-.94-.34.67.67,0,0,0-.74.63c0,.33.26.54.86.7a.93.93,0,0,1,.59.3,1.16,1.16,0,0,1,.3,0,3.17,3.17,0,0,1,1.9.83,3.05,3.05,0,0,1,2.08,2.53,2.13,2.13,0,0,1-2,2.09,7,7,0,0,1-1.38-.22"></path> <path class="cls-4" d="M86.26,87.67a1.89,1.89,0,0,1-.07-.43V87.1l.05-.29,0-.23a.9.9,0,0,0-.13-.54l-.21-.29a1.29,1.29,0,0,1-.18-.34.5.5,0,0,1,0-.15.12.12,0,0,1,.13-.13s.07,0,.23.1a.37.37,0,0,0,.18.06c.11,0,.17-.17.17-.48a1.05,1.05,0,0,0-.11-.62L86,83.9l-.23-.2a.24.24,0,0,1-.09-.16.13.13,0,0,1,.14-.13,1.52,1.52,0,0,1,.4.09l.08,0c.07,0,.1,0,.1-.15v-.07l-.05-.38-.11-.39c0-.13-.05-.15-.13-.15h0l-.45.09h-.07a1.59,1.59,0,0,1-1.4-1.12l-.36-1.16A2.38,2.38,0,0,0,83,79.12a.79.79,0,0,0-.36-.2l-.32,0a.09.09,0,0,1-.1-.09c0-.07.07-.11.22-.11l.59.05A4.62,4.62,0,0,1,84,79a3.83,3.83,0,0,0,1.2.26A1.26,1.26,0,0,0,86.6,78a2.26,2.26,0,0,0-.73-1.58,1.6,1.6,0,0,0-.59-.4.09.09,0,0,0-.09.09l0,.23v0c0,.09-.05.16-.12.16s-.19-.12-.31-.36A1.72,1.72,0,0,0,83.34,75c-.09,0-.16,0-.16.1a.94.94,0,0,0,.09.26l.14.32a.62.62,0,0,1,.06.17s0,0-.08,0a.52.52,0,0,1-.3-.17l-.27-.29-.23-.36a1.63,1.63,0,0,0-.73-.63l-.43-.23a.46.46,0,0,0-.22-.07.08.08,0,0,0-.1.09.37.37,0,0,0,.07.19,1,1,0,0,1,.18.36.1.1,0,0,1-.09.11c-.14,0-.43-.28-.68-.66a1.83,1.83,0,0,1-.32-1,1.29,1.29,0,0,1,1.32-1.34,2.73,2.73,0,0,1,1.35.45l.84.52a2.24,2.24,0,0,0,1,.32,2.37,2.37,0,0,0,.52-.09.86.86,0,0,0,.21-.09c.05,0,.09-.07.09-.1a.08.08,0,0,0,0-.08l-.11,0L85,72.71a2.15,2.15,0,0,1-.48-.18,8.64,8.64,0,0,1-.89-.45,3.46,3.46,0,0,0-.59-.34c-.14,0-.24-.12-.24-.17a.07.07,0,0,1,.08-.08.4.4,0,0,1,.19.07,1.36,1.36,0,0,0,.66.25l.77.27a4.75,4.75,0,0,0,1.19.25.59.59,0,0,0,.59-.59A1.54,1.54,0,0,0,86,71c0-.06-.09-.09-.12-.09s-.11,0-.11.14l0,.14,0,.21a.38.38,0,0,1-.36.41.94.94,0,0,1-.28-.05L84,71.35a6,6,0,0,0-1.91-.41,2.3,2.3,0,0,0-2.45,2.21c0,1.43,1,2.34,3.47,3.19s2.77,1,2.77,1.66a.75.75,0,0,1-.77.68,2.39,2.39,0,0,1-.43,0l-1.22-.29a9,9,0,0,0-2.23-.25,4.55,4.55,0,0,0-3.57,1.13.59.59,0,0,1-.52.24H77l-.25,0h0a.57.57,0,0,0-.5.32l-.3.48a.25.25,0,0,1-.2.11c-.16,0-.26-.12-.44-.55a1.5,1.5,0,0,0-.37-.54L74.55,79a.23.23,0,0,1-.09-.14.34.34,0,0,1,.07-.17,1.37,1.37,0,0,0,.25-.47c0-.24.05-.25.15-.25s.14.11.15.52a1.32,1.32,0,0,0,.14.48l.2.43a.17.17,0,0,0,.16.09c.19,0,.42-.43.48-.9s.09-.5.17-.5a.1.1,0,0,1,.08,0l.16.32a.73.73,0,0,0,.23.27.74.74,0,0,0,.21.13h0c.14,0,.19-.1.23-.43l0-.18,0-.25,0-.17c0-.11,0-.19.11-.19a.21.21,0,0,1,.13.07l.18.18a.52.52,0,0,0,.35.18c.15,0,.24-.06.24-.16a1,1,0,0,0-.17-.42l-.12-.23c-.14-.27-.26-.38-.39-.38l-.18,0-.21.09-.14,0a.06.06,0,0,1-.06-.07,1.64,1.64,0,0,1,.3-.73,3.48,3.48,0,0,0,.29-1.41c.06-.93.19-1.54.32-1.54s.12.07.12.27v.42c0,.17,0,.3.08.3s.34-.23.48-.6a1.07,1.07,0,0,0,.09-.36l0-.08-.36-.66-.36-.11a.2.2,0,0,1-.13-.08v-.44l0-.21-.07-.18-.09-.2a2,2,0,0,0-.72.54c-.14.19-.22.26-.29.26A.09.09,0,0,1,76.4,72a1.61,1.61,0,0,1,.05-.29v-.1a1.24,1.24,0,0,0-.62-1l-.11.14-.13.18-.21.25a1.06,1.06,0,0,0-.18.36.7.7,0,0,0,0,.2v.1c0,.15,0,.19-.08.19l0,0-.13-.18-.2-.21-.3-.2-.16-.12-.07.16a.93.93,0,0,0-.09.29l0,.29,0,.3v.05c0,.16,0,.22-.13.22a.65.65,0,0,1-.21-.09.51.51,0,0,0-.26-.07.44.44,0,0,0-.45.49,1.57,1.57,0,0,0,.29.94l.23.3c.06.08.18.15.19.11l0-.38-.05-.3v-.14c0-.12,0-.19.11-.19s.16.11.23.41l.14.66.14.84a3.13,3.13,0,0,0,.21.71,3.77,3.77,0,0,0,.3.63c.2.25.22.29.22.35A.08.08,0,0,1,75,77a.39.39,0,0,1-.16-.05.77.77,0,0,0-.21-.07l-.14,0c-.29,0-.35.25-.35,1.44a7.27,7.27,0,0,0,.34,2.19l.37.95a1.21,1.21,0,0,1,.09.44c0,1.31-1.73,3.35-3.63,4.3a1.47,1.47,0,0,0-1,1.47l0,.23a2.56,2.56,0,0,1,.61-.25c.53-.14.64-.21.72-.46l.07-.23c0-.09.07-.12.48-.34a.76.76,0,0,0,.29-.23c.09-.15.17-.23.21-.23s.07,0,.07.06v.06l-.18.51,0,.12a1,1,0,0,0,.59.89,1.6,1.6,0,0,1,.24-.75l.32-.5a1.35,1.35,0,0,0,.17-.77,3.36,3.36,0,0,0,0-.56V85c0-.09,0-.14.13-.14s.11,0,.12.05l.07.34a.17.17,0,0,0,.17.13c.17,0,.4-.22.63-.63A1,1,0,0,0,75,84.3l0-.24L75,83.79v-.05c0-.12.07-.2.16-.2s.07,0,.08,0l.11.41c0,.14.13.23.23.23s.33-.21.45-.45a1.61,1.61,0,0,0,.16-.73c0-.38,0-.49.18-.49s.08,0,.09,0l.07.23c0,.09.08.14.13.14s.28-.22.41-.45a.34.34,0,0,0,.05-.17c0-.08,0-.15-.16-.25s-.2-.18-.2-.41a1.08,1.08,0,0,1,.2-.63l.23-.43c.23-.44.31-.56.39-.56a.15.15,0,0,1,.13.16.33.33,0,0,1,0,.15.63.63,0,0,0-.07.21.13.13,0,0,0,.13.13.71.71,0,0,0,.32-.11,4.77,4.77,0,0,1,.5-.2l.59-.21a1,1,0,0,1,.36-.05,1.45,1.45,0,0,1,.32,0,2.36,2.36,0,0,0,.41.07.31.31,0,0,0,.3-.3,1.1,1.1,0,0,0-.29-.54.31.31,0,0,1-.09-.16l0-.07a.12.12,0,0,1,.1-.07c.12,0,.4.3.66.7,1.54,2.43,2.09,3,3.13,3.33s1.33.57,1.33,1.19a2.35,2.35,0,0,1-.56,1.28,3.5,3.5,0,0,0-1,2.25V88l.2-.09a1.57,1.57,0,0,1,.29-.13l.45-.09a.38.38,0,0,0,.25-.36v0L85,86.89v-.05a.53.53,0,0,1,.16-.38.15.15,0,0,1,.09,0,.18.18,0,0,1,.14.11l.29.61a1,1,0,0,0,.63.54m-14.43-13c-.13,0-.2.11-.21.36l0,.34a3.14,3.14,0,0,0,0,.43c0,.26.08.44.18.44s.29-.22.38-.47a1.2,1.2,0,0,0,.08-.42A1.26,1.26,0,0,0,72.1,75c-.06-.18-.17-.29-.27-.29"></path> <path class="cls-4" d="M70.19,71.91v.15A4.92,4.92,0,0,1,70,73.23a1.39,1.39,0,0,0-.05.33A.77.77,0,0,0,70,74a.47.47,0,0,0,.16.18l.21.11,0,.25a1.2,1.2,0,0,0,.05.39,2,2,0,0,1,.07.53c0,.15,0,.21,0,.21s-.19-.19-.3-.46c-.17-.43-.33-.59-.57-.59a1.13,1.13,0,0,0-.56.14l.11.14.16.3.25.48.3.57a.76.76,0,0,0,.25.25l.29.16c.09,0,.15.12.15.17a.14.14,0,0,1-.15.14h0l-.23,0h-.13c-.07,0-.1.06-.1.2A2.16,2.16,0,0,0,71,78.63a.33.33,0,0,1,.14.19.13.13,0,0,1-.13.11.72.72,0,0,1-.23-.07.29.29,0,0,0-.12,0c-.09,0-.15.07-.15.18a2.44,2.44,0,0,0,.33.8,1.26,1.26,0,0,0,.61.59l.81.34a.12.12,0,0,1,.07.11.12.12,0,0,1-.11.13l-.16,0L72,81l-.23,0h0c-.11,0-.16,0-.16.08a1.73,1.73,0,0,0,.26.58c.19.32.36.5.46.5a.14.14,0,0,0,.11-.09l.2-.41A1.42,1.42,0,0,1,73,81.3a1.45,1.45,0,0,1,.5-.2l.32-.05a.15.15,0,0,0,.13-.17v0l-.05-.34,0-.38,0-.34,0-.39c0-.1,0-.15-.09-.15s-.12.06-.16.13c-.28.43-.48.57-.78.57-1,0-1.68-1.68-1.68-3.9,0-.19,0-.44,0-.74,0-.57.05-.71.05-.92a2.83,2.83,0,0,0-.61-2l-.25-.25-.16-.18M72.5,85a2.11,2.11,0,0,1-.52-.12l-.34-.14a1.77,1.77,0,0,0-.68-.18,1.1,1.1,0,0,0-.75.3l.16.12.36.25.34.27a.48.48,0,0,0,.3.11A1.69,1.69,0,0,0,72.5,85m6.89,3.26a1,1,0,0,1,.36-.46c.5-.43.73-.75.73-1v-.39c0-.23,0-.3.16-.3a.12.12,0,0,1,.11.05l.09.21a.16.16,0,0,0,.15.08c.07,0,.17-.08.26-.21l.18-.25a.54.54,0,0,0,.09-.56l-.13-.29a.85.85,0,0,1-.07-.28c0-.12.06-.19.16-.19a.16.16,0,0,1,.13.05l.14.18a.17.17,0,0,0,.14.06.24.24,0,0,0,.19-.15l.14-.29a.42.42,0,0,0,.06-.16c0-.06-.06-.11-.16-.16l-.23-.11a1.3,1.3,0,0,1-.54-1.15.52.52,0,0,1,0-.19l.13-.3a.74.74,0,0,0,.05-.29,1,1,0,0,0-.18-.56,4.33,4.33,0,0,1-.23-.37c-.11-.28-.16-.36-.25-.36l-.09,0-.12.07-.2.11-.23.29-.25.12a.84.84,0,0,0-.29.66c0,.46.05.59.67,1.65a2.21,2.21,0,0,1,.36,1c0,.74-.66,1.26-2,1.57l-.82.2a1.41,1.41,0,0,0-1.09,1.27,1.33,1.33,0,0,1,.79-.15h.3c.24,0,.27,0,.42-.23A1.36,1.36,0,0,1,79,87l.29-.13.23-.12.07,0c.06,0,.1,0,.1.07a.57.57,0,0,1-.17.3,1,1,0,0,0-.29.69.66.66,0,0,0,.2.47"></path> <path class="cls-4" d="M77.13,85.47a2.09,2.09,0,0,1,.54.48c.17.23.2.25.36.25a1.21,1.21,0,0,0,.26,0l.16,0c.29-.06.4-.1.4-.17a.23.23,0,0,0-.09-.15l-.2-.18-.2-.18a1,1,0,0,0-.59-.2,1.12,1.12,0,0,0-.65.22m5.8,1,.11,0,.16,0,.16,0h.08a.78.78,0,0,0,.78-.69c0-.12-.11-.19-.32-.19-.48,0-.79.28-1,.9m36.72,1.23a1.24,1.24,0,0,1-.06-.33l0-.24a4.84,4.84,0,0,0,.06-.7.56.56,0,0,0-.13-.36l-.21-.29a.79.79,0,0,1-.2-.49c0-.1,0-.14.1-.14l.08,0,.16.09a.39.39,0,0,0,.18.06c.11,0,.16-.17.16-.5a1,1,0,0,0-.36-.9l-.25-.2a.19.19,0,0,1-.07-.15.13.13,0,0,1,.13-.14l.21,0,.2.05.08,0c.06,0,.09,0,.09-.15v-.06l-.05-.38c-.06-.39-.12-.54-.24-.54h0l-.46.09H119a1.64,1.64,0,0,1-1.39-1.12l-.34-1.16a2.4,2.4,0,0,0-.86-1.09.84.84,0,0,0-.38-.2l-.32,0a.1.1,0,0,1-.1-.09c0-.07.06-.11.19-.11a5,5,0,0,1,1.59.31,4,4,0,0,0,1.2.26c.9,0,1.44-.47,1.44-1.24a2.41,2.41,0,0,0-.34-1.19,2.84,2.84,0,0,0-.84-.79.28.28,0,0,0-.14-.06.09.09,0,0,0-.09.09l0,.23v0c0,.09-.05.16-.12.16s-.2-.12-.32-.36A1.7,1.7,0,0,0,116.76,75c-.12,0-.19,0-.19.12a.51.51,0,0,0,.09.24,2.36,2.36,0,0,1,.16.32.51.51,0,0,1,0,.15s0,.05-.08.05a.52.52,0,0,1-.3-.17l-.27-.29-.23-.36a1.71,1.71,0,0,0-.72-.63l-.45-.23a.53.53,0,0,0-.23-.07.07.07,0,0,0-.09.08.4.4,0,0,0,.08.21.91.91,0,0,1,.17.36.1.1,0,0,1-.09.11c-.13,0-.35-.22-.67-.66a1.71,1.71,0,0,1-.34-1A1.32,1.32,0,0,1,115,71.89a2.76,2.76,0,0,1,1.34.45l.86.52a2.22,2.22,0,0,0,1,.32,1.59,1.59,0,0,0,.5-.09.91.91,0,0,0,.23-.09.13.13,0,0,0,.06-.1c0-.07,0-.1-.15-.11a5.11,5.11,0,0,1-1.77-.7,4.67,4.67,0,0,0-.59-.34c-.15-.05-.25-.13-.25-.19s0,0,.08,0l.11,0,.78.28.75.27a4.72,4.72,0,0,0,1.2.25.55.55,0,0,0,.57-.57,1.16,1.16,0,0,0-.11-.5c-.11-.21-.25-.4-.31-.4s-.11.07-.11.19v.1l0,.23c0,.24-.13.4-.34.4a1,1,0,0,1-.29-.06l-1.16-.38a5.79,5.79,0,0,0-1.9-.41A2.3,2.3,0,0,0,113,73.15c0,1.43,1,2.32,3.49,3.19s2.76,1,2.76,1.68a.72.72,0,0,1-.78.66,2.32,2.32,0,0,1-.42,0l-1.22-.29a8.82,8.82,0,0,0-2.23-.25,4.47,4.47,0,0,0-3.55,1.13.64.64,0,0,1-.54.24h-.12l-.28,0a.56.56,0,0,0-.51.32l-.29.48a.23.23,0,0,1-.21.11c-.18,0-.28-.12-.46-.55a1.35,1.35,0,0,0-.36-.54l-.38-.32a.21.21,0,0,1-.09-.13.36.36,0,0,1,.09-.17,1.93,1.93,0,0,0,.16-.25.68.68,0,0,0,.09-.22l0-.16a.13.13,0,0,1,.13-.09c.12,0,.14.08.14.52a1.29,1.29,0,0,0,.14.48l.2.43a.17.17,0,0,0,.16.09c.19,0,.42-.44.48-.9s.09-.5.17-.5.11,0,.26.36a.83.83,0,0,0,.21.27.52.52,0,0,0,.21.13h0c.15,0,.2-.09.23-.43l0-.18,0-.25,0-.17c0-.11,0-.19.11-.19a.21.21,0,0,1,.13.07l.18.18a.52.52,0,0,0,.36.18c.15,0,.25-.07.25-.18s0-.13-.18-.4l-.13-.23c-.16-.3-.23-.38-.37-.38l-.18,0-.23.09-.14,0a.07.07,0,0,1-.05-.07,1.62,1.62,0,0,1,.3-.73,4.11,4.11,0,0,0,.3-1.41l.09-.84c.05-.52.11-.7.22-.7s.07,0,.07,0l.05.27v.21c0,.26,0,.47.06.47s.19-.09.3-.24a1.21,1.21,0,0,0,.18-.36,1.67,1.67,0,0,0,.09-.47c0-.41-.17-.59-.73-.75a.2.2,0,0,1-.11-.05l0-.16v-.3l0-.21-.07-.18-.09-.2-.14.09a1.83,1.83,0,0,0-.57.45c-.16.2-.22.26-.29.26a.08.08,0,0,1-.09-.08l.07-.3v-.05a1.33,1.33,0,0,0-.61-1.06l-.12.14-.13.18-.21.25a.84.84,0,0,0-.2.53v.12c0,.14,0,.19-.09.19l0,0-.14-.18-.18-.21-.32-.2-.16-.12a1.5,1.5,0,0,0-.18.9v.15c0,.16-.05.26-.14.26a.56.56,0,0,1-.22-.09.53.53,0,0,0-.27-.07.48.48,0,0,0-.45.52,1.56,1.56,0,0,0,.29.91c.14.23.33.42.41.42a2,2,0,0,0,.05-.38l-.05-.3v-.14c0-.12,0-.19.11-.19s.16.11.23.41l.14.66.14.84a3.21,3.21,0,0,0,.21.71,3.46,3.46,0,0,0,.3.63c.2.25.22.29.22.35a.08.08,0,0,1-.08.08.39.39,0,0,1-.16-.05.77.77,0,0,0-.21-.07l-.13,0c-.3,0-.36.24-.36,1.43a7.27,7.27,0,0,0,.34,2.21l.38.95a1.25,1.25,0,0,1,.09.45c0,1.31-1.77,3.4-3.63,4.3-.73.35-.94.71-1,1.7a3.54,3.54,0,0,1,.63-.25c.53-.15.64-.22.72-.46l.07-.23c0-.1.1-.15.47-.34a.74.74,0,0,0,.29-.23c.09-.15.17-.23.21-.23s.08,0,.08.09v0l-.2.51,0,.13a1,1,0,0,0,.59.88l.05-.21a1.93,1.93,0,0,1,.18-.54l.34-.5c.12-.18.15-.3.15-.76l0-.56V85c0-.09,0-.14.12-.14s.11,0,.12.05l.05.34a.17.17,0,0,0,.18.13c.17,0,.4-.22.63-.63a.79.79,0,0,0,.13-.43,4.29,4.29,0,0,0-.06-.56v-.1a.13.13,0,0,1,.14-.15s.08,0,.09,0l.12.41c0,.14.14.23.24.23.28,0,.56-.56.59-1.16,0-.38.06-.51.18-.51s.08,0,.09,0l.07.23c0,.09.08.14.13.14s.14-.08.25-.21a1.62,1.62,0,0,0,.16-.23.39.39,0,0,0,.05-.19c0-.09,0-.12-.16-.22a.45.45,0,0,1-.2-.38,2.32,2.32,0,0,1,.43-1.09c.29-.5.33-.56.4-.56s.12.07.12.15a.37.37,0,0,1,0,.16.63.63,0,0,0-.07.21.13.13,0,0,0,.14.13.73.73,0,0,0,.33-.11,4,4,0,0,1,.48-.2l.61-.21a1.22,1.22,0,0,1,.37-.05,1.39,1.39,0,0,1,.31,0,2.2,2.2,0,0,0,.41.07.28.28,0,0,0,.29-.28.75.75,0,0,0-.11-.31l-.16-.25c-.08-.08-.11-.13-.11-.16l0-.07a.12.12,0,0,1,.1-.07c.14,0,.42.29.67.7,1.4,2.29,2.08,3,3.11,3.33s1.33.55,1.33,1.2a2.35,2.35,0,0,1-.56,1.27,3.75,3.75,0,0,0-1,2.23V88l.2-.09a1.48,1.48,0,0,1,.29-.13l.45-.09a.37.37,0,0,0,.25-.37v0l0-.39v-.06c0-.22.11-.41.24-.41a.17.17,0,0,1,.14.11l.29.61a1,1,0,0,0,.63.54M105,75.4l0,.29v.18c0,.29,0,.42.15.42s.3-.22.39-.47a1.82,1.82,0,0,0,.09-.48.88.88,0,0,0-.09-.34c-.08-.2-.16-.29-.26-.29s-.22.2-.26.7"></path> <path class="cls-4" d="M103.58,71.91v.15a3.55,3.55,0,0,1-.13.76l-.11.41a1.45,1.45,0,0,0,0,.33.67.67,0,0,0,.3.59l.2.11,0,.25a1.19,1.19,0,0,0,.05.39,2,2,0,0,1,.07.54c0,.15,0,.21,0,.21s-.19-.19-.29-.46c-.17-.43-.33-.59-.57-.59a1.12,1.12,0,0,0-.56.14,4.08,4.08,0,0,1,.52.93c.29.63.4.76.84,1,.1,0,.17.11.17.17a.14.14,0,0,1-.16.14l-.25,0h-.13c-.07,0-.1.06-.1.2a2.18,2.18,0,0,0,1.07,1.53c.09.06.14.13.14.18a.12.12,0,0,1-.06.09.16.16,0,0,1-.1,0,.66.66,0,0,1-.21-.07.31.31,0,0,0-.13,0c-.09,0-.14.08-.14.21a1.83,1.83,0,0,0,.33.78,1.47,1.47,0,0,0,.59.59l.81.34a.12.12,0,0,1,.07.1.13.13,0,0,1-.11.13l-.14,0-.16,0-.22,0h0c-.11,0-.15,0-.15.08a1.69,1.69,0,0,0,.26.58c.2.34.34.5.44.5a.14.14,0,0,0,.11-.09l.2-.41a1.84,1.84,0,0,1,.46-.36,1.25,1.25,0,0,1,.5-.2c.43-.06.47-.08.47-.26a2.17,2.17,0,0,0-.05-.35c0-.09,0-.22-.05-.38l0-.34,0-.39c0-.1,0-.15-.09-.15s-.1.05-.14.13a1.07,1.07,0,0,1-.77.57c-1,0-1.68-1.59-1.68-3.93l0-.7.05-.84v-.3a2.77,2.77,0,0,0-.62-1.83l-.25-.25-.16-.18M105.89,85a2.67,2.67,0,0,1-.86-.27,1.62,1.62,0,0,0-.67-.18,1.1,1.1,0,0,0-.76.31l.16.12.36.25.34.27a.48.48,0,0,0,.3.11c.35,0,.65-.16,1.13-.61m6.89,3.26a1,1,0,0,1,.36-.46c.5-.43.73-.75.73-1v-.39c0-.23,0-.3.16-.3a.11.11,0,0,1,.11.05l.09.21a.16.16,0,0,0,.15.08c.13,0,.22-.09.44-.46a.68.68,0,0,0,.13-.35.56.56,0,0,0,0-.2l-.12-.29a.85.85,0,0,1-.07-.28c0-.12.06-.19.16-.19a.16.16,0,0,1,.13.05l.14.18s0,.06.09.06a.3.3,0,0,0,.23-.15l.14-.29a.4.4,0,0,0,.05-.16c0-.06-.06-.12-.14-.16l-.25-.11a1.27,1.27,0,0,1-.54-1.11.77.77,0,0,1,.05-.23l.11-.3a.89.89,0,0,0,.05-.3,1,1,0,0,0-.18-.54,4,4,0,0,1-.21-.37c-.1-.27-.17-.36-.25-.36a.45.45,0,0,0-.23.09l-.18.11-.25.29-.25.12a.86.86,0,0,0-.29.67c0,.39.09.6.67,1.64a2.27,2.27,0,0,1,.36,1c0,.73-.74,1.33-2,1.58-1.45.3-1.77.54-1.93,1.47a1.33,1.33,0,0,1,.79-.15h.3c.24,0,.27,0,.42-.23a1.36,1.36,0,0,1,.59-.5l.29-.13.23-.12.07,0c.06,0,.1,0,.1.07a.62.62,0,0,1-.17.3,1,1,0,0,0-.27.59.85.85,0,0,0,.18.57"></path> <path class="cls-4" d="M110.53,85.47a2.09,2.09,0,0,1,.54.48c.17.23.2.25.36.25a1.21,1.21,0,0,0,.26,0l.16,0c.3-.06.4-.1.4-.18a.19.19,0,0,0-.07-.14l-.21-.18-.2-.18a1,1,0,0,0-.56-.2,1.23,1.23,0,0,0-.67.21m5.8,1,.11,0,.18,0,.14,0h.1a.54.54,0,0,0,.35-.08,1.46,1.46,0,0,0,.34-.41.43.43,0,0,0,.07-.2c0-.12-.11-.19-.31-.19-.49,0-.79.27-1,.9m-31.8,37.82.11-.21.25-.27a1.33,1.33,0,0,0,.33-.93,2,2,0,0,0-.09-.58A1.44,1.44,0,0,1,85,122c0-.11.09-.22.17-.22a.22.22,0,0,1,.13.09l.27.3a.62.62,0,0,0,.43.27l0-.25,0-.29a2.09,2.09,0,0,0-.39-1.21c-.14-.18-.21-.29-.21-.36a.12.12,0,0,1,.1-.12l.07,0c.17.13.26.18.31.18s.16-.21.16-.45a1.66,1.66,0,0,0-.36-1l-.21-.27a.18.18,0,0,1,0-.1.14.14,0,0,1,.15-.13.37.37,0,0,1,.22.09.28.28,0,0,0,.14.05c.14,0,.19-.2.19-.73v-.22l0-.32c0-.38-.05-.45-.21-.45h-.14c-.87,0-1.28-.55-1.5-2-.16-1.08-.56-1.84-1.06-2-.29-.1-.4-.16-.4-.24s.08-.1.17-.1a1.18,1.18,0,0,1,.34.09,5,5,0,0,0,1.84.43,1.47,1.47,0,0,0,1.53-1.43,2.45,2.45,0,0,0-.81-1.74,1,1,0,0,0-.45-.27h0l-.09,0,0,.26.07.18,0,.07a.08.08,0,0,1-.09.07.16.16,0,0,1-.13-.07L85,109.6a1.7,1.7,0,0,0-1.23-.7c-.15,0-.24.07-.24.17a.4.4,0,0,0,.11.21.61.61,0,0,1,.16.29l0,.07s0,.07-.07.07h0c-.09,0-.13,0-.52-.48a2.31,2.31,0,0,0-1.32-.72.18.18,0,0,0-.13.06.11.11,0,0,0,0,.07.33.33,0,0,0,.12.2.6.6,0,0,1,.2.27s0,.07-.1.07-.33-.15-.76-.49a2,2,0,0,1-1-1.59,1.17,1.17,0,0,1,1.13-1.23,2.21,2.21,0,0,1,1.2.43l.88.66a2.32,2.32,0,0,0,1.41.46.66.66,0,0,0,.31-.07c.08,0,.13-.09.13-.12s-.07-.05-.16-.08a2,2,0,0,1-.75-.32l-.89-.68a6.26,6.26,0,0,0-.7-.48c-.47-.25-.57-.31-.57-.36s0,0,.1,0a.41.41,0,0,1,.16,0l.46.2a5.34,5.34,0,0,1,.75.45,3.55,3.55,0,0,0,2,.85.89.89,0,0,0,.93-.9.71.71,0,0,0-.07-.31l-.09-.18c0-.06-.09-.11-.11-.09l-.05.07-.05.37a.69.69,0,0,1-.05.13.63.63,0,0,1-.12.18.4.4,0,0,1-.33.13c-.28,0-.59-.15-1.43-.68a4.42,4.42,0,0,0-2.22-.82A2.32,2.32,0,0,0,79.67,107c0,1.79,1.09,2.6,4.53,3.35,1.3.28,1.88.67,1.88,1.25s-.43.87-1.11.87a2.57,2.57,0,0,1-.49,0l-1.84-.5a9.29,9.29,0,0,0-2.39-.33,3.21,3.21,0,0,0-2.87,1.26c-.07.1-.14.16-.19.16a.28.28,0,0,1-.15-.07l-.25-.2a1.21,1.21,0,0,0-.64-.25.56.56,0,0,0-.38.16.48.48,0,0,1-.18.12c-.1,0-.28-.22-.43-.52a2.88,2.88,0,0,1-.3-1.22c0-.18.06-.3.13-.3s.11,0,.13.14l.14.52c.08.29.24.52.37.52s.15-.08.26-.22a.84.84,0,0,0,.14-.25c.11-.33.14-.37.23-.37s.16.06.23.39a1.12,1.12,0,0,0,.12.31,1.78,1.78,0,0,0,.21.32.26.26,0,0,0,.19.09c.16,0,.3-.26.3-.55v-.08l0-.33c0-.13,0-.17.09-.17s.07,0,.13.09a1,1,0,0,0,.3.25.63.63,0,0,0,.26.09.27.27,0,0,0,.17-.09.21.21,0,0,0,.07-.14c0-.05-.06-.13-.25-.33a2.26,2.26,0,0,1-.36-.72c0-.14-.12-.23-.17-.23l-.12,0-.23.09-.16.07H77a.13.13,0,0,1-.14-.12c0-.07.16-.26.36-.43a.66.66,0,0,0,.23-.48c0-.3.07-.54.13-.54l.05-.63a6.46,6.46,0,0,1,.27-1.23c0-.07,0-.11.07-.11s.09.13.09.28v.27c0,.23,0,.34.11.34s.17-.11.24-.31l.16-.41a.93.93,0,0,0,.07-.33.54.54,0,0,0-.5-.6l-.13,0-.13,0a.21.21,0,0,1-.17-.22l0-.26,0-.36-.07-.37,0-.18-.16.09-.2.16-.29.23-.23.2a.21.21,0,0,1-.13.05c-.14,0-.15,0-.15-.32v-.07c0-.22-.1-.4-.47-.83l-.09-.11-.07.12-.2.32-.2.5,0,.32c0,.09,0,.16-.08.16s-.1,0-.17-.13a1.39,1.39,0,0,0-.77-.52l0,.13c-.06.21-.1.34-.11.38l0,.34v.26c0,.1,0,.16-.1.16h0l-.11-.09a.33.33,0,0,0-.22-.06c-.33,0-.55.18-.55.47s.07.37.41.88c.14.22.31.4.38.4s.08-.12.08-.26l0-.21a.89.89,0,0,1-.05-.27c0-.1,0-.15.08-.15s.33.46.4,1.11l.07.66a2.19,2.19,0,0,0,.21.72,1.82,1.82,0,0,0,.47.66c.17.12.28.24.28.3a.11.11,0,0,1-.09.11l-.36-.13-.15,0c-.36,0-.48.2-.48.82a3.42,3.42,0,0,0,1.06,2.26l.82.66a1.93,1.93,0,0,1,.73,1.29c0,.52-.57,1-1.56,1.39l-.59.21c-.46.17-.64.46-.82,1.32a1.44,1.44,0,0,1,.49-.09h.35a.37.37,0,0,0,.41-.35v-.16s.07-.11.16-.16l.25-.12.2-.16a.18.18,0,0,1,.1,0,.1.1,0,0,1,.1.11.47.47,0,0,1,0,.16,1.77,1.77,0,0,0-.09.61,1.51,1.51,0,0,0,.29,1,1.5,1.5,0,0,1,.05-.23,3.07,3.07,0,0,1,.3-.48,2.38,2.38,0,0,0,.47-1.09V117l-.05-.41a.27.27,0,0,1,.09-.2.19.19,0,0,1,.12-.05c.07,0,.12,0,.18.18s.09.16.13.16.19-.16.27-.36a1,1,0,0,0,.09-.38.61.61,0,0,0-.05-.23.62.62,0,0,1-.06-.2s0-.07.07-.12a.15.15,0,0,1,.09,0,.19.19,0,0,1,.11,0l.16.11a.28.28,0,0,0,.14.05.38.38,0,0,0,.25-.2,1.54,1.54,0,0,0,.25-.51s0-.08-.13-.15a1.29,1.29,0,0,1-.59-1,.78.78,0,0,1,.05-.26l.18-.48.14-.38.05,0c.06,0,.1.05.1.14a.59.59,0,0,1,0,.2,1.19,1.19,0,0,0-.07.34.17.17,0,0,0,.19.2.79.79,0,0,0,.3-.07,3.64,3.64,0,0,1,1.23-.36,1,1,0,0,1,.65.23.34.34,0,0,0,.17.07.16.16,0,0,0,.1-.07.16.16,0,0,0,0-.09.39.39,0,0,0-.11-.23.42.42,0,0,1-.13-.25.09.09,0,0,1,.1-.09c.28,0,.72.89,1.14,2.3.33,1.11.42,1.22,1.49,1.83A1.93,1.93,0,0,1,85,118.58a10.29,10.29,0,0,1-.69,3.18,2.22,2.22,0,0,0,0,1.81c.06.23.11.37.12.41a2,2,0,0,0,.14.27"></path> <path class="cls-4" d="M80.37,121.75a2.92,2.92,0,0,1,.34-.61,1.73,1.73,0,0,0,.39-.88V120c0-.27,0-.4.15-.4a.11.11,0,0,1,.1.05l.09.14a.15.15,0,0,0,.13.07.33.33,0,0,0,.2-.15,1.26,1.26,0,0,0,.21-.64l0-.2,0-.2c0-.11,0-.15.15-.15s.1,0,.16.16.09.14.13.14a.2.2,0,0,0,.15-.11l.14-.21.11-.16,0-.09s0-.1-.13-.16a1.46,1.46,0,0,1-.5-1.27,5.59,5.59,0,0,0-.09-1s-.12-.29-.32-.77a4.38,4.38,0,0,1-.21-.64c0-.17-.1-.21-.22-.21a.89.89,0,0,0-.85,1,4.52,4.52,0,0,0,.38,1.45,4.21,4.21,0,0,1,.44,1.49c0,.66-.26.94-1.17,1.27a2.23,2.23,0,0,0-1.68,1.84l.18-.07.25-.09.29-.07a.66.66,0,0,0,.48-.34l.07-.25a.19.19,0,0,1,.11-.12l.16-.07.16-.07,0,.07-.07.23a1.61,1.61,0,0,0,0,.42,1.27,1.27,0,0,0,.3.91m-9.61-16.56a1.1,1.1,0,0,1,0,.2,3.81,3.81,0,0,1-.07.46l0,.36a2.91,2.91,0,0,0,.16.94,1.44,1.44,0,0,1,.11.41v.07c0,.07,0,.13-.07.13a.4.4,0,0,1-.18-.11,1,1,0,0,0-.66-.27l-.3,0,.09.2.27.66.37.57.39.27a.43.43,0,0,1,.11.11.24.24,0,0,1,.05.12.07.07,0,0,1-.07.06l-.36,0c-.06,0-.1,0-.1.08a2.76,2.76,0,0,0,.15.53l.18.52.3.29.32.23a.3.3,0,0,1,.15.2s0,.1-.06.1l-.18,0c-.06,0-.09.06-.09.14a1.6,1.6,0,0,0,.36.7c.28.37.47.5.79.5h.27c.13,0,.21.06.21.17s-.05.13-.17.16-.32.1-.32.22a.38.38,0,0,0,.09.19l.14.2c.12.16.25.27.34.27a.43.43,0,0,0,.26-.16,1.15,1.15,0,0,1,.58-.39c.62-.16.75-.22.75-.37a.47.47,0,0,0-.07-.21,1.64,1.64,0,0,1-.27-.88c0-.22-.06-.38-.14-.38s-.09.06-.15.14a.8.8,0,0,1-.63.38c-.62,0-1.37-1-1.74-2.26a3.53,3.53,0,0,1-.13-1,5,5,0,0,1,.13-1.09l.2-.88,0-.24a2.13,2.13,0,0,0-1-1.46"></path> <path class="cls-4" d="M72,107.68a3.14,3.14,0,0,0-.25,1.16c0,.21.07.37.16.37s.07,0,.1-.09l.2-.36c0-.06.07-.12.13-.22a.67.67,0,0,0,.12-.27.8.8,0,0,0-.45-.61m2,8.07.09.09.14.14c.35.36.4.4.57.4a2,2,0,0,0,.67-.18c.08,0,.12-.09.12-.12s-.06-.1-.18-.2l-.2-.18a1,1,0,0,0-.48-.26,1.35,1.35,0,0,0-.74.32M78.17,119a1.9,1.9,0,0,1,.36.18l.29.18a.78.78,0,0,0,.28,0,.61.61,0,0,0,.22,0l.38-.14.36-.13c.1,0,.16-.09.16-.14s-.08-.07-.2-.1l-.27-.09c-.44-.18-.5-.2-.66-.2a1.19,1.19,0,0,0-.91.43m4.53,3.6c.12-.29.2-.34.61-.36s.9-.85.9-1.41c0-.05,0-.1,0-.1a.3.3,0,0,0-.12.06l-.27.16-.52.23a1.06,1.06,0,0,0-.56,1.41m32.63-4.28.07-.2.07-.25a1.53,1.53,0,0,1,.2-.3,1.43,1.43,0,0,0,.27-.89.74.74,0,0,0-.09-.35.42.42,0,0,1-.05-.17.14.14,0,0,1,0-.08.14.14,0,0,1,.07-.05h0a.32.32,0,0,1,.19.13c.07.09.14.14.18.14s.17-.14.21-.34,0-.17,0-.18a1.7,1.7,0,0,0-.16-.5.42.42,0,0,1-.05-.18.11.11,0,0,1,.1-.11.47.47,0,0,1,.24.15.22.22,0,0,0,.13.07c.11,0,.19-.11.28-.39a1.67,1.67,0,0,0,.07-.28c0-.05,0-.08-.06-.08H117l-.21,0a1.52,1.52,0,0,1-1-.49l-.5-.61a6.11,6.11,0,0,1-.45-.59l-.41-.27a.2.2,0,0,1-.11-.15c0-.07.07-.11.17-.11a4.29,4.29,0,0,1,.92.33,5.55,5.55,0,0,0,1.81.4,1.55,1.55,0,0,0,1.56-1.53,2.28,2.28,0,0,0-.71-1.48.64.64,0,0,0-.33-.22.1.1,0,0,0-.1.1.57.57,0,0,0,.05.2.45.45,0,0,1,0,.16c0,.08,0,.13-.09.13s-.23-.18-.33-.51-.35-.64-.9-.91a2,2,0,0,0-.57-.2s-.06,0-.06.08a.4.4,0,0,0,.07.21.9.9,0,0,1,.14.34v0c0,.07,0,.11-.1.11s-.14,0-.4-.43a2.07,2.07,0,0,0-.81-.61.88.88,0,0,0-.3-.07h0c-.06,0-.11,0-.11.07a.69.69,0,0,0,.08.16l0,.1a.09.09,0,0,1-.08.1,1.91,1.91,0,0,1-.7-.57,1.79,1.79,0,0,1-.46-1.07,1.38,1.38,0,0,1,1.39-1.29,1,1,0,0,1,.46.09l.63.32.73.49a3,3,0,0,0,1.35.49,2,2,0,0,0,.56-.11c.17,0,.28-.12.28-.18h0l-.06,0-.4,0a3.43,3.43,0,0,1-1.11-.5l-.82-.54-.73-.3c-.06,0-.09-.06-.09-.09a.08.08,0,0,1,.08-.07l.2,0,.68.2a5.16,5.16,0,0,1,.82.38,3.79,3.79,0,0,0,1.59.57.67.67,0,0,0,.72-.67,2.41,2.41,0,0,0-.07-.51.66.66,0,0,0-.11-.23s-.06-.07-.09-.07-.08.05-.08.15v.23c0,.33-.13.45-.49.45a5,5,0,0,1-1.61-.48,5.11,5.11,0,0,0-1.92-.46,2.51,2.51,0,0,0-2.53,2.35c0,1.08.72,1.91,2.19,2.52l1.52.63c1.26.52,1.72.89,1.72,1.38s-.38.67-1,.67a4,4,0,0,1-1.16-.26,10.57,10.57,0,0,0-3.16-.64,3.85,3.85,0,0,0-3,1.16c-.1.11-.16.14-.25.14a.52.52,0,0,1-.26-.1.86.86,0,0,0-.39-.13.66.66,0,0,0-.43.24l-.18.23a.23.23,0,0,1-.16.11c-.13,0-.36-.22-.5-.48a1.71,1.71,0,0,1-.18-.46,2.84,2.84,0,0,1,0-.49l0-.33.05-.36a2.89,2.89,0,0,1,.05-.3.09.09,0,0,1,.09-.07c.09,0,.13.09.13.28v.19c0,.51.2,1,.42,1s.33-.31.46-.93c0-.12.07-.2.14-.2s.11.09.17.36a1.58,1.58,0,0,0,.27.57.31.31,0,0,0,.2.14c.15,0,.24-.22.32-.73,0-.2.09-.33.16-.33a.1.1,0,0,1,.07,0l.13.2a.5.5,0,0,0,.2.18.51.51,0,0,0,.21.07.26.26,0,0,0,.17-.07c.08-.07.13-.12.13-.15s0-.08-.11-.16a1.71,1.71,0,0,1-.32-.59l-.16-.41A.25.25,0,0,0,110,110h-.16l-.38.11-.12,0a.08.08,0,0,1-.08-.09.37.37,0,0,1,.15-.2,2.63,2.63,0,0,0,.82-1.84,1.85,1.85,0,0,1,.36-1.06c0-.07.09-.11.11-.11s.11.06.11.16a.74.74,0,0,1-.06.25.59.59,0,0,0,0,.22v.07l0,.11.2-.07.21-.25a1.32,1.32,0,0,0,.24-.73.59.59,0,0,0-.14-.41c-.11-.13-.19-.19-.27-.19h-.25c-.12,0-.17,0-.17-.1l0-.14,0-.2-.11-.45-.09-.22-.05-.18-.13.09-.27.16a.93.93,0,0,0-.21.2c-.25.31-.27.32-.37.32s-.1,0-.1-.07v-.07a1.92,1.92,0,0,0,.05-.37,1.7,1.7,0,0,0-.5-1,1.62,1.62,0,0,0-.57,1.13v.21c0,.08,0,.13-.08.13h0a.21.21,0,0,1-.13-.09l-.21-.29-.29-.23-.14-.12-.07.14a1.89,1.89,0,0,0-.25.86c0,.24,0,.31-.08.31l-.11,0c-.27-.15-.3-.16-.41-.16a.53.53,0,0,0-.54.57,1.41,1.41,0,0,0,.22.6c.16.29.41.56.52.56s0,0,0-.11v0l0-.3,0-.23v0c0-.07,0-.1.08-.1s.3.47.42,1.42a2.76,2.76,0,0,0,.7,1.74c.09.09.15.15.15.19a.07.07,0,0,1-.07.06.56.56,0,0,1-.24-.09.39.39,0,0,0-.19-.06.51.51,0,0,0-.42.43l-.16,1-.13,1.43a3.83,3.83,0,0,0,.11,1.07,4.57,4.57,0,0,1,.13.85,2.3,2.3,0,0,1-1.77,2.25l-1.15.34a1.57,1.57,0,0,0-1.16,1.56.82.82,0,0,1,.52-.21l.34-.05a.92.92,0,0,0,.3-.09,1.52,1.52,0,0,0,.2-.2l.3-.34c.12-.13.22-.2.28-.2s.08,0,.08.1a.65.65,0,0,1-.13.29.85.85,0,0,0-.13.46,1.11,1.11,0,0,0,.29.7,1.3,1.3,0,0,1,.07-.21,3.26,3.26,0,0,1,.27-.37,2,2,0,0,0,.43-.81c0-.28,0-.37.1-.37s.07,0,.1.17a.23.23,0,0,0,.05.11.18.18,0,0,0,.11.07.4.4,0,0,0,.14-.07,1.26,1.26,0,0,0,.29-.25,1.2,1.2,0,0,0,.18-.32,1.14,1.14,0,0,0,.09-.34v-.23c0-.06,0-.11.06-.11s.13.09.19.2.07.09.11.09h0a.26.26,0,0,0,.16-.07,1.06,1.06,0,0,0,.36-.67l0-.33-.07-.27v0a.1.1,0,0,1,.09-.1c.08,0,.17.11.29.37s.11.18.16.18.15-.06.32-.31l.16-.23a.32.32,0,0,0,0-.36l-.14-.21a.35.35,0,0,1,0-.18,1.77,1.77,0,0,1,.27-.84,4.33,4.33,0,0,0,.23-.45c0-.07.06-.11.1-.11s.06,0,.06.09l0,.2v.29c0,.06.07.09.15.09a.54.54,0,0,0,.19,0l.45-.16a3.25,3.25,0,0,0,.41-.2,2.4,2.4,0,0,1,1.26-.47,2.15,2.15,0,0,1,.85.25.48.48,0,0,0,.18.05.22.22,0,0,0,.15-.09.21.21,0,0,0,.05-.13.46.46,0,0,0-.07-.22.82.82,0,0,1-.11-.27.07.07,0,0,1,.08-.08.2.2,0,0,1,.13.1l.41.72a2.13,2.13,0,0,0,1.15,1.09l.79.18c.24.06.31.15.31.45a1.56,1.56,0,0,1-.72,1.34l-.65.41a1.19,1.19,0,0,0-.43.9,4.73,4.73,0,0,0,.13.92l.12-.12.3-.18.27-.27.14-.39.14-.36c.07-.17.15-.29.21-.29s.1.1.1.27v.12a1.37,1.37,0,0,0,.24.76"></path> <path class="cls-4" d="M104.75,123.73c.22-.2.25-.22.86-.34a.92.92,0,0,0,.82-.8.7.7,0,0,1,.45-.61.89.89,0,0,0,.23-.18s.07-.07.09-.07a.07.07,0,0,1,.06.08.72.72,0,0,1-.12.3.66.66,0,0,0-.07.34,1.15,1.15,0,0,0,.21.72,1,1,0,0,1,.45-.5,1.37,1.37,0,0,0,.56-1.18c0-.27.08-.41.15-.41a.09.09,0,0,1,.08.05l.13.27a.12.12,0,0,0,.11.06.42.42,0,0,0,.23-.13l.25-.23a1.31,1.31,0,0,0,.21-.75c0-.15.06-.25.12-.25s.07,0,.09.09l.11.36c0,.09.08.14.13.14a.34.34,0,0,0,.14-.09,1.54,1.54,0,0,0,.25-.27.62.62,0,0,0,.12-.36v-.3a.33.33,0,0,1,.07-.2s.06-.07.08-.07a.12.12,0,0,1,.1.09l.07.2a.2.2,0,0,0,.17.14c.09,0,.19-.08.33-.29l.11-.14a.47.47,0,0,0,.12-.23.28.28,0,0,0-.07-.13,2,2,0,0,1-.39-1.22,3.33,3.33,0,0,1,.91-2,2.78,2.78,0,0,0,.64-1.43c0-.1,0-.15-.14-.15a.46.46,0,0,0-.22.07l-.14.05a.18.18,0,0,1-.11-.07l-.13-.14-.09-.14a.18.18,0,0,0-.15-.09l-.14,0-.16,0c-.19,0-.26.07-.26.25v.19a.92.92,0,0,1-.33.57l-.34.3a2.19,2.19,0,0,0-.74,1.37,3,3,0,0,0,.15.78,3.88,3.88,0,0,1,.22,1c0,.86-1.31,2-3.74,3.22-1.23.63-1.54,1-1.54,1.85l0,.32M103.56,105v.44a1.15,1.15,0,0,1,0,.29,1.93,1.93,0,0,0-.07.41,1.44,1.44,0,0,0,.25.87,1.35,1.35,0,0,1,.18.6c0,.07,0,.11-.08.11a.12.12,0,0,1-.09-.05l-.14-.2c-.11-.16-.22-.2-.51-.2l-.31,0a3.81,3.81,0,0,1,.21.63c.14.58.17.63.48.91s.35.33.35.43a.13.13,0,0,1-.12.14l-.12,0h-.07c-.1,0-.19.18-.19.38a1.29,1.29,0,0,0,.11.45.72.72,0,0,0,.13.21l.18.18a.26.26,0,0,1,.07.18c0,.09,0,.16-.11.16a.42.42,0,0,1-.16-.06.27.27,0,0,0-.13,0c-.08,0-.12,0-.12.15l0,.27.11.46a.85.85,0,0,0,.2.34.83.83,0,0,0,.27.21l.36.16a.17.17,0,0,1,.05.14.12.12,0,0,1-.12.12l-.19,0-.18,0c-.18,0-.19,0-.19.15a1.08,1.08,0,0,0,0,.28l.07.29c.07.3.17.46.28.46a.3.3,0,0,0,.13-.07,2.22,2.22,0,0,1,1.11-.38,3.54,3.54,0,0,1,.86.09l.17,0s.06,0,.06-.2l0-.32.07-.55.05-.41v-.23l-.14.13a1.05,1.05,0,0,1-.81.38c-.82,0-1.3-.92-1.3-2.54a17.19,17.19,0,0,1,.28-2.69,3.36,3.36,0,0,0,.06-.5,2,2,0,0,0-1-1.58"></path> <path class="cls-4" d="M104.78,109l.16-.16.16-.14a.84.84,0,0,0,.24-.55.59.59,0,0,0-.06-.26c-.06-.13-.18-.25-.25-.25s-.12.15-.14.38l0,.27-.05.27,0,.27V109m-1.57,7.32c.18.07.22.1.41.32a.78.78,0,0,0,.71.36.81.81,0,0,0,.25,0l.23-.07.18-.05c.09,0,.14-.06.14-.09s-.14-.15-.36-.3a3.49,3.49,0,0,0-.43-.25.94.94,0,0,0-.41-.11,1.32,1.32,0,0,0-.74.24m2.43,5.24a7.19,7.19,0,0,0,.79-.39l.52-.29c.33-.18.48-.3.48-.39s-.2-.19-.55-.19a1.18,1.18,0,0,0-1.26,1.05l0,.2m7.27-4.55c.25-.05.34-.12.46-.12l.32,0a1,1,0,0,0,.21-.14l.25-.18c.36-.24.37-.26.37-.34s-.14-.15-.45-.15c-.56,0-.91.27-1.18.91"></path> <path class="cls-1" d="M76.22,73.86l-.09-.25,0-.14c0-.15.07-.23.28-.3a1.61,1.61,0,0,0,.61-.32l.2-.18h0c.05,0,.09.06.09.13a3.13,3.13,0,0,1-.5,1.08c-.19.32-.27.51-.35.51s-.17-.14-.19-.3l0-.22m-1.06-.72.3.16a.2.2,0,0,1,.13.17l0,.11a1.21,1.21,0,0,0,0,.38.3.3,0,0,1-.36.32c-.06,0,0,0-.17-.2l-.39-.45a1.67,1.67,0,0,1-.27-.8v0c0-.1,0-.13.11-.13a.39.39,0,0,1,.2.09l.48.39M76.24,75l.29-.18.17,0c.2,0,.25.06.25.28s-.2.45-.56,1.35c-.16.4-.19.63-.43.63s-.46-.21-.67-.72l-.23-.57a2.55,2.55,0,0,1-.24-.8c0-.14.11-.23.27-.23a.51.51,0,0,1,.26.07l.21.13.21,0h.1l.38,0m33.44-1.09-.15-.31,0-.14c0-.15.07-.22.29-.3a2,2,0,0,0,.59-.32l.2-.18h0c.05,0,.09.06.09.13a2.76,2.76,0,0,1-.46,1c-.19.32-.3.57-.38.57s-.18-.14-.2-.3l0-.16m-1.11-.78.3.16a.24.24,0,0,1,.14.21v.07l-.09.32-.05.36a.09.09,0,0,1-.1.07h0a.92.92,0,0,1-.39-.25l-.27-.45a1.57,1.57,0,0,1-.24-.5,2.09,2.09,0,0,1-.07-.3v-.05c0-.09,0-.13.11-.13a.39.39,0,0,1,.2.09l.48.39M109.65,75l.27-.18.1,0a.46.46,0,0,1,.43.4c0,.18-.24.28-.33.53l-.2.81q-.22.57-.56.57c-.27,0-.48-.22-.67-.72l-.23-.57a2.47,2.47,0,0,1-.23-.75.25.25,0,0,1,.26-.28.49.49,0,0,1,.25.07L109,75l.21,0h.1l.39,0M74.72,106.59l-.09-.27,0-.08s0,0,.07,0a.5.5,0,0,1,.21.11c.08.06.13.06.25.09.49.13.59.22.59.45l0,.3-.07.27c0,.11-.06.15-.11.15a1.63,1.63,0,0,1-.39-.28L75,107l-.25-.45m2.17.45-.23.41-.09.1h0c-.1,0-.19-.22-.2-.44l0-.36c0-.15.12-.21.34-.25a1.06,1.06,0,0,0,.36-.11l.29-.2h0a.08.08,0,0,1,.08.09v0l-.13.3-.39.43m-.47,1.22.29-.14a.33.33,0,0,1,.14,0c.14,0,.24.1.24.29a2.35,2.35,0,0,1-.38.87c-.24.43-.41.72-.6.72s-.62-.41-1-1.09a1.19,1.19,0,0,1-.13-.5c0-.23.1-.35.29-.35a.37.37,0,0,1,.21.06l.16.11a.83.83,0,0,0,.46.14.69.69,0,0,0,.31-.07m31.09-2.17.25.16a2.34,2.34,0,0,0,.36.2c.28.11.38.15.38.26a.78.78,0,0,1,0,.2,1.12,1.12,0,0,0-.05.25c0,.24-.17.3-.27.3s-.25-.18-.45-.54a4.25,4.25,0,0,1-.29-.72v-.07s0-.07.08-.07h0m2.42.63-.41.41a1.58,1.58,0,0,0-.18.39.21.21,0,0,1-.12.05h0a.18.18,0,0,1-.19-.18l0-.3,0-.3v0a.19.19,0,0,1,.16-.2l.38-.1.39-.2.17-.07a.1.1,0,0,1,.09.1.28.28,0,0,1,0,.11l-.18.3m-1.81,1.22.27.2a.46.46,0,0,0,.24.06,1.1,1.1,0,0,0,.42-.11l.23-.11a.36.36,0,0,1,.14,0c.14,0,.26.15.26.34a1.9,1.9,0,0,1-.47.93l-.2.41c-.16.22-.26.3-.39.3s-.32-.12-.63-.75a2.28,2.28,0,0,1-.32-1c0-.19.1-.32.24-.32a.34.34,0,0,1,.21,0"></path> <path class="cls-4" d="M75.84,75.52h-.23a.11.11,0,0,0-.09.05l0,.09.09.43.07.37c0,.21.12.29.27.29s.28-.12.3-.34l0-.39c0-.26,0-.4,0-.41a.15.15,0,0,0-.05-.11.13.13,0,0,0-.09,0h0l-.29.05m33.4,0H109a.12.12,0,0,0-.09.05l-.05.09.09.43.07.37c0,.21.07.29.23.29a.35.35,0,0,0,.35-.34l0-.39c0-.26,0-.4,0-.41a.15.15,0,0,0-.05-.11.13.13,0,0,0-.09,0h0l-.29.05M76,108.68l-.2,0h0c-.11,0-.17.07-.17.19a1.7,1.7,0,0,0,.33.77.18.18,0,0,0,.14.07c.12,0,.2-.22.26-.58l.05-.27v-.05c0-.11,0-.15-.12-.15h0l-.21,0m32.34.23,0,.34a.32.32,0,0,0,.26.31c.16,0,.28-.25.35-.63a2,2,0,0,0,0-.25c0-.13,0-.17-.21-.17h-.3c-.11,0-.15.09-.15.32v.08"></path> <path class="cls-1" d="M88.19,91.57h1.9a1,1,0,0,1,1-.65,1,1,0,0,1,1,.65h1.55a1.08,1.08,0,0,1,1-.65,1.05,1.05,0,0,1,1,.65H97a1.07,1.07,0,0,1,.95-.65,1.11,1.11,0,0,1,1,.54l.07.11h2v9.28H99.25v3.56H97.2v-3.56H92v3.56H89.94v-3.59H88.19V91.57"></path> <path class="cls-3" d="M88.94,100.14h11.38v-7.8H88.94Z"></path> <path class="cls-4" d="M90.12,94.12a.54.54,0,1,0,.54.54.54.54,0,0,0-.54-.54"></path> <path class="cls-5" d="M90.12,94.12a.54.54,0,1,0,.54.54A.54.54,0,0,0,90.12,94.12Z"></path> <path class="cls-4" d="M99.06,94.12a.54.54,0,1,0,.54.54.54.54,0,0,0-.54-.54"></path> <path class="cls-5" d="M99.06,94.12a.54.54,0,1,0,.54.54A.54.54,0,0,0,99.06,94.12Z"></path> <path class="cls-4" d="M90.12,98.36a.54.54,0,0,0-.54.54.55.55,0,0,0,.56.54.53.53,0,0,0,.52-.54.54.54,0,0,0-.54-.54"></path> <path class="cls-5" d="M90.12,98.36a.54.54,0,0,0-.54.54.55.55,0,0,0,.56.54.53.53,0,0,0,.52-.54A.54.54,0,0,0,90.12,98.36Z"></path> <path class="cls-4" d="M99.06,98.36a.54.54,0,1,0,.54.54.54.54,0,0,0-.54-.54"></path> <path class="cls-5" d="M99.06,98.36a.54.54,0,1,0,.54.54A.54.54,0,0,0,99.06,98.36Z"></path> <path class="cls-4" d="M91.82,96.72a3.42,3.42,0,0,0,2.8,1.37,3.21,3.21,0,0,0,2.65-1.37,3.6,3.6,0,0,0-5.45,0"></path> <path class="cls-1" d="M92.36,96.72a3.34,3.34,0,0,1,2.18-.83,3.2,3.2,0,0,1,2.17.85,2.77,2.77,0,0,1-2.18.92,3,3,0,0,1-2.17-.94"></path> <path class="cls-4" d="M93.28,96.54a2.19,2.19,0,0,0,1.23.4,2.22,2.22,0,0,0,1.31-.4,3,3,0,0,0-1.29-.31,2.61,2.61,0,0,0-1.25.31"></path> <path class="cls-1" d="M88.78,93.13h11.7v-.4H88.78Z"></path> <path class="cls-6" d="M88.78,93.13h11.7v-.4H88.78Z"></path> <path class="cls-4" d="M90.57,92.22v1.12a.47.47,0,0,0,.48.47.44.44,0,0,0,.49-.47v-1.1c0-.42-.17-.69-.45-.69a.59.59,0,0,0-.22.06l-.13.07a.44.44,0,0,0-.11.14.65.65,0,0,0-.07.2v.2m3.52.92v.2a.47.47,0,0,0,.48.47.44.44,0,0,0,.49-.47v-1.1c0-.42-.17-.69-.45-.69s-.53.26-.53.67v.92m3.41-.92v1.12a.47.47,0,0,0,.48.47.44.44,0,0,0,.49-.47v-1.1c0-.42-.17-.69-.45-.69a.59.59,0,0,0-.22.06l-.13.07a.44.44,0,0,0-.11.14.65.65,0,0,0-.07.2v.2M90.32,103h1.06v-1.37H90.32Zm0,.74h1.06v-.43H90.32Zm7.25-.74h1.07v-1.37H97.58Zm0,.74h1.07v-.43H97.58Z"></path> <path d="M156,68.39v.82h-.54c-.8,0-2.13,0-2.13,2.49V81.92c0,6.26-2.72,9.3-8.33,9.3-6.32,0-9.27-2.52-9.27-7.94V71.7c0-2.49-1.35-2.49-2.54-2.49H133v-.82h9.46v.82h-.25c-1.17,0-2.64,0-2.64,2.49V82.77c0,4.77,2,7.09,6.09,7.09s6.09-2.5,6.09-7.22V71.7c0-2.49-1.38-2.49-2.39-2.49h-.5v-.82H156m10.22,21.53v.82h-8v-.82h.32c2.61,0,3-2,3-4.24V72.25a2.71,2.71,0,0,0-3-3h-.28v-.82h6.28L178.15,85V72.38c0-2.86-2-3.17-2.86-3.17h-.57v-.82h8.06v.82h-.35c-1.41,0-2.92.33-2.92,4.24v17.4h-1.19L162.92,72.21V85.66c0,2.24.32,4.25,3,4.25h.31M209.07,86,214,72.26c.88-2.34.32-3.06-1.72-3.06h-.41v-.82h6.36v.82h-.14c-.69,0-1.5.21-2.11,1.74l-7.45,19.87H207.1L199,71.13a2.47,2.47,0,0,0-2.76-1.92h-.19v-.82h9.24v.82h-.6c-1.58,0-1.89,1-1.44,2.19l5.8,14.6m37.29-16.56v9.89h1.91c3.48,0,5-1.55,5-5.18a4.52,4.52,0,0,0-4.76-4.86,16.62,16.62,0,0,0-2.16.14Zm3.43-1.05c4.95,0,7.4,1.82,7.4,5.57,0,3.18-2.48,4.79-4.44,5.58l-.14.06,5.48,8.34a3.43,3.43,0,0,0,3.1,2v.84h-5.72l-6.65-10.49h-2.47v7c0,2.52,1.12,2.72,2.7,2.72h.44v.82h-9.72v-.82h.44c1.09,0,2.36-.49,2.36-1.88V71.79c0-2.59-1.53-2.59-2.36-2.59h-.44v-.82h10M273,86.49c0-2.72-2.33-3.79-4.51-4.93C266,80.24,263,78.86,263,74.74s3-6.57,7.38-6.57a25.94,25.94,0,0,1,4.67.53l.3,4.35-.84.12c-.39-2.29-1.58-4-4.15-4a3.91,3.91,0,0,0-4.21,4.16c0,2.52,2.32,3.55,4.49,4.64,2.66,1.34,5.7,2.72,5.7,6.88,0,4.61-4.11,6.67-7.91,6.67a11.24,11.24,0,0,1-5.29-1.26l-.53-4.84.81-.14c.62,3.21,2.66,5.07,5.35,5.07S273,88.74,273,86.49M289,68.39v.82h-.31c-1.27,0-2.45.24-2.45,2V87.94c0,1.74,1.18,2,2.45,2H289v.82h-9.33v-.82h.32c1.27,0,2.45-.24,2.45-2V71.18c0-1.74-1.18-2-2.45-2h-.32v-.82H289m-94.17,0v.82h-.32c-1.27,0-2.45.24-2.45,2V87.94c0,1.74,1.18,2,2.45,2h.32v.82h-9.33v-.82h.32c1.27,0,2.45-.24,2.45-2V71.18c0-1.74-1.18-2-2.45-2h-.32v-.82h9.33m186,32.27.08,5.93-.95.24c-.21-2.59-.8-4.71-4.95-4.71H369.4v11h4.78c2.35,0,3-1.31,3.25-3.58h1v9.17h-1c-.14-2.19-.66-3.89-3.23-3.89h-4.8v9.63c0,2.8,2.41,2.8,5,2.8,4.58,0,6.7-.29,8-4.92l.94.21L382,128.69H361.19v-1h.4c1.6,0,3.07-.3,3.07-2.48v-21c0-2.18-1.47-2.48-3.07-2.48h-.4v-1h19.59M263.09,102v12.41h2.39c4.36,0,6.29-1.94,6.29-6.5,0-3.7-2.38-6.09-6-6.09a18.88,18.88,0,0,0-2.71.18Zm4.3-1.32c6.21,0,9.29,2.29,9.29,7,0,4-3.11,6-5.56,7l-.18.07,6.88,10.47c1.1,1.7,2,2.35,3.89,2.46v1h-7.18l-8.34-13.16h-3.09v8.73c0,3.16,1.4,3.41,3.39,3.41H267v1H254.85v-1h.55c1.36,0,3-.62,3-2.35V104.93c0-3.25-1.92-3.25-3-3.25h-.55v-1H267.4m27.72,0v1h-.4c-1.6,0-3.07.3-3.07,2.47v21c0,2.18,1.48,2.48,3.07,2.48h.4v1H283.41v-1h.4c1.6,0,3.07-.3,3.07-2.48v-21c0-2.17-1.47-2.47-3.07-2.47h-.4v-1h11.71m-1.31-32.26h14.78c.74,0,1.7-.19,1.84-1.16h.72l-.57,5.83h-.79c0-1.35-.25-3.3-2.4-3.3h-4.51V87c0,2.69,1.29,2.91,2.73,2.91h.47v.82H295.9v-.82h.47c1.69,0,2.73-.14,2.73-2.85V69.75h-4.56c-2.32,0-2.54,1-3,3.28h-.8l.51-5.76h.65a1.73,1.73,0,0,0,1.89,1.12m40.21,0v.83A3.5,3.5,0,0,0,331.38,71l-5.67,8.74v7.14c0,2.84,1,3,2.73,3h.47v.82H318.72v-.82h.47c1.77,0,2.73-.44,2.73-2.78V80.26l-6.16-8.8c-.94-1.36-1.65-2.25-3.14-2.25h-.19v-.82h9.23v.82h-.28c-1.77,0-1.9.94-1.14,2l4.77,7.4,4.22-6.68c1-1.46,1.25-2.73-1.15-2.73h-.37v-.82H334m10.93,10.2c0,5.52,2.44,11.46,7.79,11.46,4.9,0,7.29-3.4,7.29-10.39,0-5.13-2.74-10.59-7.82-10.59-6.73,0-7.25,7.29-7.25,9.52Zm-4.15,1.13A11.52,11.52,0,0,1,352.26,67.9c7,0,11.91,4.54,11.91,11,0,7.11-4.94,12.28-11.75,12.28a11.18,11.18,0,0,1-11.62-11.5m25.92,11v-.81H367c1.27,0,2.45-.24,2.45-2V71.18c0-1.74-1.18-2-2.45-2h-.32v-.82h15.61l.06,4.73-.75.19c-.18-1.92-.61-3.75-3.28-3.75h-5.1V78.3h4.47c1.85,0,2.12-1.46,2.13-2.62h.74v7.16h-.74c0-1.4-.34-3.17-2.64-3.17h-4v8.28c0,2,1.67,2,3.14,2h.28v.81h-10m-232,23.92a14.73,14.73,0,0,1,4.6-10.87A15.11,15.11,0,0,1,149.61,100a21.59,21.59,0,0,1,9.49,2l.3,6.49-.92.12c-1.06-3.76-2.82-7.21-8.76-7.21-6.1,0-9.89,4.83-9.89,12.61,0,6.92,3.07,13.47,10.49,13.47a11.12,11.12,0,0,0,9.39-4.45l.73,1.37a13.38,13.38,0,0,1-10.88,5c-9,0-14.81-5.34-14.81-14.78m60.44-8.57-.93,17.31c-.17,3.84,1,4.17,3.6,4.27h.24v1h-9.45v-1H189c3.18-.13,3.38-1.9,3.53-4.48l1.1-17.72c.14-2.42-1.18-3.79-3.41-3.79h-.32v-1h7.93c.1.22,9.52,21.25,9.52,21.25l9-21.25h7.78v1H224c-3.15,0-3.71,1-3.47,4.94l1.08,18.59c.17,2.17,1.31,2.37,3.45,2.45v1H213.43v-1h.08c1.9-.11,3.26-.19,3.26-2.1l0-2-.85-17.92-9.69,23.26h-.85c-.1-.23-10.13-22.8-10.13-22.8M307.76,102v22c0,3,1.26,3.45,4.26,3.45,7.08,0,10.31-6.1,10.31-12.07,0-9.29-3.84-13.52-11.72-13.52-.69,0-2.18.06-2.85.13Zm-8.23,26.7v-1h.4c1.6,0,3.07-.3,3.07-2.48v-21c0-2.18-1.48-2.48-3.07-2.48h-.4v-1h12.53c4.66,0,8.56,1.17,11.28,3.71a13.55,13.55,0,0,1,4.11,10.24A14.77,14.77,0,0,1,323.17,125c-2.74,2.72-6.58,3.65-10.47,3.65H299.53m51.78-1.44v-6.87c0-1.5-1.1-2.3-3.16-2.3h-.33v-1H358.6v1h-.33a2.06,2.06,0,0,0-2.3,2.3V128a32.87,32.87,0,0,1-9.85,1.48c-9.25,0-15.23-6-15.23-15.28,0-9.87,7.89-14.37,15.31-14.37a30.21,30.21,0,0,1,8.91,1.39l.45,6.69-.94.06c-1.16-4.82-3.31-6.71-8.14-6.71-6.51,0-10.46,4.8-10.46,12.53,0,7.1,3.33,14.14,10.78,14.14a11.52,11.52,0,0,0,4.54-.7M243,113.42c3.53.26,5.41,1,7,2.65a6.5,6.5,0,0,1,1.87,4.68c0,4.4-4,7.92-9.28,7.92H228.87v-1h.56c1.36,0,3-.65,3-2.39V104.93c0-3.25-1.92-3.25-3-3.25h-.56v-1h12.45c5.84,0,9.06,2.12,9.06,6.13,0,4.44-3.91,6.08-7.35,6.64m-5.74-11.74v11.26h2.11c3.86,0,6-1.87,6-5.45,0-4-1.87-5.8-5.56-5.8h-2.54Zm0,12.48V124c0,2.74.87,3.52,3.71,3.52,3.41,0,6-2.81,6-6.64,0-4.31-2.62-6.75-7-6.75h-2.69m-64.89-7.8,3.92,10.92h-7.84Zm.49-5.72-8.9,24.2a3.74,3.74,0,0,1-3.55,2.78h-.09v1.05h8.53v-1.05h-.37c-2.05,0-3.45-.66-2.56-3.31l2-5.65h8.83l2.21,6.16c.63,1.94-.19,2.83-2.3,2.83h-.25v1h10.86v-1h-.09c-1.45,0-2.44-.76-3.11-2.68L175,100.66h-2.11m62.47-32.26.06,4.73-.75.19c-.17-2.07-.64-3.75-3.94-3.75h-4.44v8.73h3.81c1.87,0,2.38-1,2.59-2.85h.76v7.3h-.76c-.12-1.75-.53-3.1-2.58-3.1h-3.83v7.67c0,2.23,1.92,2.23,4,2.23,3.65,0,5.34-.23,6.36-3.92l.75.17-1,4.93H219.73V89.9H220c1.27,0,2.45-.24,2.45-2V71.18c0-1.73-1.18-2-2.45-2h-.32v-.82h15.62"></path> </svg>