<svg xmlns="http://www.w3.org/2000/svg" id="Layer_1" viewBox="0 0 450 200"> <defs> <style>.cls-1{fill:#76b729;}.cls-2{fill:#659d23;}.cls-3{fill:#629722;}.cls-4{fill:#5d9020;}.cls-5{fill:#69a324;}</style> </defs> <title>logo-kmk</title> <path class="cls-1" d="M150.08,47.06h.3Q160.82,58,170.85,69.25c6.26,7.37,13.29,14.06,20.13,20.86-13.63-.1-27.27,0-40.9,0Q150.07,68.56,150.08,47.06Z"></path> <path class="cls-1" d="M191.34,47.06h.1V80.71c-5.12-5.88-9.24-12.52-13.75-18.85C182.26,57,186.64,51.86,191.34,47.06Z"></path> <path class="cls-1" d="M102.59,48h41c-6.89,7.08-13.71,14.25-20.78,21.15-7.07,6.57-14.06,13.36-20,21l-.21.27Z"></path> <path class="cls-1" d="M200.9,48q20.59,0,41.17,0c-7,7-13.68,14.22-20.81,21a173.94,173.94,0,0,0-20.1,21l-.26.31Q200.88,69.2,200.9,48Z"></path> <path class="cls-1" d="M132.57,79c3.64,3.69,7.34,7.32,11,11-7.76,0-15.52,0-23.28,0C124.3,86.35,128.46,82.73,132.57,79Z"></path> <path class="cls-1" d="M219.12,90.08a140,140,0,0,1,12.32-10.75c3.28,3.75,6.94,7.15,10.4,10.73C234.26,90.09,226.69,90.06,219.12,90.08Z"></path> <path class="cls-2" d="M170.85,69.25c2.3-2.45,4.57-4.92,6.83-7.39,4.52,6.33,8.63,13,13.75,18.85v9.46l-.45-.06C184.14,83.31,177.11,76.62,170.85,69.25Z"></path> <path class="cls-3" d="M201.16,90.08a173.94,173.94,0,0,1,20.1-21c3.34,3.49,6.8,6.85,10.18,10.28a140,140,0,0,0-12.32,10.75C213.14,90.13,207.14,90.17,201.16,90.08Z"></path> <path class="cls-4" d="M102.79,90.15c5.92-7.64,12.9-14.42,20-21q2.81,2.88,5.65,5.72c-6.1,4.92-12.35,9.67-17.88,15.23C108,90.11,105.37,90.08,102.79,90.15Z"></path> <path class="cls-5" d="M110.55,90.1c5.53-5.56,11.78-10.31,17.88-15.23L132.57,79c-4.11,3.69-8.27,7.31-12.33,11C117,90.1,113.78,90.1,110.55,90.1Z"></path> <path d="M150.09,110.63h4l0,6.36q2.38-3.16,4.74-6.35h5q-2.91,3.81-5.88,7.59,3,4,6.11,8l-5.3,0c-1.55-2.2-3.1-4.41-4.68-6.59l0,6.55-4,0C150.08,121.05,150.09,115.84,150.09,110.63Z"></path> <path d="M166.17,110.62l4,0c0,3.69-.26,7.39.18,11.07,1.14,2.35,5.58,1.91,5.71-.93a80.83,80.83,0,0,0,.24-10.15h3.77c0,3.68.22,7.37-.13,11-.87,7-14.26,6.73-13.78-.78C166.05,117.47,166.18,114,166.17,110.62Z"></path> <path d="M184.35,110.63h4v12.05l4.74,0c0,1.18,0,2.36,0,3.54h-8.74Z"></path> <path d="M192.86,110.63h11.81c0,1.18,0,2.36,0,3.55h-4v12.05h-3.78v-12l-4,0C192.85,113,192.86,111.81,192.86,110.63Z"></path> <path d="M207,110.63h4c.14,3.89-.54,7.93.57,11.72,1.65,1.4,5.42,1.17,5.41-1.53a101.77,101.77,0,0,0,.15-10.19h4c-.34,4.58,1.06,9.73-1.46,13.86-3.1,3-9.76,3.07-12.12-.9C206.43,119.41,207.25,114.94,207,110.63Z"></path> <path d="M226,111.83c2.13-1.84,5.14-1.21,7.71-1.3-.08,1.11-.14,2.21-.22,3.32-1.5.35-6-.85-4.75,1.72,2.27,1.68,6.57,2.46,5.92,6.17-.49,4.77-6.13,5.28-9.9,4.82,0-1.16-.06-2.33-.08-3.49,2.11-.08,4.61.59,6.13-1.35-2-1.47-4.46-2.23-6.17-4A5.1,5.1,0,0,1,226,111.83Z"></path> <path d="M239.45,110.64l4.83,0c1.1,3.37,2.17,6.76,3.14,10.17,1-3.41,2.07-6.77,3.19-10.13l5,0q1.13,7.81,2.32,15.63l-4.25,0c-.44-3.3-.89-6.6-1.24-9.91-1,3.31-2,6.59-3,9.89l-4.23,0q-1.4-4.74-2.86-9.44c-.41,3.13-.79,6.26-1.18,9.39l-4,.1C237.87,121.08,238.63,115.85,239.45,110.64Z"></path> <path d="M269.91,110.61l5.1.07c1.89,3.23,3.85,6.43,5.69,9.7-.16-3.24-.18-6.49-.18-9.74h4q0,7.78,0,15.59l-5.33,0c-1.89-3.09-3.78-6.18-5.56-9.34,0,3.11,0,6.21,0,9.32H269.9C269.9,121,269.89,115.81,269.91,110.61Z"></path> <path d="M298.86,111.13c2.08-.88,4.41-.57,6.61-.65,0,.84-.07,2.51-.09,3.36-1.39.41-6-.84-4.76,1.74,2.22,1.71,6.6,2.46,5.89,6.17-.44,4.76-6.12,5.27-9.85,4.83,0-1.17-.09-2.34-.13-3.52,2.2,0,4.76.53,6.15-1.65-2-1.21-4.58-1.8-6.12-3.69A5,5,0,0,1,298.86,111.13Z"></path> <path d="M307.48,114.18c0-1.18,0-2.36,0-3.54h11.83c0,1.18,0,2.37,0,3.55h-4v12.06h-3.78V114.18Z"></path> <path d="M321.89,110.62h9.45c0,1.11,0,2.2,0,3.32h-5.43c0,.71,0,2.13,0,2.83h5.2l0,3.05-5.24,0,0,3.29h5.43v3.08h-9.45Z"></path> <path d="M335.14,110.56c3.58.37,8.25-1,10.91,2.13,1.95,2.8-.4,5.61-2.38,7.51,1.28,1.9,2.56,3.8,3.74,5.77v.26h-4.68l-3.56-5.74q0,2.86,0,5.73h-4C335.13,121,335.12,115.79,335.14,110.56Zm4.14,2.71c-.06,1.56-.08,3.13-.07,4.69,1-.7,3.21-.56,3.19-2.05C342.83,114,340.38,114,339.28,113.27Z"></path> <path d="M261.39,110.63h4v15.6h-4Q261.39,118.44,261.39,110.63Z"></path> <path d="M288.81,110.63h4v15.6h-4Z"></path> <path d="M158.84,137.11h5c-1.95,2.54-3.92,5.06-5.9,7.57q3,4,6.1,8l-5.18.12c-1.61-2.2-3.19-4.43-4.78-6.65,0,2.19,0,4.38,0,6.57h-4V137.1h4q0,3.18,0,6.35C155.7,141.35,157.28,139.24,158.84,137.11Z"></path> <path d="M167.6,138.48c3.88-2.92,10.8-1.81,12.24,3.25a8.64,8.64,0,0,1-5.61,11.2h-4.45C163.47,151.38,162.61,142,167.6,138.48Zm3.23,2.38c-2.56,1.32-2.82,5.13-1.3,7.33,1.91,2.47,6.19,1,6.41-2C176.93,143.2,174.06,139.22,170.84,140.86Z"></path> <path d="M183.18,137.11l5.25,0c1.9,3.16,3.79,6.32,5.63,9.52,0-3.17,0-6.33,0-9.5h4c0,5.27,0,10.55-.06,15.82a44.4,44.4,0,0,1-5.37-.59,58.22,58.22,0,0,1-5.44-9.07,42.4,42.4,0,0,1-.65,9.66h-.91l-2.26-.67C182.88,147.24,183.26,142.16,183.18,137.11Z"></path> <path d="M215.07,137.1h9.45v3.31H219.1c0,.71,0,2.13,0,2.84h5.19l0,3.05-5.24,0,0,3.29h5.43v3.07h-9.45Z"></path> <path d="M228.32,137.07c3.71.31,9-1.15,11.27,2.68,1.33,2.8-.91,5.17-2.91,6.8l4.06,6.15h-4.88L232.34,147c0,1.89,0,3.78,0,5.68h-4C228.31,147.49,228.3,142.28,228.32,137.07Zm4.17,2.61c-.07,1.59-.09,3.18-.08,4.77,1.39-.66,3.47-.91,3.46-2.88A32.13,32.13,0,0,0,232.49,139.68Z"></path> <path d="M243.43,137.09h9.45v3.32h-5.43c0,.71,0,2.13,0,2.84h5.2l0,3.05-5.24,0,0,3.29h5.43v3.07h-9.45Z"></path> <path d="M256.67,137.09H262c1.9,3.2,3.86,6.38,5.63,9.66-.06-3.22-.06-6.44-.06-9.66h4v15.6h-5.41c-1.87-3.11-3.76-6.21-5.53-9.39.07,3.13.08,6.26.08,9.39h-4Z"></path> <path d="M275.08,137.1c4,0,7.91,0,11.86.11-.7,4.63-4,8.07-6.72,11.67l6.47,0,0,3.85c-3.77.2-7.7-1-11.36.16h-.45c0-1.18,0-2.35.07-3.54,2.29-2.73,4.35-5.63,6.43-8.53l-6.21,0C275.1,139.63,275.09,138.37,275.08,137.1Z"></path> <path d="M202.31,137.1h9.45v3.31h-5.43c0,.77,0,2.3,0,3.06h5.2v3.3l-5.2,0v5.9h-4Z"></path> </svg>