<?xml version="1.0" encoding="UTF-8"?> <svg xmlns="http://www.w3.org/2000/svg" id="Layer_1" data-name="Layer 1" viewBox="0 0 450 200"><defs><style>.cls-1,.cls-2{fill:#231f20;}.cls-2,.cls-4{fill-rule:evenodd;}.cls-3,.cls-4{fill:#929497;}.cls-5{fill:#ec1c24;}.cls-6{fill:#f5ce00;}</style></defs><title>logo-pasch</title><path class="cls-1" d="M271,51.42a10.66,10.66,0,1,1,12.79,8,10.65,10.65,0,0,1-12.79-8Z"></path><path class="cls-2" d="M209.48,186.76V170c0-.41-.25-.46-.45-.46h-1.45c-.2,0-.45,0-.45.46v4.76c0,.2,0,.33-.23.33a6.81,6.81,0,0,0-2.89-.71c-3.64,0-6.07,2.35-6.07,6.71,0,4,2.12,6.38,5.84,6.38,1.93,0,2.71-.71,3.27-.71.25,0,.25.07.25.18s.06.32.36.32H209c.2,0,.45-.05.45-.45ZM207.13,184c0,.81-.36,1.11-1.07,1.39a4.37,4.37,0,0,1-1.54.25c-3,0-4.1-1.82-4.1-4.65,0-4.44,2.66-4.89,4.1-4.89a4.37,4.37,0,0,1,1.54.25c.71.28,1.07.58,1.07,1.39V184Z"></path><path class="cls-2" d="M223.86,180.68v-.61c0-2-.76-5.74-5.44-5.74-3.93,0-5.85,3.09-5.85,6.68,0,5,3.14,6.41,6.4,6.41a8.43,8.43,0,0,0,4-.76c.25-.18.28-.33.28-.66v-.86c0-.2-.08-.41-.36-.41a.73.73,0,0,0-.4.13,7.28,7.28,0,0,1-3.24.78c-2.28,0-4.18-1.21-4.18-4.15,0-.25.15-.35.38-.35h8c.2,0,.45,0,.45-.46Zm-2.46-1.57c0,.28-.07.33-.3.33h-5.75c-.25,0-.3-.1-.3-.25a3.13,3.13,0,0,1,3.29-3.14,2.85,2.85,0,0,1,3.06,3.06Z"></path><path class="cls-1" d="M233.71,176.17v-1c0-.45,0-.83-1.12-.83-1.59,0-2.45,1-3.19,1a.26.26,0,0,1-.28-.23v-.2c0-.18-.05-.33-.35-.33H227.4c-.2,0-.45.05-.45.45v11.78c0,.4.25.45.45.45h1.45c.2,0,.45-.05.45-.45v-8.41c0-.93.28-2,2.2-2a9.42,9.42,0,0,1,1.85.2c.26,0,.36-.15.36-.38Z"></path><path class="cls-1" d="M251.28,186.76v-.91c0-.41-.25-.46-.45-.46h-8.54c-.22,0-.32,0-.32-.18a.53.53,0,0,1,.15-.32l8.68-12.26a1.28,1.28,0,0,0,.28-.89v-1c0-.4-.25-.45-.45-.45H239.91c-.2,0-.45,0-.45.45v.91c0,.41.25.46.45.46h7.88c.23,0,.33,0,.33.18a.66.66,0,0,1-.15.33l-8.54,12a1.33,1.33,0,0,0-.27.88v1.22c0,.4.25.45.45.45h11.22c.2,0,.45-.05.45-.45Z"></path><path class="cls-1" d="M264.27,186.76V175c0-.4-.25-.45-.45-.45h-1.45c-.2,0-.45.05-.45.45v9.07c0,.73-.33,1-1,1.29a5.32,5.32,0,0,1-1.8.33,3.08,3.08,0,0,1-2.38-.81,3.69,3.69,0,0,1-.53-2.43V175c0-.4-.25-.45-.45-.45h-1.45c-.2,0-.45.05-.45.45v7.09c0,2.08.1,3.2.93,4.11a4.69,4.69,0,0,0,3.55,1.24,7.54,7.54,0,0,0,2.56-.48,2.65,2.65,0,0,1,.93-.23c.26,0,.26.07.26.18s0,.32.35.32h1.37c.2,0,.45-.05.45-.45Z"></path><path class="cls-1" d="M278,174.83c0-.23-.23-.3-.4-.3h-1.4c-.3,0-.4.05-.73.38L271,179.44a.36.36,0,0,1-.26.13c-.15,0-.25-.08-.25-.31V170c0-.41-.25-.46-.46-.46h-1.44c-.2,0-.45,0-.45.46v16.81c0,.4.25.45.45.45h1.44c.21,0,.46-.05.46-.45v-5.27c0-.25.13-.33.28-.33s.23.08.33.21l4.07,5.49a.69.69,0,0,0,.66.35h1.65c.23,0,.45-.05.45-.32s-.1-.28-.22-.43l-4.59-6.06a.37.37,0,0,1,0-.55l4.56-4.59a.53.53,0,0,0,.23-.43Z"></path><path class="cls-1" d="M290.35,186.76V175c0-.4-.25-.45-.45-.45h-1.44c-.21,0-.46.05-.46.45v9.07c0,.73-.33,1-1,1.29a5.28,5.28,0,0,1-1.8.33,3.08,3.08,0,0,1-2.38-.81,3.69,3.69,0,0,1-.53-2.43V175c0-.4-.25-.45-.45-.45H280.4c-.2,0-.45.05-.45.45v7.09c0,2.08.1,3.2.94,4.11a4.65,4.65,0,0,0,3.54,1.24,7.54,7.54,0,0,0,2.56-.48,2.65,2.65,0,0,1,.93-.23c.26,0,.26.07.26.18s.05.32.35.32h1.37c.2,0,.45-.05.45-.45Z"></path><path class="cls-1" d="M304.66,186.76v-7.07c0-2.07-.12-3.19-1-4.1a4.66,4.66,0,0,0-3.54-1.26,7.06,7.06,0,0,0-2.53.48,2.76,2.76,0,0,1-.94.23c-.25,0-.25-.08-.25-.18s-.06-.33-.36-.33h-1.37c-.2,0-.45.05-.45.45v11.78c0,.4.25.45.45.45h1.45c.2,0,.45-.05.45-.45v-9.07c0-.73.33-1,1-1.29a5.2,5.2,0,0,1,1.77-.33,3.06,3.06,0,0,1,2.38.84,3.67,3.67,0,0,1,.56,2.43v7.42c0,.4.25.45.45.45h1.45c.2,0,.45-.05.45-.45Z"></path><path class="cls-1" d="M314.24,171v-1c0-.45-.58-.73-1.88-.73A3.48,3.48,0,0,0,310,170a3.73,3.73,0,0,0-1.08,3.07v1.14c0,.22-.13.3-.23.3h-1.34c-.21,0-.46.05-.46.45v.84c0,.41.25.46.46.46h1.34c.1,0,.23.07.23.3v10.18c0,.4.25.45.45.45h1.44c.21,0,.46-.05.46-.45V176.58c0-.23.13-.3.23-.3h2.15c.2,0,.46-.05.46-.46V175a.4.4,0,0,0-.46-.45h-2.15c-.1,0-.23-.08-.23-.3v-1.17c0-.83,0-2,1.44-2,.74,0,.92.3,1.22.3s.33-.1.33-.41Z"></path><path class="cls-1" d="M323.66,186.51v-1c0-.3-.15-.4-.36-.4a5.23,5.23,0,0,1-1.92.48,1.47,1.47,0,0,1-1.57-.89,3.49,3.49,0,0,1-.18-1.47v-6.68c0-.23.13-.3.23-.3h3.34c.21,0,.46-.05.46-.46V175c0-.4-.25-.45-.46-.45h-3.34c-.1,0-.23-.08-.23-.3v-2.61c0-.41-.25-.46-.45-.46h-1.45c-.2,0-.45.05-.45.46v2.61c0,.22-.13.3-.23.3h-1.34a.4.4,0,0,0-.46.45v.84c0,.41.26.46.46.46h1.34c.1,0,.23.07.23.3v6.68c0,1.5.18,2.69,1,3.4a4.25,4.25,0,0,0,2.65.76c.92,0,2.69-.23,2.69-.91Z"></path><path class="cls-2" d="M216.42,143.94a7.27,7.27,0,0,0-2.94-6.2c-1.47-1-3.14-1.35-6.87-1.35h-5.92c-.32,0-.72.08-.72.72v25.06c0,.64.4.72.72.72h2.42c.32,0,.72-.08.72-.72v-9.53c0-.4.23-.48.39-.48h2c3.06,0,4.92-.35,6.47-1.23a7.65,7.65,0,0,0,3.74-7Zm-4,.24c0,3.57-1.83,5.32-5.84,5.32h-2.31a.41.41,0,0,1-.39-.47v-9.5c0-.4.23-.47.39-.47h2.39c4,0,5.76,1.66,5.76,5.12Z"></path><path class="cls-2" d="M233.86,162.17V149.58c0-3-.28-4.21-1.36-5.28-.59-.6-1.9-1.63-5.68-1.63-4,0-6.39,1-6.95,1.39-.39.28-.39.52-.39,1v1.47c0,.36.15.64.51.64a1.21,1.21,0,0,0,.64-.2,10.76,10.76,0,0,1,5.84-1.47c3.41,0,3.69,1.35,3.69,2.66v.64c0,.79-.48,1-1.15,1.23l-4.65,1.43c-3.65,1.15-6.27,2.42-6.27,6.27,0,2.74,1.27,5.48,6.63,5.48,3,0,4.41-1.11,5.32-1.11.4,0,.4.12.4.28s.08.52.55.52h2.15c.32,0,.72-.08.72-.72Zm-3.7-4.37c0,1.08-.16,1.51-1.15,2a8,8,0,0,1-3.38.63c-2,0-3.65-.67-3.65-2.94,0-2.58,1.9-3,4.05-3.77l3.18-1.07a1.49,1.49,0,0,1,.63-.16c.24,0,.32.12.32.4v4.92Z"></path><path class="cls-1" d="M250,145.57V144c0-.71,0-1.31-1.75-1.31-2.5,0-3.85,1.51-5,1.51a.41.41,0,0,1-.44-.36v-.32c0-.27-.08-.51-.56-.51H240.1a.62.62,0,0,0-.72.71v18.47c0,.64.4.72.72.72h2.26c.32,0,.72-.08.72-.72V149c0-1.46.43-3.13,3.45-3.13a14.5,14.5,0,0,1,2.9.32c.4,0,.56-.24.56-.6Z"></path><path class="cls-1" d="M265.56,161.77v-1.5c0-.48-.23-.64-.55-.64-.52,0-1.08.75-3,.75a2.29,2.29,0,0,1-2.46-1.39,5.41,5.41,0,0,1-.28-2.3V146.21c0-.36.2-.48.36-.48h5.24c.32,0,.71-.08.71-.72V143.7c0-.63-.39-.71-.71-.71h-5.24c-.16,0-.36-.12-.36-.48v-4.09c0-.64-.4-.71-.72-.71h-2.26c-.32,0-.72.07-.72.71v4.09c0,.36-.19.48-.35.48h-2.11c-.32,0-.71.08-.71.71V145c0,.64.39.72.71.72h2.11c.16,0,.35.12.35.48v10.48c0,2.34.28,4.21,1.63,5.32a6.63,6.63,0,0,0,4.17,1.19c1.43,0,4.21-.35,4.21-1.43Z"></path><path class="cls-1" d="M286.34,162.17V151.09c0-3.26-.2-5-1.51-6.43a7.3,7.3,0,0,0-5.56-2,11.5,11.5,0,0,0-4,.75,4.23,4.23,0,0,1-1.47.36c-.4,0-.4-.12-.4-.28s-.08-.51-.55-.51h-2.15c-.32,0-.71.08-.71.71v18.47c0,.64.39.72.71.72H273c.32,0,.72-.08.72-.72V148c0-1.15.52-1.63,1.55-2a8,8,0,0,1,2.78-.52,4.85,4.85,0,0,1,3.73,1.31c.68.84.88,1.95.88,3.81v11.64c0,.64.39.72.71.72h2.27c.31,0,.71-.08.71-.72Z"></path><path class="cls-2" d="M308.71,152.64v-.95c0-3.18-1.2-9-8.54-9-6.16,0-9.18,4.85-9.18,10.49,0,7.78,4.93,10,10.05,10,2.42,0,5.24-.43,6.24-1.19.39-.28.43-.51.43-1v-1.35c0-.32-.12-.64-.55-.64a1.21,1.21,0,0,0-.64.2,11.25,11.25,0,0,1-5.08,1.23c-3.58,0-6.56-1.9-6.56-6.51,0-.4.24-.56.6-.56H308a.62.62,0,0,0,.72-.71Zm-3.86-2.46c0,.43-.12.51-.47.51h-9c-.4,0-.48-.16-.48-.39a4.92,4.92,0,0,1,5.17-4.93,4.48,4.48,0,0,1,4.8,4.81Z"></path><path class="cls-1" d="M323.75,145.57V144c0-.71,0-1.31-1.74-1.31-2.51,0-3.86,1.51-5,1.51a.41.41,0,0,1-.44-.36v-.32c0-.27-.07-.51-.55-.51h-2.15a.62.62,0,0,0-.71.71v18.47c0,.64.4.72.71.72h2.27c.32,0,.71-.08.71-.72V149c0-1.46.44-3.13,3.46-3.13a14.76,14.76,0,0,1,2.9.32c.4,0,.55-.24.55-.6Z"></path><path class="cls-3" d="M211.53,124.26c0-3.2-1.81-4.59-3.86-5.91L205,116.64c-2.46-1.59-3.09-2.39-3.09-4,0-.69.24-2.92,3.68-2.92a7.92,7.92,0,0,1,4.21,1.22,1.6,1.6,0,0,0,.8.31c.42,0,.48-.27.48-.55v-1.39a.86.86,0,0,0-.41-.87,10,10,0,0,0-5-1.25c-4.1,0-7,1.84-7,6.11,0,3.3,2.19,4.69,4.13,6l2.78,1.84c1.46,1,2.65,1.81,2.65,3.83s-1.26,3.44-4.24,3.44a7.89,7.89,0,0,1-4.49-1.22,1.6,1.6,0,0,0-.8-.31c-.41,0-.48.28-.48.55v1.39a.85.85,0,0,0,.41.87,11.11,11.11,0,0,0,5.46,1.25c3.2,0,7.47-1.21,7.47-6.63Z"></path><path class="cls-3" d="M229,129v-1.22c0-.28-.1-.55-.48-.55a1,1,0,0,0-.56.17,8.45,8.45,0,0,1-4.17,1.08c-3.93,0-5.52-2.75-5.52-6.43s1.7-6.61,5.76-6.61a7.35,7.35,0,0,1,3.93,1.08,1.08,1.08,0,0,0,.56.17c.42,0,.48-.27.48-.55V114.8c0-.41,0-.62-.34-.87a10,10,0,0,0-4.66-1c-8.38,0-9.14,6.49-9.14,9.17,0,4.31,2,8.79,8.69,8.79,2,0,4.2-.38,5.07-1,.35-.24.38-.45.38-.9Z"></path><path class="cls-3" d="M247.86,130v-9.7c0-2.85-.17-4.38-1.32-5.63a6.42,6.42,0,0,0-4.87-1.73,11.46,11.46,0,0,0-4.55,1.14c-.24,0-.31-.17-.31-.45v-6.71a.55.55,0,0,0-.63-.62h-2c-.17,0-.62,0-.62.62V130c0,.63.45.63.62.63h2c.18,0,.63,0,.63-.63V117.55a1.68,1.68,0,0,1,1.35-1.77,7.05,7.05,0,0,1,2.44-.46,4.24,4.24,0,0,1,3.26,1.15c.59.73.77,1.7.77,3.34V130c0,.63.45.63.62.63h2c.18,0,.63,0,.63-.63Z"></path><path class="cls-3" d="M267.5,130V113.83c0-.56-.35-.63-.63-.63h-2c-.27,0-.62.07-.62.63v12.44c0,1-.45,1.43-1.36,1.77a7.18,7.18,0,0,1-2.47.46,4.21,4.21,0,0,1-3.26-1.12c-.59-.73-.73-1.7-.73-3.33V113.83c0-.56-.35-.63-.63-.63h-2c-.28,0-.62.07-.62.63v9.73c0,2.85.14,4.38,1.28,5.63a6.37,6.37,0,0,0,4.87,1.7,10.11,10.11,0,0,0,3.51-.66,3.65,3.65,0,0,1,1.28-.31c.35,0,.35.1.35.24s.07.46.49.46h1.87c.28,0,.63-.07.63-.63Z"></path><path class="cls-3" d="M276.44,130V106.91a.55.55,0,0,0-.63-.62h-2a.55.55,0,0,0-.63.62V130c0,.56.35.63.63.63h2c.28,0,.63-.07.63-.63Z"></path><path class="cls-4" d="M296.18,121.65v-.84c0-2.78-1-7.88-7.47-7.88-5.39,0-8,4.24-8,9.17,0,6.81,4.31,8.79,8.79,8.79,2.12,0,4.59-.38,5.46-1,.35-.24.38-.45.38-.9v-1.18c0-.28-.1-.56-.49-.56a1.08,1.08,0,0,0-.55.17,9.86,9.86,0,0,1-4.45,1.08c-3.13,0-5.74-1.67-5.74-5.7,0-.35.21-.49.53-.49h10.94a.55.55,0,0,0,.63-.62Zm-3.37-2.16c0,.39-.11.46-.42.46H284.5c-.35,0-.42-.14-.42-.35a4.3,4.3,0,0,1,4.52-4.31,3.92,3.92,0,0,1,4.21,4.2Z"></path><path class="cls-3" d="M314.7,130v-9.7c0-2.85-.18-4.38-1.32-5.63a6.42,6.42,0,0,0-4.87-1.73,9.81,9.81,0,0,0-3.47.66,3.7,3.7,0,0,1-1.29.31c-.35,0-.35-.11-.35-.24s-.07-.46-.48-.46H301c-.28,0-.63.07-.63.63V130c0,.56.35.63.63.63h2c.28,0,.63-.07.63-.63V117.55a1.68,1.68,0,0,1,1.35-1.77,7,7,0,0,1,2.43-.46,4.26,4.26,0,0,1,3.27,1.15c.59.73.77,1.7.77,3.34V130c0,.56.34.63.62.63h2c.28,0,.63-.07.63-.63Z"></path><path class="cls-4" d="M324,115.46c0-1.73-.77-2.43-2.51-2.43s-2.46.66-2.46,2.33a2.11,2.11,0,0,0,2.43,2.43c1.63,0,2.54-.62,2.54-2.33Zm0,13.14c0-1.74-.77-2.43-2.51-2.43s-2.46.66-2.46,2.33.76,2.39,2.43,2.39,2.54-.59,2.54-2.29Z"></path><path class="cls-5" d="M113.81,94.36a.27.27,0,0,1-.2-.23h0a.25.25,0,0,1,.16-.26h0c.85-.35,1.69-.74,2.53-1.18h0a25.31,25.31,0,0,0,10.75-10.82h0a.25.25,0,0,1,.27-.14h0a89.6,89.6,0,0,0,14.15,1h0c3.8,0,6.33-.2,6.34-.2h0c41.53-3.78,75.55-33,86.72-70.53h0a.25.25,0,0,1,.3-.18h0a.26.26,0,0,1,.2.29h0C229.15,51,199.39,84.92,158.57,94.5h0a97.22,97.22,0,0,1-22.25,2.6h0a93.19,93.19,0,0,1-22.51-2.74Z"></path><path class="cls-1" d="M149.94,58.45a14.22,14.22,0,1,1,14.22,14.22,14.21,14.21,0,0,1-14.22-14.22Z"></path><path class="cls-6" d="M334.18,68.17a18.69,18.69,0,0,0,2.05.43h0a.2.2,0,0,1,.16.16h0a.2.2,0,0,1-.11.21h0a71.29,71.29,0,0,1-32.41,7.65h-.27a75.69,75.69,0,0,1-69.77-47.27h0a.19.19,0,0,1,.1-.25h0a.19.19,0,0,1,.25.08h0a75.32,75.32,0,0,0,65.13,37.61h0a75.56,75.56,0,0,0,10.14-.69h0s1.93-.29,4.75-.94h0A67.77,67.77,0,0,0,324.28,62h0a.21.21,0,0,1,.22,0h0a18.93,18.93,0,0,0,9.68,6.1Z"></path><path class="cls-3" d="M125.55,188.12a.32.32,0,0,1-.23-.33h0c1.87-45.64,22.43-75.33,52.34-92.61h0c18.6-11.66,44-19,68.1-19h0a97.58,97.58,0,0,1,30.41,4.53h0a.34.34,0,0,1,.22.4h0a.33.33,0,0,1-.38.24h0a80.13,80.13,0,0,0-15.65-1.46h0c-28.62,0-60.94,13-79.84,27.7h0l-.2-.26.2.27c-21.12,15.94-35.85,38.39-39.84,68.59h0a.34.34,0,0,1-.2.26h0A32.29,32.29,0,0,0,125.92,188h0a.33.33,0,0,1-.27.15h0l-.1,0Z"></path></svg> 