<svg xmlns="http://www.w3.org/2000/svg" id="Layer_1" viewBox="0 0 450 200"> <defs> <style>.cls-1{fill:#df0019;}.cls-2{fill:#f3cc02;}</style> </defs> <title>logo-das</title> <path d="M249.88,34.73c2.4-.13,4.81-.38,7.22-.35-2.34.16-4.68.36-7,.35Z"></path> <path d="M244.57,35.16c.94-.13,1.89-.22,2.84-.3a13.29,13.29,0,0,1-2.64.29Z"></path> <path d="M240.19,35.62a21.55,21.55,0,0,1,2.84-.3,8.85,8.85,0,0,1-2.66.29Z"></path> <path d="M234.19,36.53c0-.39.65-.44.8-.13A1.4,1.4,0,0,1,234.19,36.53Z"></path> <path d="M287.91,36.4c.15-.31.84-.25.8.14A1.35,1.35,0,0,1,287.91,36.4Z"></path> <path d="M222.71,38.74q.16-.54.6-.16A.66.66,0,0,1,222.71,38.74Z"></path> <path d="M214.11,41q.1-.54.57-.22A.53.53,0,0,1,214.11,41Z"></path> <path d="M311.08,41.08c.23,0,.43.13.65.2a10.58,10.58,0,0,1-1.94,0l.2,0Z"></path> <path d="M285.27,41.49a3.48,3.48,0,0,1,1.23-.11C286.4,41.83,285.55,41.78,285.27,41.49Z"></path> <path d="M279.71,42.08a12.82,12.82,0,0,1,2-.24A8.84,8.84,0,0,1,279.71,42.08Z"></path> <path d="M276.26,42.46a2.66,2.66,0,0,1,1.41-.22C277.51,42.69,276.65,42.64,276.26,42.46Z"></path> <path d="M267.88,43.78a1.82,1.82,0,0,1,1-.21C268.87,44,268.12,44,267.88,43.78Z"></path> <path d="M198.48,46l.22-.1.17.11-.42.19Z"></path> <path d="M247.78,49.07l.43-.17,0,.2-.22.09Z"></path> <path d="M226.26,59.6l.08-.05Z"></path> <path d="M159.61,74.18c17.21-9.58,37.71-12.74,57.09-9.63a32.63,32.63,0,0,1,5.42,1.23Q213.21,72.29,205,79.66A162.49,162.49,0,0,0,189.21,95.6c-1.56,1.76-2.95,3.68-4.48,5.47q-18.16,0-36.31,0c-5.52,0-11,.11-16.56,0A47.3,47.3,0,0,1,140,89.2,77.44,77.44,0,0,1,159.61,74.18Z"></path> <path d="M161.8,69.52a.61.61,0,0,1,.67-.39C162.65,69.48,162,69.83,161.8,69.52Z"></path> <path d="M111.58,73.52A8.16,8.16,0,0,1,116.51,71c2.7-.31,5.71-.14,7.89,1.68,1.93,1.66,2.36,4.41,2.2,6.82q-2,0-3.93,0a7,7,0,0,0-1.08-4c-1-1.17-2.61-1.34-4-1.25a4.11,4.11,0,0,0-3.64,2.53,4.45,4.45,0,0,0,.69,4.38c3,3.29,8.05,3.85,10.74,7.53,1.58,1.82,1.68,4.38,1.37,6.65a7,7,0,0,1-3.08,4.82,11.26,11.26,0,0,1-6.53,1.41,8,8,0,0,1-6.44-2.63A10.11,10.11,0,0,1,109,92.12c1.28,0,2.57,0,3.86,0a7.38,7.38,0,0,0,.69,3.93,4.75,4.75,0,0,0,4.44,2.2,5.1,5.1,0,0,0,4-1.68,5.27,5.27,0,0,0,.83-3.84,3.6,3.6,0,0,0-1.26-2.29c-1.9-1.86-4.43-2.83-6.73-4.08-2.1-1.26-4.22-3-4.91-5.41A8.32,8.32,0,0,1,111.58,73.52Z"></path> <path d="M60.1,71.43c3.22,0,6.44,0,9.65.06a8.71,8.71,0,0,1,5.36,1.78,8.61,8.61,0,0,1,2.75,5.16,54.06,54.06,0,0,1,.43,11.89,19.41,19.41,0,0,1-1.2,6,7,7,0,0,1-3.65,3.59,17.65,17.65,0,0,1-6.76,1.1H60.1c-.09-6.14,0-12.28,0-18.41C60.09,78.87,60,75.15,60.1,71.43ZM64,74.88q0,11.35,0,22.69c1.49,0,3,0,4.48,0a6.14,6.14,0,0,0,4.21-1.52,7.55,7.55,0,0,0,1.69-4.25c.2-2.85.17-5.7.14-8.56-.05-2.06-.05-4.24-1.08-6.09a4.8,4.8,0,0,0-4.31-2.3C67.39,74.87,65.67,74.85,64,74.88Z"></path> <path d="M91.53,71.46c1.64,0,3.29-.07,4.93,0,3.13,9.82,6.41,19.6,9.54,29.42a25.28,25.28,0,0,1-3.81.09c-.47.09-.56-.45-.68-.78-.61-2.06-1.27-4.11-1.85-6.18-3.78-.1-7.58,0-11.36,0q-1.11,3.47-2.18,7c-1.27.08-2.54,0-3.81,0a21.47,21.47,0,0,1,1-3.39q2.62-8.27,5.26-16.53C89.51,77.87,90.62,74.69,91.53,71.46Zm2.3,3.75q-2.35,7.65-4.52,15.37c3.06,0,6.13.05,9.2,0-1.19-4.32-2.58-8.58-3.83-12.88A19.29,19.29,0,0,0,93.83,75.22Z"></path> <path d="M59.89,111.26c2.34-.06,4.67,0,7,0a6.29,6.29,0,0,1,5,2.06c1.36,1.7,1.53,4,1.67,6.07a29.49,29.49,0,0,1,0,5.56,11.87,11.87,0,0,1-1.34,5.71c-1.32,1.91-3.75,2.57-6,2.64s-4.24,0-6.36,0C59.9,125.92,59.87,118.59,59.89,111.26Zm3,2.56c-.12,2.29,0,4.59-.06,6.88,0,3.37-.07,6.74.05,10.1,1.82,0,3.73.17,5.48-.5s2.17-2.82,2.29-4.53c0-2.36,0-4.71,0-7.07a8.17,8.17,0,0,0-.35-2.28,3.5,3.5,0,0,0-3.17-2.6C65.7,113.77,64.28,113.8,62.86,113.83Z"></path> <path d="M188.8,111.27c1.2-.05,2.41-.06,3.61,0,2.43,7.31,4.8,14.65,7.18,22a31.35,31.35,0,0,1-3.25,0c-.47-1.73-1-3.43-1.53-5.15-2.84-.06-5.68-.08-8.52,0-.45,1.74-1,3.44-1.57,5.15-1,0-1.91,0-2.87,0,1.2-4.12,2.58-8.18,3.85-12.28C186.74,117.73,187.75,114.49,188.8,111.27Zm1.13,4.49c-.9,3.28-2,6.51-2.82,9.8,2.3,0,4.61,0,6.91,0-.77-2.78-1.69-5.52-2.49-8.3a31,31,0,0,0-1-3.26A13.27,13.27,0,0,0,189.93,115.76Z"></path> <path d="M231,111.26a20.94,20.94,0,0,1,2.58,0q0,11,0,22c-.86.05-1.71.05-2.57,0C231,125.93,231,118.59,231,111.26Z"></path> <path d="M326.08,111.28a23,23,0,0,1,2.56,0c0,2.82,0,5.64,0,8.46.75-.9,1.58-1.93,2.85-2s3-.28,4.14.65a4.45,4.45,0,0,1,1.39,3.71c0,3.74,0,7.48,0,11.22q-1.25,0-2.49,0c-.1-3.6,0-7.2-.06-10.79a2.68,2.68,0,0,0-1.17-2.46,3.06,3.06,0,0,0-3.89.79,6.6,6.6,0,0,0-.76,3.2c0,3.09,0,6.18,0,9.27-.85,0-1.7,0-2.55,0C326.09,125.91,326.1,118.59,326.08,111.28Z"></path> <path d="M356.66,111.26c.86,0,1.73,0,2.59,0q0,11,0,22-1.31,0-2.6,0C356.64,125.92,356.63,118.59,356.66,111.26Z"></path> <path d="M146.15,111.31a13.19,13.19,0,0,1,2.55,0c0,2.78,0,5.57,0,8.35.75-.78,1.44-1.75,2.58-2,1.5-.19,3.24-.32,4.5.69a4.84,4.84,0,0,1,1.28,3.65q0,5.61,0,11.23l-2.51,0c0-3.46,0-6.93,0-10.39a3.44,3.44,0,0,0-1-2.73,3.33,3.33,0,0,0-3.08-.26,3.07,3.07,0,0,0-1.63,2.35,28.18,28.18,0,0,0-.16,4.4c0,2.2,0,4.4,0,6.6q-1.27,0-2.53,0C146.13,125.94,146.15,118.62,146.15,111.31Z"></path> <path d="M276.6,111.3a13.16,13.16,0,0,1,2.53,0c0,7.32,0,14.63,0,22-.84,0-1.69,0-2.53,0,0-.57,0-1.13,0-1.7a6.77,6.77,0,0,1-1.87,1.72,5.6,5.6,0,0,1-3.82,0,4.5,4.5,0,0,1-2.34-2.91c-.75-2.18-.49-4.52-.51-6.79,0-1.84.43-3.91,2-5.12a5.25,5.25,0,0,1,4-.81,4.57,4.57,0,0,1,2.46,1.54l.08.07v-.08C276.65,116.55,276.58,113.93,276.6,111.3Zm-3.18,8.35a2.72,2.72,0,0,0-1.61.62,3.57,3.57,0,0,0-.93,2.2,28,28,0,0,0-.18,4.85,5.71,5.71,0,0,0,.86,3.09,2.65,2.65,0,0,0,3.72.6,4.58,4.58,0,0,0,1.19-3,28.57,28.57,0,0,0,0-5.3,4.44,4.44,0,0,0-.88-2.23A2.41,2.41,0,0,0,273.43,119.66Z"></path> <path d="M109.15,114.93a12.7,12.7,0,0,1,2.49-1.11c0,1.34,0,2.67,0,4,1.12,0,2.25,0,3.37.06,0,.63,0,1.26,0,1.89-1.13.07-2.26,0-3.38.07,0,3.16,0,6.31,0,9.47a1.84,1.84,0,0,0,1,1.87,8.71,8.71,0,0,0,2.49.13q0,.95,0,1.89c-1.57.25-3.28.57-4.77-.17a2.64,2.64,0,0,1-1.24-2.41c0-3.6,0-7.2,0-10.8l-2.46,0c0-.65,0-1.3,0-1.95l2.47,0A29,29,0,0,1,109.15,114.93Z"></path> <path d="M80.16,118.56c1.36-1.07,3.18-1,4.82-.94a4.1,4.1,0,0,1,3.48,2c1.15,2.06.89,4.51.9,6.78-2.86,0-5.73,0-8.59,0a7,7,0,0,0,1,4.31,2.83,2.83,0,0,0,4.14-.31,5.67,5.67,0,0,0,.68-1.84c.91,0,1.82,0,2.73,0a4.8,4.8,0,0,1-1.56,3.92,7.62,7.62,0,0,1-6.17.84,4.63,4.63,0,0,1-3.15-3.64,20.79,20.79,0,0,1-.25-7A5.69,5.69,0,0,1,80.16,118.56Zm1.54,1.75a7.08,7.08,0,0,0-.95,4.16c2,0,4,0,6,0a10.59,10.59,0,0,0-.5-3.46,2.08,2.08,0,0,0-1.7-1.44A2.89,2.89,0,0,0,81.69,120.31Z"></path> <path d="M118.9,118.31a7,7,0,0,1,4.19-.7,4.61,4.61,0,0,1,3.43,1.65,4.26,4.26,0,0,1,.72,2.71c-.93,0-1.86,0-2.79,0a4.51,4.51,0,0,0-.63-1.78,2.83,2.83,0,0,0-2.86-.52,1.81,1.81,0,0,0-1,2.8c1.38,1.36,3.4,1.68,5,2.74a4.42,4.42,0,0,1-.25,7.9,8,8,0,0,1-6.12-.24,4.37,4.37,0,0,1-2-4.33c.95,0,1.9,0,2.86,0,.12.9.15,2,1,2.54,1.37.92,3.83.38,4.16-1.4A1.61,1.61,0,0,0,124,128c-1.82-1.54-4.42-1.84-6-3.67A3.89,3.89,0,0,1,118.9,118.31Z"></path> <path d="M133,118.67a6,6,0,0,1,4.44-1.08,4.08,4.08,0,0,1,3.72,2.26,5.76,5.76,0,0,1,.45,3q-1.29,0-2.57,0a4.09,4.09,0,0,0-.85-2.68,2.52,2.52,0,0,0-2.81-.22c-1.3.68-1.55,2.29-1.67,3.61a19.38,19.38,0,0,0,.49,6.09,2.52,2.52,0,0,0,3.72,1.44,3.88,3.88,0,0,0,1.2-3c.87,0,1.74,0,2.62,0a5.05,5.05,0,0,1-2,4.59,6.28,6.28,0,0,1-5.08.65,4,4,0,0,1-2.75-2.28c-1.1-2.19-.88-4.7-.87-7.07C131.07,122.11,131.4,120,133,118.67Z"></path> <path d="M162,120.36a4.58,4.58,0,0,1,3.86-2.73,7.82,7.82,0,0,1,4.48.59,4.57,4.57,0,0,1,2,3,20.76,20.76,0,0,1,.32,5.13c-2.87.05-5.75,0-8.62,0,0,1.52,0,3.27,1.1,4.47a2.9,2.9,0,0,0,3.84-.25,5,5,0,0,0,.8-2.09c.89,0,1.77,0,2.66,0a4.25,4.25,0,0,1-1.95,4.29,8.11,8.11,0,0,1-5.29.61,4,4,0,0,1-2.84-2,11.13,11.13,0,0,1-1.13-5.68A14.7,14.7,0,0,1,162,120.36Zm2.89,0a6.73,6.73,0,0,0-.86,4.07q2.94,0,5.88,0a7.92,7.92,0,0,0-.55-3.71,1.82,1.82,0,0,0-1.13-1.09C167.07,119.38,165.61,119.36,164.85,120.39Z"></path> <path d="M217.32,120.41a4.32,4.32,0,0,1,3.6-2.75,7.26,7.26,0,0,1,4.91.78,3.58,3.58,0,0,1,1.5,3.55c-.93,0-1.86,0-2.79,0a3.13,3.13,0,0,0-.44-1.62,2.73,2.73,0,0,0-4,0,1.71,1.71,0,0,0,.07,2.15c1.78,1.61,4.38,1.89,6.09,3.6a4.36,4.36,0,0,1-1.19,6.91,8.29,8.29,0,0,1-4.81.39,4.54,4.54,0,0,1-2.85-1.74,5.09,5.09,0,0,1-.68-3.17c.92,0,1.85,0,2.77,0,.19.91.25,2,1.12,2.6a3.09,3.09,0,0,0,3.26-.13,2,2,0,0,0,.72-2.49,7.4,7.4,0,0,0-3-1.95,9.29,9.29,0,0,1-3.93-2.67A4,4,0,0,1,217.32,120.41Z"></path> <path d="M239.47,118.56a7.21,7.21,0,0,1,4.8-.95,4,4,0,0,1,3.43,1.87,4.87,4.87,0,0,1,.59,2.34c.11,3.82-.18,7.65.27,11.45-.91,0-1.83,0-2.74,0,0-.68,0-1.35,0-2a4.47,4.47,0,0,1-1.83,2,4.86,4.86,0,0,1-5.13-.66,6.29,6.29,0,0,1-1.18-4.57,4.07,4.07,0,0,1,2.4-3.52,13.67,13.67,0,0,1,5.69-.74,5.6,5.6,0,0,0-.55-3.28,2.76,2.76,0,0,0-3.23-.67c-1,.39-1.19,1.55-1.29,2.48q-1.33.05-2.66,0A4.62,4.62,0,0,1,239.47,118.56Zm1.37,8.2a3.35,3.35,0,0,0,.1,4.12,2.67,2.67,0,0,0,4.11-.79,8.24,8.24,0,0,0,.71-4.46C244.1,125.67,242.1,125.43,240.84,126.75Z"></path> <path d="M255.86,119.61a4,4,0,0,1,2.74-2,6.15,6.15,0,0,1,3.87.48c1.31.9,1.58,2.62,1.62,4.09,0,3.67,0,7.35,0,11-.86,0-1.73,0-2.59,0,0-3.59,0-7.19,0-10.78a2.88,2.88,0,0,0-.73-2.17,3.13,3.13,0,0,0-3.78-.09c-1.53,1.4-1.23,3.69-1.27,5.57,0,2.49,0,5,0,7.48-.86,0-1.72,0-2.57,0,0-5.13.1-10.26-.1-15.39q1.33,0,2.67,0c0,.58,0,1.17.07,1.75v.09Z"></path> <path d="M283.46,120.68a4.35,4.35,0,0,1,3.76-3,7.54,7.54,0,0,1,4.76.75A3.78,3.78,0,0,1,293.6,122c-.93,0-1.85,0-2.78,0-.14-.77-.26-1.68-1-2.11a2.94,2.94,0,0,0-3.32.33,1.71,1.71,0,0,0,.1,2.47,19.23,19.23,0,0,0,4,2.12,5.41,5.41,0,0,1,2.94,3,5.27,5.27,0,0,1-.55,3.76,4.53,4.53,0,0,1-3.57,2,6.64,6.64,0,0,1-5.22-1.19,4.88,4.88,0,0,1-1.29-3.76,26.35,26.35,0,0,1,2.86,0c.15.89.17,2,1,2.51,1.33,1,3.83.44,4.15-1.34a1.7,1.7,0,0,0-.5-1.65c-1.85-1.58-4.51-1.91-6.16-3.77A3.66,3.66,0,0,1,283.46,120.68Z"></path> <path d="M297.29,120a4.52,4.52,0,0,1,3.59-2.31,7.28,7.28,0,0,1,4.58.69,3.85,3.85,0,0,1,1.75,3.59,18.27,18.27,0,0,1-2.88,0c-.1-.64-.08-1.41-.62-1.87a3,3,0,0,0-3.2-.22,1.7,1.7,0,0,0-.4,2.74c1.85,1.58,4.53,1.85,6.18,3.71a4.37,4.37,0,0,1,.41,5,4.63,4.63,0,0,1-3.74,2.19,7.2,7.2,0,0,1-4.89-1,4.66,4.66,0,0,1-1.55-4c1,0,1.92,0,2.88,0,.09.92.16,2,1,2.57,1.4,1,4,.28,4.13-1.6.19-.9-.6-1.54-1.25-2-1.84-1.18-4.18-1.64-5.62-3.4A4,4,0,0,1,297.29,120Z"></path> <path d="M313.22,118.47a6.93,6.93,0,0,1,4.85-.82,4,4,0,0,1,2.81,1.8,5.78,5.78,0,0,1,.7,3.4c-.85,0-1.71,0-2.56,0a4.75,4.75,0,0,0-.87-2.66,2.65,2.65,0,0,0-3.09-.1c-1.13.84-1.35,2.37-1.41,3.69,0,2.08-.2,4.27.63,6.24a2.46,2.46,0,0,0,3.59,1.07c.95-.67,1.08-1.92,1.21-3,.88,0,1.76,0,2.64,0a5.16,5.16,0,0,1-2.27,4.73,6.67,6.67,0,0,1-5.14.44,4.22,4.22,0,0,1-2.7-2.77c-.9-2.44-.67-5.09-.54-7.63A5.68,5.68,0,0,1,313.22,118.47Z"></path> <path d="M365.6,118.42c1.29-.94,3-.88,4.48-.82a4.18,4.18,0,0,1,3.74,2.22c1,2,.89,4.38.85,6.58-2.88,0-5.76,0-8.63,0a7.15,7.15,0,0,0,.89,4.24,2.8,2.8,0,0,0,4.14-.13,9.17,9.17,0,0,0,.79-1.85,11.72,11.72,0,0,1,2.69-.12,4.69,4.69,0,0,1-1.79,4.08,7.87,7.87,0,0,1-5.91.7,4.61,4.61,0,0,1-3.18-3.58,20.58,20.58,0,0,1-.28-6.93A5.64,5.64,0,0,1,365.6,118.42Zm1.3,2a7,7,0,0,0-.86,4.09q2.95,0,5.9,0a7.38,7.38,0,0,0-.81-4.14,2.65,2.65,0,0,0-2.38-.82A2.24,2.24,0,0,0,366.9,120.37Z"></path> <path d="M381.36,119.72a4.62,4.62,0,0,1,2.82-2.06c1.38-.11,3-.28,4.15.66a4.75,4.75,0,0,1,1.36,3.71c0,3.75,0,7.5,0,11.25-.85,0-1.7,0-2.55,0q0-5.38,0-10.76a2.69,2.69,0,0,0-1-2.39,3.23,3.23,0,0,0-3.64.26,5,5,0,0,0-1.15,3.67c0,3.08,0,6.17,0,9.25-.86,0-1.73,0-2.59,0,0-5.13.1-10.25-.07-15.38.88,0,1.76,0,2.65,0C381.33,118.48,381.33,119.1,381.36,119.72Z"></path> <path d="M93.61,117.88a24.33,24.33,0,0,1,2.57,0c0,3.6,0,7.19,0,10.79a3.18,3.18,0,0,0,1.13,2.6,2.89,2.89,0,0,0,3.93-1.08,6.15,6.15,0,0,0,.49-3.29c0-3,0-6,0-9a25.7,25.7,0,0,1,2.57,0c.09,5.13-.13,10.27.14,15.41-.9,0-1.81,0-2.71,0,0-.53,0-1.06,0-1.58a5.5,5.5,0,0,1-2.51,1.74,4.66,4.66,0,0,1-4.83-1.16c-.82-1-.76-2.38-.76-3.6C93.62,125.05,93.59,121.47,93.61,117.88Z"></path> <path d="M202.27,117.89a22.25,22.25,0,0,1,2.57,0c0,3.53,0,7.05,0,10.57a3.38,3.38,0,0,0,1.14,2.81,2.88,2.88,0,0,0,3.86-.89,4.84,4.84,0,0,0,.61-2.81c0-3.22,0-6.44,0-9.66.85-.06,1.69-.05,2.54,0,0,4.19,0,8.37,0,12.56,0,.95.16,1.89.19,2.83-.92,0-1.83,0-2.75,0,0-.49,0-1,0-1.47a5.59,5.59,0,0,1-2.93,1.74c-1.5.24-3.32.07-4.34-1.19a5,5,0,0,1-.85-3.23C202.28,125.36,202.27,121.62,202.27,117.89Z"></path> <path d="M341.51,117.89a23.5,23.5,0,0,1,2.55,0c0,3.53,0,7.05,0,10.57a3.35,3.35,0,0,0,1.15,2.81,2.84,2.84,0,0,0,3.83-.92,3.27,3.27,0,0,0,.56-1.89c0-3.52,0-7,0-10.55.86,0,1.72,0,2.58,0,.07,5.13-.11,10.27.12,15.41-.9,0-1.8,0-2.69,0,0-.53,0-1.06,0-1.6a5,5,0,0,1-6.93,1,4,4,0,0,1-1.17-3.15C341.51,125.65,341.5,121.77,341.51,117.89Z"></path> <path d="M59.9,143.24c.94,0,1.88,0,2.82,0,.12,5.05,0,10.1.06,15.16,0,2.32.08,4.64-.07,7-.92,0-1.84,0-2.77,0a11.41,11.41,0,0,1-.07-1.86C59.9,156.72,59.85,150,59.9,143.24Z"></path> <path d="M155.93,143.23q1.41,0,2.82,0c0,.93,0,1.85,0,2.78q-1.41,0-2.82,0C155.89,145.08,155.89,144.15,155.93,143.23Z"></path> <path d="M208.73,143.28a16.07,16.07,0,0,1,2.52,0q.06,11,0,22a22.78,22.78,0,0,1-2.51,0Q208.7,154.28,208.73,143.28Z"></path> <path d="M83.35,146.89c.85-.38,1.7-.77,2.58-1.07,0,1.33-.06,2.67,0,4,1.11,0,2.22,0,3.33,0,0,.63,0,1.26,0,1.89-1.12,0-2.25,0-3.37.06,0,2.93,0,5.85,0,8.78a5.7,5.7,0,0,0,.21,2c.76,1,2.14.83,3.23.73,0,.63,0,1.26,0,1.9-.65.12-1.3.22-1.95.36a1.36,1.36,0,0,0-1.36,0,4.36,4.36,0,0,1-2.15-1,3.35,3.35,0,0,1-.55-2.17c0-3.51,0-7,0-10.54-.85,0-1.7,0-2.56-.05q0-1,0-1.91l2.49,0C83.33,148.85,83.34,147.86,83.35,146.89Z"></path> <path d="M148,146.91a15.35,15.35,0,0,1,2.48-1.11c0,1.34,0,2.67,0,4,1.13.05,2.25,0,3.38.06,0,.63,0,1.26,0,1.89-1.12,0-2.25,0-3.37.06,0,3.07,0,6.15,0,9.22,0,.73,0,1.65.78,2a5.36,5.36,0,0,0,2.66.21c0,.65,0,1.31,0,2-.63.08-1.26.17-1.88.28a1.34,1.34,0,0,0-1.36,0,4.1,4.1,0,0,1-2.15-1,3.33,3.33,0,0,1-.56-2.18c0-3.51,0-7,0-10.54-.85,0-1.69,0-2.54-.06,0-.63,0-1.26,0-1.89l2.48,0C147.92,148.85,147.79,147.87,148,146.91Z"></path> <path d="M72,150.09a6.06,6.06,0,0,1,3.25-.5,3.31,3.31,0,0,1,2.84,1.76c.8,1.71.58,3.66.62,5.5,0,2.82.08,5.65-.06,8.47-.83,0-1.66,0-2.49,0-.08-3.05,0-6.11,0-9.16,0-1.27.2-2.71-.65-3.77a3.23,3.23,0,0,0-3-.6,2.6,2.6,0,0,0-1.77,1.81,12.11,12.11,0,0,0-.32,3.89c0,2.61,0,5.21,0,7.82-.84,0-1.69,0-2.53,0-.09-2.68,0-5.37,0-8,0-2.47.11-5-.17-7.41.91-.05,1.83,0,2.75,0,0,.6,0,1.21.07,1.81A6.25,6.25,0,0,1,72,150.09Z"></path> <path d="M93.21,150.77c1.56-1.33,3.8-1.37,5.73-1.07a4.18,4.18,0,0,1,3.33,3,20.72,20.72,0,0,1,.49,5.63c-2.88.06-5.76,0-8.64,0a7.24,7.24,0,0,0,.87,4.26,2.84,2.84,0,0,0,3.88.18,3.89,3.89,0,0,0,1-2.2,23.7,23.7,0,0,1,2.77,0,5.4,5.4,0,0,1-.84,3.14c-.71,1.06-2,1.43-3.11,1.91h-3a5.18,5.18,0,0,1-3.14-2c-1.33-2.23-1.2-4.94-1.15-7.44C91.43,154.26,91.72,152.13,93.21,150.77Zm1.8,1.58a7,7,0,0,0-.89,4.09q2.94.05,5.89,0a8.16,8.16,0,0,0-.59-3.7A1.92,1.92,0,0,0,98,151.6,3,3,0,0,0,95,152.35Z"></path> <path d="M111.22,150.05a5.87,5.87,0,0,1,3.05-.48,15.32,15.32,0,0,1,0,2.62,4.35,4.35,0,0,0-3.45.53c-1.12.85-1.3,2.37-1.29,3.68,0,3,0,5.93,0,8.9l-2.49,0c-.08-5.16,0-10.33,0-15.49.85,0,1.69,0,2.54,0,0,.66,0,1.32,0,2C110.11,151.24,110.46,150.42,111.22,150.05Z"></path> <path d="M122,149.81a5.56,5.56,0,0,1,4.57.49,4.77,4.77,0,0,1,1.39,3.9q0,5.55,0,11.09a20.51,20.51,0,0,1-2.5,0c-.06-3.48,0-7,0-10.44a3.68,3.68,0,0,0-.71-2.49,3.12,3.12,0,0,0-2.72-.6,2.85,2.85,0,0,0-2.17,2.25,28.79,28.79,0,0,0-.22,5c0,2.08,0,4.16,0,6.23a18.22,18.22,0,0,1-2.53,0c0-5.13.08-10.27-.09-15.4q1.31,0,2.62,0c0,.65,0,1.31.06,2A4.71,4.71,0,0,1,122,149.81Z"></path> <path d="M133.71,150.74a6.54,6.54,0,0,1,4.58-1.17,4.5,4.5,0,0,1,3.84,1.87c.73,1.23.61,2.71.64,4.08a90.31,90.31,0,0,0,.24,9.77q-1.37,0-2.74,0c0-.69,0-1.38,0-2.07a4.93,4.93,0,0,1-2.66,2.41l-.09,0h-2.19a4.46,4.46,0,0,1-2.44-1.64,7.34,7.34,0,0,1-.76-4.1,4,4,0,0,1,2.29-3.4c1.79-.9,3.84-.73,5.78-.8a5.9,5.9,0,0,0-.46-3.18,2.67,2.67,0,0,0-3.4-.71c-.9.44-1,1.51-1.21,2.39-.88,0-1.76,0-2.64,0A4.83,4.83,0,0,1,133.71,150.74Zm1.86,7.8a2.9,2.9,0,0,0-.83,2.91A2.46,2.46,0,0,0,136,163.3a2.72,2.72,0,0,0,3.33-1,8.45,8.45,0,0,0,.89-4.59C138.67,157.67,136.9,157.53,135.58,158.54Z"></path> <path d="M163.76,151.46a5.33,5.33,0,0,1,4.71-1.9,5.26,5.26,0,0,1,4.61,2c1.2,1.81,1.11,4.08,1.19,6.17s-.12,4.39-1.39,6.17a5.25,5.25,0,0,1-3,1.76h-3a5.54,5.54,0,0,1-3-1.77,10.29,10.29,0,0,1-1.35-6.16C162.52,155.6,162.48,153.27,163.76,151.46Zm3.45.36a2.74,2.74,0,0,0-1.73,2.05,19.07,19.07,0,0,0-.12,6.48,3.51,3.51,0,0,0,1.56,2.86c1.33.61,3.31.37,4-1.11.79-1.79.68-3.8.69-5.71a6,6,0,0,0-1-3.88A3.32,3.32,0,0,0,167.21,151.82Z"></path> <path d="M182.29,150.18a5.88,5.88,0,0,1,3.59-.58,3.18,3.18,0,0,1,2.64,1.71c.83,1.72.59,3.68.63,5.52,0,2.82.1,5.65-.08,8.47l-2.5,0c-.1-3.71,0-7.43,0-11.15a2.43,2.43,0,0,0-1.25-2.24,3.76,3.76,0,0,0-2.79,0c-1.23.6-1.61,2.09-1.69,3.35-.07,3.34,0,6.69-.06,10h-2.53c-.09-3.12,0-6.24,0-9.36a54.43,54.43,0,0,0-.15-6.09c.91-.06,1.82,0,2.73,0,0,.65,0,1.29,0,1.94A5.65,5.65,0,0,1,182.29,150.18Z"></path> <path d="M194.93,150.7a6.61,6.61,0,0,1,4.62-1.13,4.47,4.47,0,0,1,3.68,1.79c.8,1.23.71,2.75.7,4.15,0,3.27-.12,6.55.21,9.81-.9,0-1.8,0-2.7,0,0-.58-.06-1.17-.11-1.75a6.29,6.29,0,0,1-2.58,2.11h-2.41a4.79,4.79,0,0,1-2.26-1.59,7,7,0,0,1-.8-3.92,4,4,0,0,1,1.93-3.44c1.84-1.11,4-1,6.11-1,.06-1.24.14-2.66-.76-3.64a2.87,2.87,0,0,0-3.52.06,3.15,3.15,0,0,0-.69,2.06,27.6,27.6,0,0,1-2.77,0A5.16,5.16,0,0,1,194.93,150.7Zm2.1,7.61a3.15,3.15,0,0,0-.66,4.33,2.6,2.6,0,0,0,4.18-.39,7.93,7.93,0,0,0,.79-4.55A8.17,8.17,0,0,0,197,158.31Z"></path> <path d="M156.11,149.85c.82,0,1.64,0,2.46,0,.1,5.14,0,10.29,0,15.44-.84,0-1.69,0-2.53,0C156.07,160.15,156,155,156.11,149.85Z"></path> <path class="cls-1" d="M257.1,34.38c4.76-.06,9.54-.1,14.29.3,1.42.13,2.86,0,4.28.25,2.14.3,4.3.28,6.43.65,1,.12,2,.13,2.94.33a21,21,0,0,1,2.87.49,1.35,1.35,0,0,0,.8.14,19.73,19.73,0,0,1,3.4.44,191.74,191.74,0,0,1,19,4.1l-1.09.16c-4.27-.38-8.56-.29-12.85-.29-3.56-.05-7.09.46-10.65.44a3.48,3.48,0,0,0-1.23.11,25.64,25.64,0,0,1-3.53.35,12.82,12.82,0,0,0-2,.24,6.56,6.56,0,0,1-2,.16,2.66,2.66,0,0,0-1.41.22,3.89,3.89,0,0,1-1.49.31,21.43,21.43,0,0,0-2.74.38,26.47,26.47,0,0,1-3.16.43,1.82,1.82,0,0,0-1,.21c-1.47.46-3,.57-4.51,1-3.88.86-7.75,1.8-11.53,3a2.07,2.07,0,0,1-1,.14.91.91,0,0,0-.89.34,3.46,3.46,0,0,1-1.69.61l-.43.17c-1.09.48-2.23.83-3.34,1.28a97.21,97.21,0,0,0-18.11,9.2l-.08.05-.56.25-.37.27a21.05,21.05,0,0,1-2.21,1.67,65.65,65.65,0,0,0-7.72-1.51c-2.69-.48-5.44-.49-8.16-.81-2.4,0-4.8-.06-7.2,0a15.79,15.79,0,0,0-3,.12c-1.5.32-3,.19-4.54.48a90.19,90.19,0,0,0-27.84,8.1,8,8,0,0,1-2.2.93.61.61,0,0,0-.67.39,1.1,1.1,0,0,1-.88.46l-.39.22a5.71,5.71,0,0,1-1.62,1l-.09,0a96.29,96.29,0,0,0-10.19,6.7c-.23.14-.43.39-.72.41l-.36.28a2.2,2.2,0,0,1-.67.65c-1.24.89-2.38,1.9-3.59,2.82A73.74,73.74,0,0,1,150.52,75c.94-.9,2-1.66,3-2.52.3-.22.56-.56.94-.62a.51.51,0,0,0,.48-.38,2.88,2.88,0,0,1,.76-.78c3.21-2.48,6.43-5,9.81-7.2h.17l.38-.24c.11-.26.41-.37.62-.54,1.45-.9,2.85-1.89,4.33-2.75l.18,0,.38-.25a6.42,6.42,0,0,1,1.91-1.25,166,166,0,0,1,18.36-9.54,3.58,3.58,0,0,1,1.36-.44l.39-.23.09-.14c1.61-.59,3.13-1.44,4.79-1.89l.42-.19c4.53-1.88,9.22-3.39,13.92-4.81a3.25,3.25,0,0,1,1.32-.24.53.53,0,0,0,.57-.22c.26-.28.7-.22,1-.35,2-.59,4.09-1.06,6.13-1.58a2.44,2.44,0,0,1,.86-.07.66.66,0,0,0,.6-.16,1.91,1.91,0,0,1,1.42-.23A1.6,1.6,0,0,0,226,38c2.11-.61,4.31-.87,6.47-1.31a6.51,6.51,0,0,1,1.73-.17,1.4,1.4,0,0,0,.8-.13,17.78,17.78,0,0,1,2.76-.47,17.2,17.2,0,0,1,2.63-.32,8.85,8.85,0,0,0,2.66-.29,9.19,9.19,0,0,1,1.74-.17,13.29,13.29,0,0,0,2.64-.29c.88-.12,1.77-.07,2.66-.13C252.42,34.74,254.76,34.54,257.1,34.38Z"></path> <path class="cls-2" d="M224.74,38.35c.07-.4.91-.52,1.25-.35A1.6,1.6,0,0,1,224.74,38.35Z"></path> <path class="cls-2" d="M292.6,44.87a43.42,43.42,0,0,1,6.75-.31c2.85,0,5.71-.06,8.56.15,2,.41,4,.07,6,.31,2.9.57,5.78,1.28,8.62,2.07.87.25,1.89,0,2.6.69,1.45.58,3.05.81,4.47,1.53.86.46,1.86.55,2.72,1,.56.31,1.21.39,1.78.67A20.08,20.08,0,0,0,337,52.31c.63.33,1.3.59,2,.87,1,.62,2.06.94,3,1.58.8.46,1.66.8,2.44,1.3,1.7.81,3.21,2,4.84,2.89,1.34.83,2.6,1.79,4,2.53.77.68,1.77,1,2.51,1.78,1.18,1.13,2.59,2,3.85,3a19.29,19.29,0,0,0,2.27,1.89c.91.6,1.57,1.5,2.44,2.17,1.09.89,2,2,3.1,2.85s2,2.21,3.2,3.19a22.44,22.44,0,0,1,3,3.18c1.37,1.27,2.44,2.82,3.87,4,.79,1.64,2.28,2.77,3.33,4.23,1.17,1.62,2.55,3.08,3.63,4.77s2.37,3.35,3.47,5.08c.78,1,1.26,2.26,2.26,3.1v.59H276.87a14.89,14.89,0,0,0-3.18.15,3.81,3.81,0,0,1-1.78-.28,13.3,13.3,0,0,0-1.78-2.86,16.48,16.48,0,0,0-2.08-3.16A29.11,29.11,0,0,0,264.54,91a46.23,46.23,0,0,0-3.64-4.05A79.6,79.6,0,0,0,252.65,80c-1.74-1.8-4-3-6.06-4.34a21.16,21.16,0,0,0-4-2.38,22.51,22.51,0,0,0-3.86-2.12,11.62,11.62,0,0,0-2.54-1.19c-.75-.18-1.36-.67-2.09-.92-1.62-.63-3.14-1.52-4.82-2a26.56,26.56,0,0,1-2.69-.8,12.71,12.71,0,0,0-1.58-.82,9,9,0,0,1,2.32-1.9c1-.51,1.66-1.39,2.66-1.84a99.13,99.13,0,0,1,13-6.39,18,18,0,0,1,3.74-1.53c1.54-.37,2.9-1.24,4.43-1.67a41.61,41.61,0,0,0,4.85-1.59c1.49-.23,2.86-.94,4.36-1.15a21.51,21.51,0,0,1,3.56-.82c1,0,1.88-.51,2.87-.5a6.76,6.76,0,0,0,1.86-.53c1.16-.44,2.46-.13,3.62-.57.85-.32,1.8-.08,2.64-.43.66-.24,1.39-.18,2.07-.37,1.37-.36,2.82-.11,4.18-.49,1.58-.42,3.26,0,4.82-.54C288.15,44.89,290.38,45,292.6,44.87Z"></path> <path class="cls-2" d="M249.9,48.28a.91.91,0,0,1,.89-.34C250.83,48.31,250.16,48.45,249.9,48.28Z"></path> <path class="cls-2" d="M193.17,48.46l.22-.32.17.09Z"></path> <path class="cls-2" d="M197,59.62a15.79,15.79,0,0,1,3-.12C199.06,59.64,198,59.52,197,59.62Z"></path> <path class="cls-2" d="M171.17,59.94l.2-.33.18.08Z"></path> <path class="cls-2" d="M225.33,60.12l.37-.27-.18.34Z"></path> <path class="cls-2" d="M165.66,63.49l.2-.32.18.08Z"></path> <path class="cls-2" d="M160.52,70.2l.39-.22-.22.31Z"></path> <path class="cls-2" d="M158.81,71.24l.09,0Z"></path> <path class="cls-2" d="M154.45,71.86c0-.36.13-.49.48-.38A.51.51,0,0,1,154.45,71.86Z"></path> <path class="cls-2" d="M147.54,78.63l.36-.28-.18.34Z"></path> <path class="cls-2" d="M389.55,98.57c-.15-.36.35-.5.58-.28v.65A.8.8,0,0,1,389.55,98.57Z"></path> <path class="cls-2" d="M276.49,119.18h.08v.08Z"></path> <path class="cls-2" d="M255.77,119.61h.08l-.07.09Z"></path> <path class="cls-2" d="M86,165.56a1.36,1.36,0,0,1,1.36,0l-.09.11H86.13Z"></path> <path class="cls-2" d="M137.52,165.66l.09,0-.06,0Z"></path> <path class="cls-2" d="M150.6,165.56a1.34,1.34,0,0,1,1.36,0l-.09.11h-1.17Z"></path> </svg>