<?xml version="1.0" encoding="UTF-8"?> <svg xmlns="http://www.w3.org/2000/svg" id="Layer_1" data-name="Layer 1" viewBox="0 0 450 200"><defs><style>.cls-1{fill:red;}.cls-2{fill:#f2d400;}</style></defs><title>logo-dsk</title><path class="cls-1" d="M231.91,33.17c2.57-.28,5.11-.81,7.7-.91.27,5.58.52,11.15.8,16.73a3.17,3.17,0,0,0,1-.81c3.72-3.69,7.42-7.39,11.15-11.07l4.78,6.06-10.65,6.41c-1.44.91-3,1.7-4.34,2.69,5.48,1.4,11,2.73,16.46,4.1l-2.77,7-10.87-5.85c-1.36-.7-2.68-1.5-4.07-2.15.64,2.45,1.46,4.84,2.17,7.26q1.41,4.67,2.84,9.33c-2.65.35-5.29.71-7.94,1q-.28-7.83-.56-15.65a4.2,4.2,0,0,0-.17-1.41L225,68,220.58,62l10.19-6c1.57-1,3.2-1.81,4.72-2.85-5.36-1.41-10.74-2.72-16.11-4.09.92-2.35,1.84-4.69,2.77-7,4.83,2.64,9.62,5.35,14.47,7.94-.5-2.19-1.21-4.33-1.8-6.51Z"></path><path class="cls-2" d="M272.7,33.57l4.86,1.85c-1.64,3.4-3.31,6.79-4.92,10.21,3.65-1,7.28-2.12,10.92-3.17l.87,5.1c-3.9.18-7.81.32-11.71.52,2.75,2.61,5.58,5.12,8.36,7.7L277.2,59c-2.09-3.15-4.11-6.34-6.23-9.47-.8,3.78-1.56,7.56-2.35,11.35l-5-1.92c1.67-3.43,3.43-6.81,5.06-10.25-3.72,1-7.44,2.06-11.16,3.09-.23-1.66-.45-3.32-.68-5,3.87-.16,7.74-.26,11.6-.43-2.69-2.56-5.44-5-8.16-7.57l3.88-3.25c2,3.1,3.95,6.22,6,9.3C271,41.13,271.85,37.34,272.7,33.57Z"></path><path d="M211.65,51.68l8.44,4.93L207.56,73a6.24,6.24,0,0,0-.89,1.32c7.09-.89,14.18-1.88,21.27-2.8V81c-7.09-.83-14.17-1.71-21.27-2.51a3.25,3.25,0,0,0,.33.57l13.23,16.68-8.86,4.92Q207.16,91,203,81.37a.82.82,0,0,0-.37-.41q-4.53,9.93-9,19.88l-8-5.06,13.13-16.87a2,2,0,0,0,.27-.53C192,79.25,185,80.16,178.1,81V71.48c6.89.88,13.78,1.8,20.68,2.66a2.37,2.37,0,0,0-.32-.61L185.53,56.61l8.58-4.79q4,8.94,8,17.86a11.8,11.8,0,0,0,.79,1.64,7.31,7.31,0,0,0,.77-1.53Z"></path><path d="M164.47,89.65c3.35,0,6.7,0,10.05,0v76.87H164.47c0-2.77.05-5.54,0-8.31a19,19,0,0,0-.93,1.86,13.58,13.58,0,0,1-3.72,4.26,17.14,17.14,0,0,1-9.52,3.41H149a15.5,15.5,0,0,1-7.94-2.21,16.6,16.6,0,0,1-6.49-7.63c-2.24-4.83-3-10.21-3.14-15.49V139.6a48.59,48.59,0,0,1,2-13.46,23.55,23.55,0,0,1,5-9.09,15,15,0,0,1,8.68-4.6,17.9,17.9,0,0,1,11.25,1.84,13.33,13.33,0,0,1,4.94,4.61c.41.66.66,1.41,1.1,2,.07-3,0-6,0-9Zm-13.36,30.56a8.48,8.48,0,0,0-5.08,3.52,17.3,17.3,0,0,0-2.53,6.39,50.55,50.55,0,0,0-.85,11.65,35.87,35.87,0,0,0,1.79,11.41,10.81,10.81,0,0,0,3.93,5.39,8.58,8.58,0,0,0,5.85,1.21,8.74,8.74,0,0,0,5.52-3.27,20.21,20.21,0,0,0,3.58-7.65A36.68,36.68,0,0,0,164.37,137a31.1,31.1,0,0,0-2.23-10.21,11.65,11.65,0,0,0-4.3-5.39A9.28,9.28,0,0,0,151.11,120.21Z"></path><path d="M187.16,121a20.39,20.39,0,0,1,4.42.22,3.57,3.57,0,0,1,2.51,2.78,10.48,10.48,0,0,1-.13,5,3.52,3.52,0,0,1-2.77,2.44,31.86,31.86,0,0,1-4,.12Zm1.54,1.24q0,4,0,8.09c1,0,2.18.12,3-.63a5,5,0,0,0,.95-3.58,4.55,4.55,0,0,0-.94-3.24C190.9,122.08,189.72,122.2,188.7,122.19Z"></path><path d="M229,121h1.38c0,1.62,0,3.23,0,4.85a2.92,2.92,0,0,1,1.35-1.54,2.13,2.13,0,0,1,2.39.35,2.65,2.65,0,0,1,.57,1.81v5.1h-1.38c0-1.59,0-3.17,0-4.76,0-.44-.06-1-.51-1.24a1.58,1.58,0,0,0-1.9.94c-.81,1.56-.39,3.37-.5,5.06H229Z"></path><path d="M211.73,122.51l1.38-.86v2.58h2v1.08h-2v3.76a1.71,1.71,0,0,0,.37,1.3c.43.36,1,.21,1.54.16,0,.36,0,.71,0,1.07a4.73,4.73,0,0,1-2.45-.14,1.55,1.55,0,0,1-.83-1.5v-4.65h-1.31v-1.08h1.31Z"></path><path d="M196.2,125.33a3,3,0,0,1,4.06-.82,3.26,3.26,0,0,1,1.06,2.83c-1.41,0-2.83,0-4.25,0a3.46,3.46,0,0,0,1.36,2.89,3.14,3.14,0,0,0,2.71.13c0,.36,0,.73,0,1.09a5.27,5.27,0,0,1-3.73-.2,3.48,3.48,0,0,1-1.63-2.7A5.24,5.24,0,0,1,196.2,125.33Zm.9,1.07c1,0,1.91,0,2.87,0a1.37,1.37,0,0,0-1.45-1.26A1.54,1.54,0,0,0,197.1,126.4Z"></path><path d="M217.24,124.32a4.75,4.75,0,0,1,3,0v1.24a3.48,3.48,0,0,0-2.15-.34c-.31.09-.69.3-.71.67s.31.63.59.82a8.9,8.9,0,0,1,2.31,1.57,2.06,2.06,0,0,1-.64,3.09,5.5,5.5,0,0,1-3.65,0v-1.23a3.8,3.8,0,0,0,2.88.22.76.76,0,0,0,.27-1.18c-.65-.69-1.61-.95-2.31-1.56a2,2,0,0,1-.83-1.59A1.83,1.83,0,0,1,217.24,124.32Z"></path><path d="M222.74,124.87a3.19,3.19,0,0,1,2.78-.77,2.26,2.26,0,0,1,1.68,1,3.4,3.4,0,0,1,.37,1.51H226a2.09,2.09,0,0,0-.35-1.17,1.18,1.18,0,0,0-1.69.09,3,3,0,0,0-.55,2.13,3,3,0,0,0,1.23,2.49,3.66,3.66,0,0,0,2.81.31v1a5.16,5.16,0,0,1-4-.26,3.75,3.75,0,0,1-1.58-3A4.2,4.2,0,0,1,222.74,124.87Z"></path><path d="M238.11,124.32a3,3,0,0,1,3.29.51,3.72,3.72,0,0,1,.71,2.51c-1.42,0-2.84,0-4.26,0a3.49,3.49,0,0,0,1.36,2.89,3.16,3.16,0,0,0,2.72.13c0,.36,0,.73,0,1.09a4.91,4.91,0,0,1-4.07-.41,4.49,4.49,0,0,1-1.35-3.9A3.06,3.06,0,0,1,238.11,124.32Zm-.22,2.08c1,0,1.91,0,2.86,0a1.37,1.37,0,0,0-1.45-1.26A1.53,1.53,0,0,0,237.89,126.4Z"></path><path d="M244.12,124.53a4.31,4.31,0,0,1,3.45-.22v1.25a3,3,0,0,0-2.46-.22.63.63,0,0,0-.24,1c.76.75,1.89,1,2.62,1.78a2.07,2.07,0,0,1-.57,3.25,5.62,5.62,0,0,1-3.6,0v-1.22a3.94,3.94,0,0,0,2.8.24.77.77,0,0,0,.31-1.25c-.78-.78-2-1-2.67-1.91A1.86,1.86,0,0,1,244.12,124.53Z"></path><path d="M203,124.23h1.4c0,1.58,0,3.15,0,4.73,0,.44,0,1,.51,1.25a1.56,1.56,0,0,0,1.9-1c.81-1.55.39-3.35.49-5h1.38v7.29h-1.38c0-.53,0-1.05,0-1.57a2.92,2.92,0,0,1-1.21,1.47,2.17,2.17,0,0,1-2.49-.23,2.73,2.73,0,0,1-.63-1.93Z"></path><path d="M187.64,140.43c1.44-.87,3.24-.64,4.82-.3v1.47a5.5,5.5,0,0,0-3.36-.38,1.23,1.23,0,0,0-.73,1.73,5.29,5.29,0,0,0,1.89,1.44,12.34,12.34,0,0,1,2.23,1.48,2.81,2.81,0,0,1-.62,4.29,6.92,6.92,0,0,1-5.16.18c0-.54,0-1.08,0-1.62a5.36,5.36,0,0,0,3.45.72,1.55,1.55,0,0,0,1.36-1.29,1.76,1.76,0,0,0-.76-1.63c-1.07-.77-2.33-1.27-3.37-2.1A2.53,2.53,0,0,1,187.64,140.43Z"></path><path d="M221.51,140h1.39c0,1.61,0,3.22,0,4.83a3,3,0,0,1,1.31-1.52,2.11,2.11,0,0,1,2.53.46,3.88,3.88,0,0,1,.47,2.42v4.37h-1.38c0-1.56,0-3.11,0-4.66,0-.46,0-1-.47-1.31a1.38,1.38,0,0,0-1.63.45,4.16,4.16,0,0,0-.81,2.56c0,1,0,2,0,3h-1.39Z"></path><path d="M233.56,140h1.38v10.56h-1.38c0-.37,0-.74,0-1.1a2.31,2.31,0,0,1-3.56.72,4.33,4.33,0,0,1-1-3.11,5,5,0,0,1,.95-3.29,2.28,2.28,0,0,1,3.61.47C233.54,142.84,233.57,141.42,233.56,140Zm-2.13,4.32a2.68,2.68,0,0,0-.86,2.23,4.41,4.41,0,0,0,.54,2.7,1.2,1.2,0,0,0,2-.29,4.66,4.66,0,0,0,.13-3.93A1.29,1.29,0,0,0,231.43,144.33Z"></path><path d="M237.3,141.58V140H239v1.57Z"></path><path d="M249.23,140h1.38v10.56h-1.38Z"></path><path d="M203.92,144.74a2.46,2.46,0,0,1,2.29-1.66v1.51a2.09,2.09,0,0,0-2.12,1.58,25.8,25.8,0,0,0-.16,4.4h-1.38v-7.3h1.38C203.93,143.76,203.93,144.25,203.92,144.74Z"></path><path d="M196.18,144.36a2.33,2.33,0,0,1,3.4-.83,3.93,3.93,0,0,1,1.15,3,5.09,5.09,0,0,1-1,3.52,2.28,2.28,0,0,1-3.59-.47c0,1.41,0,2.82,0,4.24h-1.38V143.27h1.38C196.19,143.63,196.19,144,196.18,144.36Zm1.14-.08a2.23,2.23,0,0,0-1,1.72,4.77,4.77,0,0,0,.34,3,1.26,1.26,0,0,0,1.81.49,2.68,2.68,0,0,0,.74-2,5.29,5.29,0,0,0-.35-2.59A1.18,1.18,0,0,0,197.32,144.28Z"></path><path d="M208.39,143.53a3.88,3.88,0,0,1,2.93-.26,1.94,1.94,0,0,1,1.28,1.91c0,1.79,0,3.59,0,5.39h-1.38c0-.3,0-.6,0-.89a2.31,2.31,0,0,1-3.46.51,2.1,2.1,0,0,1,.21-3,5.53,5.53,0,0,1,3.24-.82c0-.64.19-1.44-.35-1.93a1.21,1.21,0,0,0-2,.86h-1.44A2.08,2.08,0,0,1,208.39,143.53Zm.64,4.53c-.48.53-.18,1.65.62,1.6a2.09,2.09,0,0,0,1.59-2.36A2.85,2.85,0,0,0,209,148.06Z"></path><path d="M216,143.4a3.47,3.47,0,0,1,3.18.17,2.54,2.54,0,0,1,.93,2.1h-1.59a1.93,1.93,0,0,0-.41-1.22,1.19,1.19,0,0,0-1.63.14,2.87,2.87,0,0,0-.57,1.95,3.21,3.21,0,0,0,1.18,2.63,3.68,3.68,0,0,0,2.87.36c0,.32,0,.63,0,.95-1.36.33-3,.51-4.16-.38a4.4,4.4,0,0,1-1.41-3.89A3.19,3.19,0,0,1,216,143.4Z"></path><path d="M237.43,143.27h1.4v7.3h-1.4Z"></path><path d="M242.7,144.37a2.35,2.35,0,0,1,3.25-1,3.6,3.6,0,0,1,1.3,3,5.31,5.31,0,0,1-.92,3.67,2.28,2.28,0,0,1-3.63-.46c0,1.42,0,2.84,0,4.26h-1.38V143.27h1.39C242.71,143.64,242.71,144,242.7,144.37Zm1.22-.12a2,2,0,0,0-1.07,1.57,4.81,4.81,0,0,0,.28,3.11,1.27,1.27,0,0,0,1.75.57,2.39,2.39,0,0,0,.81-1.89,5.66,5.66,0,0,0-.33-2.74A1.21,1.21,0,0,0,243.92,144.25Z"></path><path d="M254.56,143.31a3.26,3.26,0,0,1,4,1.29,5.7,5.7,0,0,1,.07,4.51c-.95,2.17-4.56,2.21-5.58.09a5.88,5.88,0,0,1-.34-3.54A3,3,0,0,1,254.56,143.31Zm.67,1a2.2,2.2,0,0,0-1.06,2.07,4.56,4.56,0,0,0,.45,2.7,1.51,1.51,0,0,0,2.47-.08,4.4,4.4,0,0,0,.42-2.24,3.26,3.26,0,0,0-.58-2.09A1.57,1.57,0,0,0,255.23,144.29Z"></path><path d="M260.88,143.27h1.39c0,.5,0,1,0,1.49a2.24,2.24,0,0,1,2.12-1.65,1.8,1.8,0,0,1,1.84,1.51,2.81,2.81,0,0,1,.8-1.09,2,2,0,0,1,2.71.17,3,3,0,0,1,.54,2c0,1.63,0,3.26,0,4.9h-1.38c0-1.51,0-3,0-4.52a2.49,2.49,0,0,0-.27-1.27,1,1,0,0,0-1.51.07,3.69,3.69,0,0,0-.84,2.41v3.31h-1.38c0-1.58,0-3.16,0-4.73,0-.47,0-1.12-.57-1.3a1.3,1.3,0,0,0-1.55.89c-.76,1.61-.38,3.43-.47,5.14h-1.39Z"></path><path d="M189.81,157.9c.35,0,.7,0,1.06,0v8H189.8l0-.78a1.76,1.76,0,0,1-3,.07,4.73,4.73,0,0,1,.09-4.12,1.73,1.73,0,0,1,2.94,0C189.79,160,189.82,159,189.81,157.9Zm-1.46,3.2c-.6.23-.73,1-.78,1.51a3.9,3.9,0,0,0,.32,2.16.88.88,0,0,0,1.48,0,3.43,3.43,0,0,0,.23-2.92A1,1,0,0,0,188.35,161.1Z"></path><path d="M205.2,157.9c.39,0,.78,0,1.17,0v3.54c.91-1.18,1.8-2.37,2.7-3.54.47,0,.94,0,1.41,0l-2.92,3.8,3.16,4.17H209.3L206.37,162v3.87H205.2Z"></path><path d="M217.75,157.9c.35,0,.7,0,1.06,0v8h-1.06Z"></path><path d="M244,157.9c.42,0,.84,0,1.26,0v1.19H244Z"></path><path d="M253,157.9c.41,0,.83,0,1.25,0v1.19H253Z"></path><path d="M273.55,157.9q.52,0,1.05,0c0,1.54,0,3.09,0,4.64l1.89-2.17h1.33l-2,2.4,2.23,3.1h-1.33L274.6,163c0,.95,0,1.9,0,2.85h-1Z"></path><path d="M291.76,158.24a3.42,3.42,0,0,1,2.68-.4c0,.29,0,.59,0,.88-.58-.08-1.25-.31-1.77.07s-.4,1-.43,1.58h1.65v.82h-1.64v4.68h-1v-4.68h-1v-.82h1A2.63,2.63,0,0,1,291.76,158.24Z"></path><path d="M221.12,159.07l1.06-.66v2h1.51v.82h-1.51c0,.95,0,1.91,0,2.86a1.3,1.3,0,0,0,.26.94c.33.27.79.14,1.18.14,0,.26,0,.53,0,.8-.84.12-2.18.21-2.44-.85-.11-1.29,0-2.59,0-3.89h-1v-.82h1C221.11,159.93,221.12,159.51,221.12,159.07Z"></path><path d="M260.83,159.07l1-.65v2h1.53v.82h-1.53c0,1.12-.06,2.25.05,3.37.08.68.88.64,1.39.56v.81c-.85.12-2.19.21-2.44-.86-.1-1.29,0-2.59,0-3.88h-1v-.82h1C260.82,159.93,260.82,159.5,260.83,159.07Z"></path><path d="M270.7,161.42a2,2,0,0,1,1.71-1.22c0,.38,0,.76,0,1.14a1.65,1.65,0,0,0-1.6,1.17,19.81,19.81,0,0,0-.12,3.36h-1.06v-5.5h1.06C270.71,160.72,270.71,161.06,270.7,161.42Z"></path><path d="M301.1,161.46a2,2,0,0,1,1.73-1.26c0,.38,0,.76,0,1.15a1.59,1.59,0,0,0-1.57,1.1,16.25,16.25,0,0,0-.16,3.42h-1v-5.5h1.05C301.12,160.73,301.12,161.1,301.1,161.46Z"></path><path d="M192.56,161.24a2.23,2.23,0,0,1,3.06-.68,2.45,2.45,0,0,1,.84,2.16h-3.23a2.65,2.65,0,0,0,1.08,2.19,2.53,2.53,0,0,0,2,.09c0,.27,0,.54,0,.82a4.11,4.11,0,0,1-2.79-.13,2.56,2.56,0,0,1-1.25-1.92A4.07,4.07,0,0,1,192.56,161.24Zm.69.76c.73,0,1.46,0,2.19,0a1.07,1.07,0,0,0-1-.95A1.19,1.19,0,0,0,193.25,162Z"></path><path d="M198.81,161.45a2,2,0,0,1,1.73-1.25c0,.38,0,.76,0,1.14a1.63,1.63,0,0,0-1.59,1.12,17.67,17.67,0,0,0-.14,3.41h-1.06v-5.5h1.06C198.83,160.73,198.83,161.09,198.81,161.45Z"></path><path d="M211.52,160.37h1.06c0,1.16,0,2.32,0,3.48,0,.37,0,.87.41,1a1.19,1.19,0,0,0,1.38-.68c.65-1.18.31-2.57.4-3.84h1.05v5.5h-1.06c0-.38,0-.76,0-1.15a1.89,1.89,0,0,1-2.12,1.25,1.53,1.53,0,0,1-1.12-1.6C211.5,163,211.53,161.7,211.52,160.37Z"></path><path d="M224.72,160.37h1c0,1.2,0,2.4,0,3.61,0,.35.07.82.47.92a1.22,1.22,0,0,0,1.36-.75c.61-1.17.27-2.53.36-3.78H229v5.5H228c0-.38,0-.76,0-1.14A1.88,1.88,0,0,1,226,166a1.45,1.45,0,0,1-1.31-1.5C224.7,163.12,224.73,161.74,224.72,160.37Z"></path><path d="M231,160.61a3.27,3.27,0,0,1,2.62-.19c0,.32,0,.63,0,1-.62-.23-1.39-.52-2-.07a.45.45,0,0,0,0,.71c.57.51,1.36.71,1.9,1.27a1.57,1.57,0,0,1-.31,2.44,4.14,4.14,0,0,1-2.8.07v-.92a3.08,3.08,0,0,0,2.13.16.58.58,0,0,0,.19-.95c-.59-.56-1.44-.76-2-1.4A1.4,1.4,0,0,1,231,160.61Z"></path><path d="M236.18,161.45a1.78,1.78,0,0,1,1.36-1.2,1.42,1.42,0,0,1,1.64,1.1,1.69,1.69,0,0,1,1.87-1.09,1.48,1.48,0,0,1,1.16,1.55c0,1.35,0,2.7,0,4.06h-1.06c0-1.25,0-2.5,0-3.75,0-.37-.17-.82-.6-.83-.79-.06-1.13.83-1.28,1.46-.13,1,0,2.08-.06,3.12h-1.06c0-1.2,0-2.41,0-3.61,0-.35,0-.82-.44-.94a1,1,0,0,0-1.16.67c-.58,1.21-.28,2.59-.35,3.88h-1v-5.5h1C236.19,160.73,236.19,161.09,236.18,161.45Z"></path><path d="M244.05,160.37h1v5.5h-1Z"></path><path d="M248.93,160.44a1.63,1.63,0,0,1,1.88.19,2.28,2.28,0,0,1,.47,1.63c0,1.2,0,2.41,0,3.61h-1.06c0-1.27,0-2.54,0-3.81,0-.37-.23-.8-.66-.77-.82,0-1.25.83-1.42,1.51a19.65,19.65,0,0,0-.09,3.07H247v-5.5H248c0,.39,0,.79,0,1.18A2.44,2.44,0,0,1,248.93,160.44Z"></path><path d="M253.13,160.37h1v5.5h-1Z"></path><path d="M256.29,160.55a3.45,3.45,0,0,1,2.55-.13v1c-.62-.23-1.39-.52-2-.07a.44.44,0,0,0,0,.71c.59.54,1.43.73,2,1.35a1.57,1.57,0,0,1-.36,2.35,4.17,4.17,0,0,1-2.83.08v-.92a3.08,3.08,0,0,0,2.15.16.58.58,0,0,0,.18-.94c-.61-.59-1.51-.79-2-1.47A1.41,1.41,0,0,1,256.29,160.55Z"></path><path d="M264.42,161.28a2.21,2.21,0,0,1,3.27-.57,2.68,2.68,0,0,1,.65,2h-3.23a2.77,2.77,0,0,0,.95,2.1,2.4,2.4,0,0,0,2.14.17c0,.27,0,.55,0,.82a4.05,4.05,0,0,1-2.79-.14,2.58,2.58,0,0,1-1.25-2A4,4,0,0,1,264.42,161.28Zm.71.72q1.1,0,2.19,0c-.11-.41-.35-.86-.82-.92A1.19,1.19,0,0,0,265.13,162Z"></path><path d="M280,160.41a2.58,2.58,0,0,1,2.82.57,3.71,3.71,0,0,1,.59,2.72,2.43,2.43,0,0,1-1.37,2.12,2.59,2.59,0,0,1-2.92-.65,4,4,0,0,1-.49-2.88A2.28,2.28,0,0,1,280,160.41Zm.55.73a1.58,1.58,0,0,0-.79,1.47,3.61,3.61,0,0,0,.28,2,1.15,1.15,0,0,0,1.86.12,3.14,3.14,0,0,0,.38-1.78,2.56,2.56,0,0,0-.43-1.56A1.17,1.17,0,0,0,280.52,161.14Z"></path><path d="M284.75,160.37h1.06c0,.39,0,.78,0,1.17a2.56,2.56,0,0,1,.9-1.1,1.66,1.66,0,0,1,1.93.21,2.1,2.1,0,0,1,.42,1.42v3.8h-1c0-1.21,0-2.42,0-3.62,0-.36-.07-.84-.49-.94a1.2,1.2,0,0,0-1.3.71c-.65,1.18-.31,2.57-.39,3.85h-1.06Z"></path><path d="M294.88,161.2a2.24,2.24,0,0,1,3-.67,2.37,2.37,0,0,1,.87,2.19h-3.22a2.74,2.74,0,0,0,1,2.14,2.4,2.4,0,0,0,2.08.12v.83a4.08,4.08,0,0,1-2.84-.16,2.61,2.61,0,0,1-1.21-2A4,4,0,0,1,294.88,161.2Zm.68.81c.72,0,1.46,0,2.18,0a1.07,1.07,0,0,0-1.07-.94A1.18,1.18,0,0,0,295.56,162Z"></path><path d="M303.88,161.32a2.21,2.21,0,0,1,3.23-.67,2.56,2.56,0,0,1,.71,2.07h-3.23a2.72,2.72,0,0,0,1,2.14,2.45,2.45,0,0,0,2.1.14c0,.27,0,.54,0,.82a4.08,4.08,0,0,1-2.78-.13,2.54,2.54,0,0,1-1.25-1.88A4.16,4.16,0,0,1,303.88,161.32Zm.74.68c.72,0,1.45,0,2.18,0a1.06,1.06,0,0,0-1.26-.93C305,161.13,304.78,161.59,304.62,162Z"></path><path d="M311.09,160.44a1.59,1.59,0,0,1,2,.28,2.07,2.07,0,0,1,.37,1.35v3.8h-1c0-1.33.05-2.66-.05-4a.71.71,0,0,0-1-.56,2.13,2.13,0,0,0-1.11,1.73c-.1.93,0,1.87-.05,2.81h-1v-5.5h1.05c0,.39,0,.79,0,1.18A2.44,2.44,0,0,1,311.09,160.44Z"></path><path d="M314.72,160.37h3.76v.78l-2.66,3.9c.91,0,1.83,0,2.75,0v.82h-4.05c0-.37,0-.79.21-1.09.81-1.2,1.64-2.39,2.46-3.59h-2.47C314.71,160.91,314.71,160.64,314.72,160.37Z"></path></svg> 