<svg xmlns="http://www.w3.org/2000/svg" id="Layer_1" viewBox="0 0 450 200"> <defs> <style>.cls-1{fill:#c1001f;}.cls-2{fill:#ecd000;}</style> </defs> <title>logo-eda</title> <path d="M98.5,44.49a60.8,60.8,0,0,1,17.92-4c2.79.1,5.58.09,8.36,0a58.85,58.85,0,0,1,20.57,5.29,59.47,59.47,0,0,1,25.58,22.69,61.19,61.19,0,0,1,9,30.09,10.06,10.06,0,0,1-.07,1.45l0,.22a51,51,0,0,0-1.74-12.08,54.51,54.51,0,0,0-15-26,41.45,41.45,0,0,0-9.92-6.92,52.75,52.75,0,0,0-26.88-6,49,49,0,0,0-25.94,8.92l-.27.08A42.49,42.49,0,0,0,64.1,86a43,43,0,0,0-2.18,10.13,9,9,0,0,1,0-1.46A59.87,59.87,0,0,1,74,62.86,57.11,57.11,0,0,1,98.5,44.49Z"></path> <path d="M261.44,57.38a5.7,5.7,0,0,1,2.45.09c.11,4.8,0,9.61,0,14.42,0,1.75.06,3.51,0,5.26-.44.38-1.12.16-1.65.22-.32,0-1,.08-1-.43,0-6.33,0-12.66,0-19Z"></path> <path d="M268.18,57.35a9.56,9.56,0,0,1,2.52.06,3.27,3.27,0,0,1,.1,1c0,6.16,0,12.32,0,18.47,0,.6-.71.44-1.08.47s-1.17.16-1.54-.23c-.06-5.17,0-10.35,0-15.52C268.15,60.19,268.07,58.77,268.18,57.35Z"></path> <path d="M206.32,58.35a22.93,22.93,0,0,1,3.61-.12c2.28.06,4.57-.13,6.83.11,0,.65,0,1.3,0,2-2.55.14-5.12-.05-7.67.11,0,1.89-.06,3.78,0,5.67,2,.25,4.05,0,6.07.13a2.53,2.53,0,0,1,0,2c-2,.14-4-.05-6,.09-.16,2.22-.06,4.47-.05,6.7l.18.2c2.4.05,4.81,0,7.22,0a1.76,1.76,0,0,1,.81.14,10.54,10.54,0,0,1,0,1.89c-2.76.18-5.52,0-8.28.08a12.2,12.2,0,0,1-2.72-.13C206.33,70.93,206.29,64.64,206.32,58.35Z"></path> <path d="M306.06,59.39a5.5,5.5,0,0,1,2.62-.13c.08,1.23,0,2.45.05,3.68a32.31,32.31,0,0,1,4.46.17q0,.88,0,1.77c-1.46.36-3-.06-4.45.23-.06,2.86,0,5.72,0,8.58a1.71,1.71,0,0,0,1.73,1.78c1,.15,1.77-.52,2.71-.51a8.77,8.77,0,0,1,0,1.89,5,5,0,0,1-2.87.72,4.43,4.43,0,0,1-3.37-1.15A5.47,5.47,0,0,1,306,73c0-2.66,0-5.32,0-8a15.59,15.59,0,0,1-2.19-.1,5.32,5.32,0,0,1,0-1.84A8.28,8.28,0,0,1,306,63C306,61.77,305.91,60.57,306.06,59.39Z"></path> <path d="M247.32,64.58a5.92,5.92,0,0,1,4.51-1.79,5.72,5.72,0,0,1,4.8,1.95A7.84,7.84,0,0,1,258,70.27c-.24.35-.79.17-1.15.23-2.88,0-5.76-.05-8.64,0a4.64,4.64,0,0,0,1.72,4.16,6.25,6.25,0,0,0,5.23.46c.73-.18,1.36-.73,2.15-.65a4.68,4.68,0,0,1-.12,2.09,5.2,5.2,0,0,1-2.49.82c-2.33.31-4.94.24-6.92-1.21a6.61,6.61,0,0,1-2.38-5A8.66,8.66,0,0,1,247.32,64.58Zm2.76.54a3.74,3.74,0,0,0-2,3.37c2.36,0,4.72,0,7.09,0a4,4,0,0,0-.6-2.39A3.7,3.7,0,0,0,250.09,65.12Z"></path> <path d="M279.11,62.9a7.13,7.13,0,0,1,5.31,1c1.94,1.44,2.48,4.1,2.23,6.39-.09.36-.6.19-.87.26-3,0-5.91,0-8.87,0a4.45,4.45,0,0,0,1.72,4.19,6.24,6.24,0,0,0,5.24.43c.71-.19,1.34-.7,2.1-.64,0,.81.38,2.05-.62,2.41a12.2,12.2,0,0,1-4.8.63,6.51,6.51,0,0,1-5.5-2.89,9.71,9.71,0,0,1-.7-6.9A6.29,6.29,0,0,1,279.11,62.9ZM279,65a3.61,3.61,0,0,0-2.11,3.45c2.36,0,4.72,0,7.08,0a4.24,4.24,0,0,0-.59-2.34A3.69,3.69,0,0,0,279,65Z"></path> <path d="M292.64,63.57a30.18,30.18,0,0,1,3.1-.76c1.61-.12,3.43,0,4.67,1.17,1.07,1,1.22,2.6,1.24,4,0,3,0,5.94,0,8.91.07.38-.39.46-.66.45a5.87,5.87,0,0,1-1.93-.12c-.17-3.14,0-6.3-.09-9.45a2.77,2.77,0,0,0-1.2-2.53,4.94,4.94,0,0,0-4.37.09,1.34,1.34,0,0,0-.74,1.28c0,3.43,0,6.86,0,10.29.07.45-.43.42-.72.44a8.31,8.31,0,0,1-1.77-.07c-.26-.29-.13-.72-.17-1.07,0-4.37,0-8.74,0-13.11a5.84,5.84,0,0,1,2.29-.06Z"></path> <path d="M320.08,62.89a7.33,7.33,0,0,1,5.06.81,6.11,6.11,0,0,1,2.47,4.72,4.87,4.87,0,0,1-.07,2,4.56,4.56,0,0,1-1.47.12c-2.74,0-5.48,0-8.22,0a4.44,4.44,0,0,0,1.76,4.24,6.18,6.18,0,0,0,4.92.46c.7-.16,1.32-.55,2-.75l.34.18c0,.75.36,1.95-.58,2.26a12.11,12.11,0,0,1-5.68.56A6.07,6.07,0,0,1,316,74.58a9.78,9.78,0,0,1-.63-6.93A6.24,6.24,0,0,1,320.08,62.89Zm-.43,2.27a3.65,3.65,0,0,0-1.84,3.33q3.52,0,7,0a3.56,3.56,0,0,0-1.08-3A4,4,0,0,0,319.66,65.16Z"></path> <path d="M218.44,63.14A7.38,7.38,0,0,1,221,63c.29,0,.42.32.6.52,1,1.44,1.95,2.89,2.94,4.32,1.16-1.51,1.92-3.29,3.09-4.79a5.2,5.2,0,0,1,2,0c.42.08.23.59.06.84l-3.84,5.73c1.46,2.36,3.12,4.59,4.63,6.92.31.3.14.9-.33.82a9.9,9.9,0,0,1-2.22-.06c-1.36-1.73-2.47-3.66-3.78-5.43-1.24,1.72-2.18,3.65-3.41,5.37a6.29,6.29,0,0,1-2.28.1,1.36,1.36,0,0,1,.22-1c1.36-2.13,2.9-4.15,4.16-6.34-1.25-2.11-2.76-4-4.07-6.12A4.48,4.48,0,0,1,218.44,63.14Z"></path> <path d="M232.16,63.22c.14-.31.58-.21.85-.25h9.09c.3,0,.9,0,.87.44,0,.72.19,1.59-.34,2.18-2.59,3.2-5.24,6.36-7.8,9.59,2.76.22,5.54-.12,8.29.18a13.46,13.46,0,0,1,0,1.91c-1.62.18-3.25,0-4.87.09-2.1-.06-4.22.12-6.31-.09-.12-1-.37-2.29.42-3.11q2.83-3.42,5.63-6.87A24.13,24.13,0,0,0,239.72,65c-2.53-.15-5.09.16-7.61-.16A14.09,14.09,0,0,1,232.16,63.22Z"></path> <path d="M292.08,87.78a16.74,16.74,0,0,1,2.6,0c.14,2.13,0,4.27.09,6.39a8.17,8.17,0,0,1,6.52-.53,3.71,3.71,0,0,1,2.27,3,37.47,37.47,0,0,1,.18,4.68c-.05,2.14.12,4.29-.1,6.42-.84,0-1.81.27-2.55-.16-.17-3.21,0-6.43-.09-9.65a2.61,2.61,0,0,0-1.05-2.18,4.82,4.82,0,0,0-4-.19c-.54.19-1.16.57-1.16,1.22-.08,3.65.1,7.31-.09,11a17.82,17.82,0,0,1-2.57,0c-.17-2.89,0-5.79-.08-8.68C292.05,95.29,291.94,91.53,292.08,87.78Z"></path> <path d="M206.34,88.75a44.78,44.78,0,0,1,4.5-.1c2.33,0,4.79,0,6.93,1.1A8.57,8.57,0,0,1,222,96.11a11.75,11.75,0,0,1-1,7.22A7.68,7.68,0,0,1,216.7,107a18.31,18.31,0,0,1-6.77.78,34.11,34.11,0,0,1-3.58-.08C206.27,101.38,206.3,95.06,206.34,88.75Zm2.77,2.06c0,5-.1,9.91,0,14.86a22.16,22.16,0,0,0,5.3-.33,5.92,5.92,0,0,0,3.7-2.6,9.92,9.92,0,0,0,1-6.24,6,6,0,0,0-2.75-4.67C214.19,90.58,211.55,90.76,209.11,90.81Z"></path> <path d="M256.78,89.67c.84,0,1.88-.3,2.59.19.1,1.17,0,2.35.06,3.52,1.16,0,2.32,0,3.49,0a1.63,1.63,0,0,1,.92.17,4.42,4.42,0,0,1,0,1.84c-1.42.11-2.85,0-4.27.08l-.15.12c-.06,2.67,0,5.35,0,8a2.14,2.14,0,0,0,.95,2.12c1.17.52,2.35-.18,3.5-.39a4.32,4.32,0,0,1,0,1.89,3,3,0,0,1-1.8.68,6,6,0,0,1-3.85-.57,3.48,3.48,0,0,1-1.39-2.83c-.13-3,.09-6-.11-9a15.78,15.78,0,0,0-2.16-.13,9.76,9.76,0,0,1,0-1.87,9.34,9.34,0,0,1,2.2-.17C256.77,92.13,256.72,90.9,256.78,89.67Z"></path> <path d="M226.26,95.38a6,6,0,0,1,4.95-2.17,5.73,5.73,0,0,1,4.61,1.86,8,8,0,0,1,1.41,5.68,2,2,0,0,1-1,.18c-2.79,0-5.58,0-8.36,0-.36-.06-.5.32-.42.62a4.32,4.32,0,0,0,1.95,3.71,6.22,6.22,0,0,0,4.81.38,16.56,16.56,0,0,1,2.31-.76c0,.8.43,2-.5,2.43a11.06,11.06,0,0,1-3.87.69,8,8,0,0,1-5.44-1.61,6.94,6.94,0,0,1-2.07-5.06A8.76,8.76,0,0,1,226.26,95.38Zm3.09.17a3.82,3.82,0,0,0-2,3.33c2.36.11,4.72,0,7.09,0a4.23,4.23,0,0,0-.4-2.08C233.23,95.16,230.93,94.82,229.35,95.55Z"></path> <path d="M240.44,93.54a6.45,6.45,0,0,1,2.52-.09c.2,2.08,0,4.19.09,6.28a23.26,23.26,0,0,0,.2,4.55,2.33,2.33,0,0,0,2,1.6,5.25,5.25,0,0,0,3.67-.64,1.62,1.62,0,0,0,.48-1.41q0-4.91,0-9.83a.43.43,0,0,1,.41-.58,9.22,9.22,0,0,1,2.2,0c.13,3.6,0,7.21.05,10.82a30.92,30.92,0,0,1-.07,3.37,6.39,6.39,0,0,1-2.17.09l-.48-.55c-1.08.14-2.07.71-3.17.76a5.86,5.86,0,0,1-4.65-1.25c-1.09-1.11-1.14-2.78-1.13-4.24C240.42,99.48,240.32,96.51,240.44,93.54Z"></path> <path d="M267.9,94a6.75,6.75,0,0,1,4.5-.7,3.64,3.64,0,0,1,2.27,1,5.59,5.59,0,0,1,0,2c-.66,0-1.17-.41-1.74-.66a3.94,3.94,0,0,0-3.23-.07,1.43,1.43,0,0,0-.22,2.34c1.41,1.21,3.22,1.88,4.55,3.2a4.21,4.21,0,0,1,.5,4.83c-.87,1.52-2.72,2-4.35,2.06a6.53,6.53,0,0,1-4-1,8.23,8.23,0,0,1,0-2c.39-.39.87.08,1.27.24a4.46,4.46,0,0,0,4,.33,1.78,1.78,0,0,0,.23-2.89c-1.36-1.07-3-1.8-4.24-3A3.82,3.82,0,0,1,267.9,94Z"></path> <path d="M278.36,96.15a6.44,6.44,0,0,1,5-2.88,10.27,10.27,0,0,1,4.92.59c.94.4.45,1.65.51,2.45-.89.06-1.57-.63-2.4-.82a5.07,5.07,0,0,0-4.77.91,5.88,5.88,0,0,0-1.53,4.46,5.3,5.3,0,0,0,1.77,4.27,5.65,5.65,0,0,0,5.48.18c.46-.16.93-.63,1.43-.32.05.78.38,2-.55,2.34a10.91,10.91,0,0,1-5.57.53,6,6,0,0,1-5-4.22A9.7,9.7,0,0,1,278.36,96.15Z"></path> <path d="M311.63,93.38c2.08-.41,4.5-.22,6.1,1.34a7.49,7.49,0,0,1,1.8,5.48c0,.27-.06.77-.45.7-3,.07-6,0-9,0-.48-.06-.36.53-.36.82a4.18,4.18,0,0,0,2.35,3.72,7.1,7.1,0,0,0,5.79-.37c.29-.13.89-.43,1,.1a3.46,3.46,0,0,1-.13,1.8,6.58,6.58,0,0,1-3.39.93c-2.34.21-5-.14-6.71-1.92-1.79-2-1.94-4.93-1.48-7.46A6.4,6.4,0,0,1,311.63,93.38Zm0,2.12a3.67,3.67,0,0,0-2,3.41c2.35,0,4.71,0,7.06,0a3.72,3.72,0,0,0-.89-2.76A3.88,3.88,0,0,0,311.68,95.5Z"></path> <path d="M249.16,118.23a11.68,11.68,0,0,1,2.43,0c.32.19.19.62.23.93,0,6.33.06,12.66-.05,19a6,6,0,0,1-2.6-.07,10.35,10.35,0,0,1-.07-1.78q0-7.66,0-15.32C249.11,120,249.07,119.13,249.16,118.23Z"></path> <path d="M295.54,118.2a14.66,14.66,0,0,1,2.47,0c.25.32.14.77.18,1.15,0,6.2.06,12.41,0,18.61-.66.44-1.56.16-2.31.19l-.3-.56c-.92.18-1.78.65-2.72.75a6.75,6.75,0,0,1-5.78-1.74,7.88,7.88,0,0,1-1.81-5.61,6.79,6.79,0,0,1,10.23-6.56C295.53,122.36,295.37,120.27,295.54,118.2Zm-4.45,7.67a3.79,3.79,0,0,0-2.49,2.19,8.77,8.77,0,0,0-.31,5.22,3.84,3.84,0,0,0,2.71,2.88,5.15,5.15,0,0,0,3.85-.36,1.39,1.39,0,0,0,.62-1.36c0-2.37,0-4.74,0-7.11a1.29,1.29,0,0,0-.72-1.18A5.15,5.15,0,0,0,291.08,125.87Z"></path> <path d="M338.32,118.21a15.67,15.67,0,0,1,2.45,0c.14,2.13-.11,4.28.14,6.41a8.69,8.69,0,0,1,3.74-1,5,5,0,0,1,4.31,1.65c.94,1.32.84,3,.85,4.58,0,2.44,0,4.88,0,7.32,0,.32.06.69-.16,1a6,6,0,0,1-2.45-.08c-.15-3.11,0-6.24-.07-9.36a3,3,0,0,0-1-2.45,4.68,4.68,0,0,0-3.9-.36c-.67.19-1.47.63-1.44,1.44-.07,3.6,0,7.21-.05,10.81a10.63,10.63,0,0,1-2.48,0,5.12,5.12,0,0,1-.14-1.88c0-5.71,0-11.41,0-17.12A1.44,1.44,0,0,1,338.32,118.21Z"></path> <path d="M369.6,118.21a13.8,13.8,0,0,1,2.46,0,1.5,1.5,0,0,1,.17.92q0,9,0,18a1.91,1.91,0,0,1-.15,1,9.92,9.92,0,0,1-2.5,0C369.56,131.49,369.54,124.85,369.6,118.21Z"></path> <path d="M210.27,119.9c.15-.39.33-.89.79-1a18.48,18.48,0,0,1,2.71,0c.44.17.55.68.72,1.08q2.66,8,5.35,16.06a10.74,10.74,0,0,1,.57,2,7.38,7.38,0,0,1-2.91-.08c-.81-2.14-1.36-4.38-2.14-6.54-.1-.37-.59-.22-.87-.27-1.89,0-3.79-.06-5.67.05-.88,2.22-1.47,4.56-2.33,6.79a5,5,0,0,1-2.41,0,12.72,12.72,0,0,1,.73-2.45Q207.53,127.76,210.27,119.9Zm.87,4.08c-.57,1.77-1.21,3.51-1.71,5.3,1.75,0,3.5,0,5.24,0-.81-2.68-1.63-5.36-2.54-8A18.53,18.53,0,0,0,211.14,124Z"></path> <path d="M238.92,124.41a6.59,6.59,0,0,1,4.3-.72,4.21,4.21,0,0,1,2.45,1,12,12,0,0,1,0,2.07,2.47,2.47,0,0,1-1.35-.46,4,4,0,0,0-3.74-.21,1.45,1.45,0,0,0-.16,2.27,22.79,22.79,0,0,0,2.44,1.64c1.19.74,2.54,1.54,3,3a4.32,4.32,0,0,1-.79,4,7,7,0,0,1-7.82.5,5,5,0,0,1-.07-2.14c.87-.12,1.5.63,2.3.82a4.46,4.46,0,0,0,3.05-.15,1.77,1.77,0,0,0,.31-2.75c-1.57-1.4-3.78-2.09-5-3.91A3.82,3.82,0,0,1,238.92,124.41Z"></path> <path d="M257,124.31a13.39,13.39,0,0,1,5.42-.64,4.56,4.56,0,0,1,3.13,1.25,4.23,4.23,0,0,1,.81,2.88c0,3.44,0,6.89,0,10.33a8.13,8.13,0,0,1-2.28,0l-.3-.55a11.2,11.2,0,0,1-4.68.81,4,4,0,0,1-3.67-2.16,4.35,4.35,0,0,1,.92-4.77c2.11-1.68,5-1.74,7.3-3a3.19,3.19,0,0,0-.14-2,2.23,2.23,0,0,0-1.72-.79,7.83,7.83,0,0,0-4.42.84,2.35,2.35,0,0,1-1.17.33,8.88,8.88,0,0,1,0-2A1.58,1.58,0,0,1,257,124.31Zm3.28,7.47a3.58,3.58,0,0,0-2.1,1.34,2.15,2.15,0,0,0,.8,3,5.36,5.36,0,0,0,3.37,0c.57-.2,1.33-.51,1.32-1.24q0-2.1,0-4.21C262.54,131,261.43,131.41,260.3,131.78Z"></path> <path d="M273.11,124.38c.86,0,1.61-.53,2.46-.62,1.78-.26,3.86-.22,5.27,1.07,1.08,1,1.21,2.53,1.26,3.9,0,2.66,0,5.32,0,8-.05.46.12,1-.17,1.4a8.64,8.64,0,0,1-2.49,0c-.14-2.75,0-5.5-.06-8.25,0-1.14.14-2.48-.68-3.39a4.34,4.34,0,0,0-4-.64c-.64.2-1.48.49-1.56,1.27-.1,3.65.07,7.31-.08,11a6.38,6.38,0,0,1-2.59,0c0-4.73,0-9.47,0-14.2C271.35,123.88,272.56,123.44,273.11,124.38Z"></path> <path d="M302.91,124.54a5.24,5.24,0,0,1,3.25-.9,6,6,0,0,1,3.51.84c.44.65.17,1.54.16,2.28-.93-.06-1.62-.78-2.51-1a3.69,3.69,0,0,0-2.64.3,1.46,1.46,0,0,0,0,2.31c1.43,1.16,3.22,1.84,4.52,3.18a4.13,4.13,0,0,1-.13,5.53,6.27,6.27,0,0,1-4.93,1.25,4.73,4.73,0,0,1-2.79-1,8.58,8.58,0,0,1,0-2.13c.95,0,1.63.77,2.54.94a4.34,4.34,0,0,0,2.87-.27,1.78,1.78,0,0,0,.17-2.78c-1.57-1.32-3.65-2-4.87-3.75A3.88,3.88,0,0,1,302.91,124.54Z"></path> <path d="M314.54,124.12a7.52,7.52,0,0,1,5.63.08c1.06.36.55,1.66.62,2.49-.68.13-1.19-.39-1.77-.63a3.93,3.93,0,0,0-3.28,0,1.43,1.43,0,0,0-.19,2.32c1.35,1.11,3,1.81,4.33,3a4.1,4.1,0,0,1-.43,6.27,7.6,7.6,0,0,1-5.36.65,3.29,3.29,0,0,1-1.81-.85,4.61,4.61,0,0,1,0-2c.43-.27.84.1,1.22.28a4.58,4.58,0,0,0,4,.39,1.77,1.77,0,0,0,.32-2.91c-1.38-1.15-3.1-1.85-4.37-3.14A3.76,3.76,0,0,1,314.54,124.12Z"></path> <path d="M324.72,126.21a6.64,6.64,0,0,1,5-2.55,10.23,10.23,0,0,1,4.63.62c.9.45.48,1.63.49,2.43-.82.08-1.45-.53-2.19-.74a5.08,5.08,0,0,0-5,.88,6,6,0,0,0-1.49,4.39,5.65,5.65,0,0,0,1.51,4.08,5.22,5.22,0,0,0,4.82.75c.82-.17,1.5-.87,2.38-.74a9.2,9.2,0,0,1,0,2,7.13,7.13,0,0,1-3.8,1,7.85,7.85,0,0,1-5.2-1.27,6.33,6.33,0,0,1-2.43-4.41A9.08,9.08,0,0,1,324.72,126.21Z"></path> <path d="M376.49,126.81a5.94,5.94,0,0,1,4.4-3.11,7,7,0,0,1,4.92,1,6.24,6.24,0,0,1,2.33,4.59v2c-3.25.16-6.53-.08-9.77.13a4.54,4.54,0,0,0,1.17,3.68,5.31,5.31,0,0,0,4.77,1.13,29.76,29.76,0,0,0,3-.95,3.29,3.29,0,0,1,.12,2,3.32,3.32,0,0,1-2,.88c-2.37.39-5,.44-7.11-.86a6.06,6.06,0,0,1-2.68-4.52A10.1,10.1,0,0,1,376.49,126.81Zm4-1a3.52,3.52,0,0,0-2.18,3.5c2.35,0,4.69,0,7,0a4,4,0,0,0-.63-2.43A3.71,3.71,0,0,0,380.51,125.86Z"></path> <path d="M222.36,123.9a7.36,7.36,0,0,1,2.53,0,2,2,0,0,1,.1.7c0,2.81,0,5.62,0,8.43,0,.94.07,2.06.88,2.7a4.69,4.69,0,0,0,3.73.47c.72-.19,1.68-.53,1.71-1.43.07-3.63-.05-7.26.06-10.89a9.6,9.6,0,0,1,2.6,0q0,7.11,0,14.23a17,17,0,0,1-2.34.06l-.21-.61a25.2,25.2,0,0,1-3.63.82c-1.57.06-3.41-.17-4.48-1.46a5.81,5.81,0,0,1-1-3.87C222.35,130,222.29,127,222.36,123.9Z"></path> <path d="M353.75,123.91a6.56,6.56,0,0,1,2.62.05c0,3.11,0,6.22,0,9.33a2.83,2.83,0,0,0,1.19,2.68,5.24,5.24,0,0,0,4.2,0,1.36,1.36,0,0,0,.93-1.28c0-3.58,0-7.17,0-10.75a9.6,9.6,0,0,1,2.6,0c.1,2.52,0,5,0,7.57,0,2.23.05,4.46,0,6.68a15,15,0,0,1-2.31,0c0-.85-.9-.48-1.39-.31a7.58,7.58,0,0,1-6-.13,4.29,4.29,0,0,1-1.9-4C353.73,130.48,353.68,127.19,353.75,123.91Z"></path> <path class="cls-1" d="M100.17,58.21l.27-.08a39.19,39.19,0,0,1,23.17,5.58,43.3,43.3,0,0,1,15.91,16.84A40.19,40.19,0,0,1,144.18,102a41.75,41.75,0,0,1-8.58,22.55A42.5,42.5,0,0,1,120.4,137a39.68,39.68,0,0,1-20,3.92l-.36-.06a48.82,48.82,0,0,1-8.61-7.32A48.27,48.27,0,0,1,79.8,110.27a55.23,55.23,0,0,1,.11-22A48.13,48.13,0,0,1,91.83,64.92,40.14,40.14,0,0,1,100.17,58.21Z"></path> <path class="cls-2" d="M179.88,100.29l0-.22a26.51,26.51,0,0,1-.14,4.92,58.93,58.93,0,0,1-9.2,26.49,61.83,61.83,0,0,1-36.28,26.17,57.34,57.34,0,0,1-31.86-.9,58.25,58.25,0,0,1-25.56-16.69,59.77,59.77,0,0,1-14.67-31.85,16.35,16.35,0,0,1-.25-4.2,39.11,39.11,0,0,0,6.59,18.42,44.15,44.15,0,0,0,18.89,15.43,34.23,34.23,0,0,0,12.63,3l.36.06a18.73,18.73,0,0,0,5.09,3.79,45.94,45.94,0,0,0,14.48,4.6A56.13,56.13,0,0,0,149.8,146a41.63,41.63,0,0,0,8.4-4.59,45,45,0,0,0,8.07-7.63A61.08,61.08,0,0,0,178,111.52,46.55,46.55,0,0,0,179.88,100.29Z"></path> </svg>