<?xml version="1.0" encoding="UTF-8"?> <svg xmlns="http://www.w3.org/2000/svg" xmlns:xlink="http://www.w3.org/1999/xlink" id="Layer_1" data-name="Layer 1" viewBox="0 0 450 200"><defs><style>.cls-1,.cls-7{fill:none;}.cls-2{clip-path:url(#clip-path);}.cls-3,.cls-6{fill:#231f20;}.cls-3,.cls-4,.cls-5{fill-rule:evenodd;}.cls-4{fill:#f5ce00;}.cls-5{fill:#ed1c24;}.cls-7{stroke:#231f20;stroke-width:0.13px;}</style><clipPath id="clip-path"><rect class="cls-1" x="58.55" y="26.82" width="332.89" height="146.36"></rect></clipPath></defs><title>logo-zfa</title><g class="cls-2"><path class="cls-3" d="M166.53,84.67C152.26,90,134,101.5,126.15,117.82h54.44C195.22,98.2,218.88,81.4,218.88,81.4s-24.43-7.08-52.35,3.27"></path><path class="cls-4" d="M312.67,60.21c-61.5-4.06-91.06,20.86-91.06,20.86C256.49,91.69,270.36,118,270.36,118l121.08,0C367.83,81.1,339,64.83,312.67,60.21"></path><path class="cls-5" d="M137.56,98.54c39.71-34.28,82.24-21.22,82.24-21.22,35.85-26.33,91.31-21,91.31-21C200.76,26.82,137.56,98.54,137.56,98.54"></path><polygon class="cls-6" points="80.11 91.54 65.14 114.59 80.44 114.59 80.44 117.95 61.58 117.95 61.58 113.59 76.25 91.12 76.25 91.04 62.08 91.04 62.08 87.68 80.11 87.68 80.11 91.54"></polygon><polygon class="cls-7" points="80.11 91.54 65.14 114.59 80.44 114.59 80.44 117.95 61.58 117.95 61.58 113.59 76.25 91.12 76.25 91.04 62.08 91.04 62.08 87.68 80.11 87.68 80.11 91.54"></polygon><path class="cls-6" d="M85.18,96.78V92.67a5.62,5.62,0,0,1,.52-2.6,4.21,4.21,0,0,1,1.37-1.57,4.79,4.79,0,0,1,2-.75,12.86,12.86,0,0,1,2.24-.19c.36,0,.66,0,.9,0a4.73,4.73,0,0,1,.73.1v2.48a7.46,7.46,0,0,0-2.22.12,2.89,2.89,0,0,0-1.3.65,2.15,2.15,0,0,0-.61,1,5.34,5.34,0,0,0-.14,1.21v3.61h4.27v2.6H88.62V118H85.18V99.38H81.91v-2.6Z"></path><path class="cls-7" d="M85.18,96.78V92.67a5.62,5.62,0,0,1,.52-2.6,4.21,4.21,0,0,1,1.37-1.57,4.79,4.79,0,0,1,2-.75,12.86,12.86,0,0,1,2.24-.19c.36,0,.66,0,.9,0a4.73,4.73,0,0,1,.73.1v2.48a7.46,7.46,0,0,0-2.22.12,2.89,2.89,0,0,0-1.3.65,2.15,2.15,0,0,0-.61,1,5.34,5.34,0,0,0-.14,1.21v3.61h4.27v2.6H88.62V118H85.18V99.38H81.91v-2.6Z"></path><path class="cls-6" d="M103.42,87.68h4.9L118.17,118h-4.32l-2.18-7.21H100L97.71,118h-3.9Zm2.34,3.57h-.08l-4.74,16.14h9.68Z"></path><path class="cls-7" d="M103.42,87.68h4.9L118.17,118h-4.32l-2.18-7.21H100L97.71,118h-3.9Zm2.34,3.57h-.08l-4.74,16.14h9.68Z"></path><path class="cls-6" d="M61.58,126.09h6a6.8,6.8,0,0,1,3.19.7,4.62,4.62,0,0,1,2,2.25,5.94,5.94,0,0,1,.47,1.55,17.5,17.5,0,0,1,.26,1.87c0,.63.09,1.19.11,1.69s0,.83,0,1a34.13,34.13,0,0,1-.29,5,7.52,7.52,0,0,1-.9,2.83,4.68,4.68,0,0,1-2.32,1.87,11.32,11.32,0,0,1-4.11.62H61.58Zm2.48,17.2h2.35a7.73,7.73,0,0,0,2.2-.27,2.88,2.88,0,0,0,1.46-.94,4.2,4.2,0,0,0,.81-1.78,12.75,12.75,0,0,0,.26-2.8v-3.91a7,7,0,0,0-.93-4.13,3.38,3.38,0,0,0-2.88-1.23H64.06Z"></path><path class="cls-6" d="M80,139.38a11.11,11.11,0,0,0,.19,2.3,3.55,3.55,0,0,0,.54,1.38,1.74,1.74,0,0,0,.86.67,3.77,3.77,0,0,0,1.16.17,2.26,2.26,0,0,0,1-.21,2.29,2.29,0,0,0,.73-.57,2.48,2.48,0,0,0,.46-.81,3.55,3.55,0,0,0,.19-1h2.43a4.09,4.09,0,0,1-1.31,3.32,5.27,5.27,0,0,1-3.44,1,8.76,8.76,0,0,1-2-.23,3.37,3.37,0,0,1-1.65-.95,5,5,0,0,1-1.1-2.07,12.7,12.7,0,0,1-.41-3.58,24.79,24.79,0,0,1,.15-2.8,6.09,6.09,0,0,1,.68-2.3A3.82,3.82,0,0,1,80,132.21a5.8,5.8,0,0,1,2.81-.57,6.14,6.14,0,0,1,2.4.4,3.26,3.26,0,0,1,1.49,1.22,5.22,5.22,0,0,1,.75,2.05,16.43,16.43,0,0,1,.22,2.91v1.16Zm5.32-1.66a11.14,11.14,0,0,0-.2-2.35,3.65,3.65,0,0,0-.56-1.34,1.55,1.55,0,0,0-.86-.6,4.32,4.32,0,0,0-1.11-.14,3,3,0,0,0-1,.17,1.73,1.73,0,0,0-.81.64,3.89,3.89,0,0,0-.56,1.35,9.39,9.39,0,0,0-.22,2.27Z"></path><path class="cls-6" d="M98.63,131.9h2.21v10.72c0,.46,0,.93,0,1.4s.06.94.1,1.41H98.63V143.8h-.08a3.69,3.69,0,0,1-1.46,1.42,4.25,4.25,0,0,1-2,.48,3.85,3.85,0,0,1-2.72-.87,3.35,3.35,0,0,1-1-2.62V131.9h2.21v9.4a3.19,3.19,0,0,0,.57,2A2,2,0,0,0,96,144a2.63,2.63,0,0,0,.92-.18,2.22,2.22,0,0,0,.87-.55,3,3,0,0,0,.63-1,3.62,3.62,0,0,0,.26-1.45Z"></path><path class="cls-6" d="M105.11,131.9v-2.59l2.21-1v3.59h3v1.66h-3v8.28c0,.21,0,.43,0,.67a1.29,1.29,0,0,0,.22.63,1.34,1.34,0,0,0,.6.47,3.08,3.08,0,0,0,1.18.19l.38,0,.62-.08v1.68c-.36,0-.73.08-1.1.14a8,8,0,0,1-1.09.08,3.56,3.56,0,0,1-2.32-.62,2.2,2.2,0,0,1-.73-1.79v-9.62h-2.24V131.9Z"></path><path class="cls-6" d="M121.18,141.57a4.47,4.47,0,0,1-.37,1.9,3.24,3.24,0,0,1-1,1.27,3.87,3.87,0,0,1-1.51.73,7.56,7.56,0,0,1-1.88.23,5.37,5.37,0,0,1-3.48-1,4,4,0,0,1-1.22-3.36h2.52a7.24,7.24,0,0,0,0,.74,2.29,2.29,0,0,0,.25.86,2,2,0,0,0,.68.71,2.42,2.42,0,0,0,1.29.29,2.71,2.71,0,0,0,1.68-.51,1.79,1.79,0,0,0,.67-1.55,1.31,1.31,0,0,0-.5-1,5.9,5.9,0,0,0-1.25-.83q-.76-.39-1.65-.78a10.1,10.1,0,0,1-1.65-.91,5,5,0,0,1-1.25-1.23,2.87,2.87,0,0,1-.5-1.73,4.07,4.07,0,0,1,.19-1.18A2.94,2.94,0,0,1,113,133a4.14,4.14,0,0,1,1.45-.94,6.24,6.24,0,0,1,2.35-.38,6.38,6.38,0,0,1,1.72.23,4.09,4.09,0,0,1,1.42.69,2.92,2.92,0,0,1,.94,1.19,3.66,3.66,0,0,1,.24,1.73h-2.46a2.08,2.08,0,0,0-.53-1.62,2.16,2.16,0,0,0-1.6-.56,2.33,2.33,0,0,0-1.5.48,1.59,1.59,0,0,0-.61,1.35,1.3,1.3,0,0,0,.5,1,6.09,6.09,0,0,0,1.26.8c.5.25,1.05.5,1.64.75a8.7,8.7,0,0,1,1.65.9,4.76,4.76,0,0,1,1.25,1.24,2.93,2.93,0,0,1,.51,1.74"></path><path class="cls-6" d="M131.54,136.24a4.34,4.34,0,0,0-.14-1.38,2.55,2.55,0,0,0-.46-.87,1.58,1.58,0,0,0-.62-.44,2,2,0,0,0-.67-.12,3.34,3.34,0,0,0-1.17.19,2,2,0,0,0-.91.68,3.72,3.72,0,0,0-.58,1.37,10.6,10.6,0,0,0-.2,2.26,27.37,27.37,0,0,0,.12,2.8,5.68,5.68,0,0,0,.45,1.83,2.13,2.13,0,0,0,.88,1,2.73,2.73,0,0,0,1.41.32,1.89,1.89,0,0,0,.55-.12,1.8,1.8,0,0,0,.67-.45,2.71,2.71,0,0,0,.55-.92,3.58,3.58,0,0,0,.2-1.48H134a5,5,0,0,1-.43,2.34,4.26,4.26,0,0,1-1.12,1.46,4,4,0,0,1-1.42.75,5.1,5.1,0,0,1-1.33.22,8.74,8.74,0,0,1-2-.23,3.37,3.37,0,0,1-1.65-.95,5,5,0,0,1-1.1-2.06,12.83,12.83,0,0,1-.41-3.59,24.79,24.79,0,0,1,.15-2.8,6.33,6.33,0,0,1,.67-2.3,3.78,3.78,0,0,1,1.56-1.56,5.78,5.78,0,0,1,2.8-.58,4.2,4.2,0,0,1,3.18,1.17,4.49,4.49,0,0,1,1,3.44Z"></path><path class="cls-6" d="M145.34,145.43v-9.16a5.83,5.83,0,0,0-.1-1.14,2.31,2.31,0,0,0-.4-.9,2.12,2.12,0,0,0-.75-.59,2.93,2.93,0,0,0-1.18-.21,2.67,2.67,0,0,0-1.37.31,2.16,2.16,0,0,0-.86.86,3.94,3.94,0,0,0-.43,1.28,9.88,9.88,0,0,0-.12,1.59v8h-2.21V126.09h2.21v7.55h.11a3.82,3.82,0,0,1,1.51-1.59,4.91,4.91,0,0,1,2.19-.42,3.63,3.63,0,0,1,2.69,1,4.6,4.6,0,0,1,.93,3.26v9.59Z"></path><path class="cls-6" d="M153.63,139.38a11.85,11.85,0,0,0,.19,2.3,3.89,3.89,0,0,0,.54,1.38,1.76,1.76,0,0,0,.87.67,3.77,3.77,0,0,0,1.16.17,2.26,2.26,0,0,0,1-.21,2.29,2.29,0,0,0,.73-.57,2.46,2.46,0,0,0,.45-.81,3.23,3.23,0,0,0,.2-1h2.43a4.1,4.1,0,0,1-1.32,3.32,5.25,5.25,0,0,1-3.44,1,8.68,8.68,0,0,1-2-.23,3.37,3.37,0,0,1-1.65-.95,4.94,4.94,0,0,1-1.11-2.07,12.75,12.75,0,0,1-.4-3.58,24.79,24.79,0,0,1,.15-2.8,6.08,6.08,0,0,1,.67-2.3,3.88,3.88,0,0,1,1.55-1.56,5.83,5.83,0,0,1,2.81-.57,6.19,6.19,0,0,1,2.41.4,3.23,3.23,0,0,1,1.48,1.22,5.38,5.38,0,0,1,.76,2.05,17.53,17.53,0,0,1,.21,2.91v1.16Zm5.32-1.66a10.5,10.5,0,0,0-.2-2.35,3.65,3.65,0,0,0-.55-1.34,1.57,1.57,0,0,0-.87-.6,4.3,4.3,0,0,0-1.1-.14,2.91,2.91,0,0,0-1,.17,1.64,1.64,0,0,0-.81.64,3.7,3.7,0,0,0-.57,1.35,9.93,9.93,0,0,0-.22,2.27Z"></path><path class="cls-6" d="M175.67,126.09h3.16l6.34,19.34h-2.78l-1.4-4.61h-7.54L172,145.43h-2.51Zm1.51,2.28h-.05l-3.06,10.31h6.24Z"></path><path class="cls-6" d="M194.84,131.9h2.21v10.72c0,.46,0,.93,0,1.4s.05.94.09,1.41h-2.35V143.8h-.08a3.69,3.69,0,0,1-1.46,1.42,4.25,4.25,0,0,1-2,.48,3.86,3.86,0,0,1-2.72-.87,3.35,3.35,0,0,1-1-2.62V131.9h2.21v9.4a3.25,3.25,0,0,0,.57,2,2.05,2.05,0,0,0,1.76.76,2.58,2.58,0,0,0,.91-.18,2.22,2.22,0,0,0,.87-.55,3.21,3.21,0,0,0,.64-1,3.81,3.81,0,0,0,.25-1.45Z"></path><path class="cls-6" d="M209.85,141.57a4.47,4.47,0,0,1-.36,1.9,3.33,3.33,0,0,1-1,1.27,3.94,3.94,0,0,1-1.51.73,7.56,7.56,0,0,1-1.88.23,5.33,5.33,0,0,1-3.48-1,4,4,0,0,1-1.22-3.36h2.51c0,.2,0,.45,0,.74a2.51,2.51,0,0,0,.26.86,2,2,0,0,0,.67.71,2.48,2.48,0,0,0,1.3.29,2.71,2.71,0,0,0,1.68-.51,1.79,1.79,0,0,0,.67-1.55,1.31,1.31,0,0,0-.5-1,5.9,5.9,0,0,0-1.25-.83q-.76-.39-1.65-.78a10.1,10.1,0,0,1-1.65-.91,5.27,5.27,0,0,1-1.26-1.23,2.94,2.94,0,0,1-.49-1.73,4.07,4.07,0,0,1,.19-1.18,2.94,2.94,0,0,1,.71-1.2,4.09,4.09,0,0,1,1.44-.94,7.08,7.08,0,0,1,4.08-.15,4.09,4.09,0,0,1,1.42.69,2.82,2.82,0,0,1,.93,1.19,3.54,3.54,0,0,1,.25,1.73h-2.46a2.08,2.08,0,0,0-.53-1.62,2.16,2.16,0,0,0-1.6-.56,2.33,2.33,0,0,0-1.5.48,1.59,1.59,0,0,0-.61,1.35,1.3,1.3,0,0,0,.5,1,6.09,6.09,0,0,0,1.26.8c.5.25,1.05.5,1.64.75a8.7,8.7,0,0,1,1.65.9,4.76,4.76,0,0,1,1.25,1.24,2.93,2.93,0,0,1,.5,1.74"></path><rect class="cls-6" x="213.04" y="126.09" width="2.21" height="19.34"></rect><path class="cls-6" d="M226.13,143.47h0a3.67,3.67,0,0,1-1.32,1.7,3.81,3.81,0,0,1-2.11.53,4.23,4.23,0,0,1-1.79-.34,2.92,2.92,0,0,1-1.15-.92,3.62,3.62,0,0,1-.61-1.41,9,9,0,0,1-.17-1.78,3.83,3.83,0,0,1,.67-2.4,3.93,3.93,0,0,1,1.73-1.27,7.71,7.71,0,0,1,2.32-.48c.85-.06,1.66-.07,2.43-.06,0-.44,0-.89,0-1.33a3.52,3.52,0,0,0-.24-1.21,1.91,1.91,0,0,0-.69-.87,2.35,2.35,0,0,0-1.36-.33,2.05,2.05,0,0,0-1.69.67,2.25,2.25,0,0,0-.45,1.74h-2.4a4,4,0,0,1,1.25-3.18,5.47,5.47,0,0,1,3.37-.9A6.08,6.08,0,0,1,226,132a3.29,3.29,0,0,1,1.35.87,3,3,0,0,1,.7,1.28,5.89,5.89,0,0,1,.21,1.6v6.5q0,.81.06,1.62c0,.55.12,1.08.2,1.6h-2.43Zm0-4.76c-.52,0-1.07,0-1.66,0a5.83,5.83,0,0,0-1.61.27,2.66,2.66,0,0,0-1.2.79,2.46,2.46,0,0,0-.47,1.62,3,3,0,0,0,.51,1.74,1.83,1.83,0,0,0,1.62.75,3.09,3.09,0,0,0,1-.2,2.15,2.15,0,0,0,.94-.76,4.32,4.32,0,0,0,.66-1.58,10,10,0,0,0,.16-2.65"></path><path class="cls-6" d="M240,145.43v-9.38a4.74,4.74,0,0,0-.1-1,2.28,2.28,0,0,0-.38-.85,1.84,1.84,0,0,0-.74-.56,3.16,3.16,0,0,0-1.18-.2,2.61,2.61,0,0,0-1.46.36,2.53,2.53,0,0,0-.84.94A4.23,4.23,0,0,0,235,136a11.09,11.09,0,0,0-.09,1.4v8h-2.22V134.71c0-.46,0-.93,0-1.4s0-.94-.09-1.41h2.35v1.74H235a3.77,3.77,0,0,1,1.48-1.57,5.46,5.46,0,0,1,4-.13,2.64,2.64,0,0,1,1.12.9,3.73,3.73,0,0,1,.57,1.41,9.87,9.87,0,0,1,.16,1.8v9.38Z"></path><path class="cls-6" d="M253.38,126.09h2.22v19.34h-2.22v-1.61h0a4.08,4.08,0,0,1-1.31,1.41,3.37,3.37,0,0,1-1.82.47,5.91,5.91,0,0,1-1.61-.23,3,3,0,0,1-1.42-.95,5.55,5.55,0,0,1-1-2.07,13.66,13.66,0,0,1-.37-3.56c0-.83,0-1.69.07-2.55a7.43,7.43,0,0,1,.52-2.35,3.87,3.87,0,0,1,1.35-1.7,4.42,4.42,0,0,1,2.57-.65,3.37,3.37,0,0,1,1.7.41,4.12,4.12,0,0,1,1.29,1.22h.08Zm0,12c0-.45,0-.94,0-1.49a5.47,5.47,0,0,0-.31-1.53,3,3,0,0,0-.77-1.19,2,2,0,0,0-1.43-.48,2.61,2.61,0,0,0-1.43.35,2.13,2.13,0,0,0-.83,1,6.41,6.41,0,0,0-.36,1.72c0,.67-.08,1.47-.08,2.38,0,.52,0,1.07,0,1.65a5.41,5.41,0,0,0,.31,1.6,3,3,0,0,0,.82,1.24,2.35,2.35,0,0,0,1.61.49,1.9,1.9,0,0,0,1.43-.52,3.05,3.05,0,0,0,.74-1.35,7.58,7.58,0,0,0,.27-1.86c0-.69,0-1.37,0-2"></path><path class="cls-6" d="M268.47,141.57a4.47,4.47,0,0,1-.36,1.9,3.24,3.24,0,0,1-1,1.27,3.87,3.87,0,0,1-1.51.73,7.48,7.48,0,0,1-1.87.23,5.38,5.38,0,0,1-3.49-1A4,4,0,0,1,259,141.3h2.52a7.24,7.24,0,0,0,0,.74,2.29,2.29,0,0,0,.25.86,2,2,0,0,0,.68.71,2.48,2.48,0,0,0,1.3.29,2.7,2.7,0,0,0,1.67-.51,1.8,1.8,0,0,0,.68-1.55,1.33,1.33,0,0,0-.51-1,5.9,5.9,0,0,0-1.25-.83c-.51-.26-1-.52-1.65-.78a9.24,9.24,0,0,1-1.64-.91,4.92,4.92,0,0,1-1.26-1.23,2.87,2.87,0,0,1-.5-1.73,4.07,4.07,0,0,1,.19-1.18,3.05,3.05,0,0,1,.71-1.2,4.14,4.14,0,0,1,1.45-.94,7,7,0,0,1,4.07-.15,4.14,4.14,0,0,1,1.43.69,3,3,0,0,1,.93,1.19,3.66,3.66,0,0,1,.24,1.73h-2.46a2.08,2.08,0,0,0-.53-1.62,2.15,2.15,0,0,0-1.6-.56,2.33,2.33,0,0,0-1.5.48,1.58,1.58,0,0,0-.6,1.35,1.32,1.32,0,0,0,.49,1,6.09,6.09,0,0,0,1.26.8c.5.25,1.05.5,1.64.75a9.11,9.11,0,0,1,1.66.9,4.72,4.72,0,0,1,1.24,1.24,2.93,2.93,0,0,1,.5,1.74"></path><path class="cls-6" d="M280.49,141.57a4.47,4.47,0,0,1-.36,1.9,3.33,3.33,0,0,1-1,1.27,3.87,3.87,0,0,1-1.51.73,7.56,7.56,0,0,1-1.88.23,5.33,5.33,0,0,1-3.48-1A4,4,0,0,1,271,141.3h2.51c0,.2,0,.45.05.74a2.29,2.29,0,0,0,.25.86,2,2,0,0,0,.67.71,2.48,2.48,0,0,0,1.3.29,2.71,2.71,0,0,0,1.68-.51,1.82,1.82,0,0,0,.67-1.55,1.31,1.31,0,0,0-.5-1,5.73,5.73,0,0,0-1.26-.83c-.5-.26-1.05-.52-1.64-.78a9.7,9.7,0,0,1-1.65-.91,5.27,5.27,0,0,1-1.26-1.23,2.94,2.94,0,0,1-.5-1.73,4.44,4.44,0,0,1,.19-1.18,3.08,3.08,0,0,1,.72-1.2,4.09,4.09,0,0,1,1.44-.94,6.33,6.33,0,0,1,2.36-.38,6.44,6.44,0,0,1,1.72.23,4.17,4.17,0,0,1,1.42.69,2.9,2.9,0,0,1,.93,1.19,3.43,3.43,0,0,1,.24,1.73h-2.45a2.12,2.12,0,0,0-.53-1.62,2.19,2.19,0,0,0-1.61-.56,2.32,2.32,0,0,0-1.49.48,1.59,1.59,0,0,0-.61,1.35,1.3,1.3,0,0,0,.5,1,6.28,6.28,0,0,0,1.25.8q.75.38,1.65.75a9.36,9.36,0,0,1,1.65.9,4.76,4.76,0,0,1,1.25,1.24,3,3,0,0,1,.5,1.74"></path><path class="cls-6" d="M290.86,136.24a4,4,0,0,0-.15-1.38,2.73,2.73,0,0,0-.45-.87,1.61,1.61,0,0,0-.63-.44,1.92,1.92,0,0,0-.66-.12,3.3,3.3,0,0,0-1.17.19,1.93,1.93,0,0,0-.91.68,3.56,3.56,0,0,0-.58,1.37,10.6,10.6,0,0,0-.2,2.26,27.37,27.37,0,0,0,.12,2.8,6,6,0,0,0,.44,1.83,2.18,2.18,0,0,0,.88,1,2.74,2.74,0,0,0,1.42.32,1.78,1.78,0,0,0,.54-.12,1.75,1.75,0,0,0,.68-.45,2.88,2.88,0,0,0,.55-.92,3.76,3.76,0,0,0,.2-1.48h2.32a4.92,4.92,0,0,1-.43,2.34,4,4,0,0,1-1.12,1.46,3.82,3.82,0,0,1-1.42.75,5,5,0,0,1-1.32.22,8.83,8.83,0,0,1-2-.23,3.34,3.34,0,0,1-1.64-.95,5,5,0,0,1-1.11-2.06,12.83,12.83,0,0,1-.41-3.59,24.79,24.79,0,0,1,.15-2.8,6.33,6.33,0,0,1,.68-2.3,3.88,3.88,0,0,1,1.55-1.56,5.82,5.82,0,0,1,2.81-.58,4.2,4.2,0,0,1,3.18,1.17,4.49,4.49,0,0,1,1,3.44Z"></path><path class="cls-6" d="M304.66,145.43v-9.16a5.8,5.8,0,0,0-.11-1.14,2.17,2.17,0,0,0-.39-.9,2.12,2.12,0,0,0-.75-.59,2.93,2.93,0,0,0-1.18-.21,2.71,2.71,0,0,0-1.38.31,2.2,2.2,0,0,0-.85.86,3.72,3.72,0,0,0-.43,1.28,9.88,9.88,0,0,0-.12,1.59v8h-2.21V126.09h2.21v7.55h.11a3.82,3.82,0,0,1,1.51-1.59,4.88,4.88,0,0,1,2.19-.42,3.63,3.63,0,0,1,2.69,1,4.65,4.65,0,0,1,.93,3.26v9.59Z"></path><path class="cls-6" d="M318.08,131.9h2.21v10.72c0,.46,0,.93,0,1.4s.05.94.09,1.41h-2.35V143.8H318a3.69,3.69,0,0,1-1.46,1.42,4.22,4.22,0,0,1-2,.48,3.88,3.88,0,0,1-2.72-.87,3.39,3.39,0,0,1-.95-2.62V131.9h2.21v9.4a3.13,3.13,0,0,0,.58,2,2,2,0,0,0,1.75.76,2.68,2.68,0,0,0,.92-.18,2.26,2.26,0,0,0,.86-.55,3.21,3.21,0,0,0,.64-1,3.63,3.63,0,0,0,.25-1.45Z"></path><rect class="cls-6" x="324.26" y="126.09" width="2.22" height="19.34"></rect><path class="cls-6" d="M337.36,143.47h-.05a3.68,3.68,0,0,1-1.33,1.7,3.8,3.8,0,0,1-2.1.53,4.28,4.28,0,0,1-1.8-.34,2.89,2.89,0,0,1-1.14-.92,3.78,3.78,0,0,1-.62-1.41,9,9,0,0,1-.17-1.78,3.76,3.76,0,0,1,.68-2.4,3.9,3.9,0,0,1,1.72-1.27,7.71,7.71,0,0,1,2.32-.48c.85-.06,1.66-.07,2.44-.06,0-.44,0-.89,0-1.33a3.77,3.77,0,0,0-.24-1.21,1.93,1.93,0,0,0-.7-.87,2.35,2.35,0,0,0-1.36-.33,2.07,2.07,0,0,0-1.69.67,2.21,2.21,0,0,0-.44,1.74h-2.4a4,4,0,0,1,1.25-3.18,5.44,5.44,0,0,1,3.36-.9,6.1,6.1,0,0,1,2.18.33,3.36,3.36,0,0,1,1.35.87,3.14,3.14,0,0,1,.7,1.28,6.32,6.32,0,0,1,.2,1.6v6.5c0,.54,0,1.08.07,1.62s.11,1.08.2,1.6h-2.43Zm-.05-4.76c-.53,0-1.08,0-1.67,0a5.76,5.76,0,0,0-1.6.27,2.56,2.56,0,0,0-1.2.79,2.41,2.41,0,0,0-.48,1.62,3,3,0,0,0,.52,1.74,1.82,1.82,0,0,0,1.62.75,3,3,0,0,0,1-.2,2.15,2.15,0,0,0,.94-.76,4.49,4.49,0,0,0,.67-1.58,10,10,0,0,0,.16-2.65"></path><path class="cls-6" d="M346.16,133.94h0a5.24,5.24,0,0,1,.75-1.23,2.68,2.68,0,0,1,.89-.7,3.53,3.53,0,0,1,1.14-.31q.63-.06,1.44-.06v2.27a1.39,1.39,0,0,0-.3,0l-.3,0-.28,0h-.31a3.19,3.19,0,0,0-1.51.32,2.53,2.53,0,0,0-.94.83,3,3,0,0,0-.49,1.18,6.7,6.7,0,0,0-.14,1.34v8H344V131.9h2.21Z"></path><path class="cls-6" d="M355.29,145.43h-2.21V126.09h2.21v7.18h.08a4,4,0,0,1,1.3-1.22,3.34,3.34,0,0,1,1.7-.41,4.4,4.4,0,0,1,2.56.65,3.8,3.8,0,0,1,1.35,1.7,7.43,7.43,0,0,1,.52,2.35c.05.86.08,1.72.08,2.55a13.6,13.6,0,0,1-.38,3.56,5.26,5.26,0,0,1-1,2.07,2.89,2.89,0,0,1-1.41.95,6,6,0,0,1-1.61.23,3.33,3.33,0,0,1-1.82-.47,4.1,4.1,0,0,1-1.32-1.41h0Zm0-7.31v1.79a7.49,7.49,0,0,0,.22,1.87,3.55,3.55,0,0,0,.73,1.51,1.87,1.87,0,0,0,1.53.61,2.33,2.33,0,0,0,1.61-.49,2.88,2.88,0,0,0,.82-1.24,4.84,4.84,0,0,0,.31-1.6c0-.58.05-1.13.05-1.65a23.52,23.52,0,0,0-.1-2.38,6,6,0,0,0-.37-1.72,2.17,2.17,0,0,0-.82-1,2.51,2.51,0,0,0-1.41-.35,2,2,0,0,0-1.43.48,2.94,2.94,0,0,0-.78,1.19,6.29,6.29,0,0,0-.31,1.53c0,.55,0,1,0,1.49"></path><path class="cls-6" d="M368.57,139.38a11.85,11.85,0,0,0,.19,2.3,3.89,3.89,0,0,0,.54,1.38,1.81,1.81,0,0,0,.87.67,3.77,3.77,0,0,0,1.16.17,2.26,2.26,0,0,0,1-.21,2.4,2.4,0,0,0,.73-.57,2.48,2.48,0,0,0,.46-.81,4,4,0,0,0,.19-1h2.43a4.1,4.1,0,0,1-1.32,3.32,5.24,5.24,0,0,1-3.43,1,8.64,8.64,0,0,1-2-.23,3.37,3.37,0,0,1-1.65-.95,5.06,5.06,0,0,1-1.11-2.07,13.13,13.13,0,0,1-.4-3.58,27.46,27.46,0,0,1,.14-2.8,6.27,6.27,0,0,1,.68-2.3,3.88,3.88,0,0,1,1.55-1.56,5.87,5.87,0,0,1,2.82-.57,6.14,6.14,0,0,1,2.4.4,3.23,3.23,0,0,1,1.48,1.22,5.38,5.38,0,0,1,.76,2.05,17.53,17.53,0,0,1,.21,2.91v1.16Zm5.32-1.66a10.5,10.5,0,0,0-.2-2.35,3.65,3.65,0,0,0-.55-1.34,1.62,1.62,0,0,0-.86-.6,4.44,4.44,0,0,0-1.11-.14,2.91,2.91,0,0,0-1,.17,1.64,1.64,0,0,0-.81.64,3.88,3.88,0,0,0-.57,1.35,9.93,9.93,0,0,0-.22,2.27Z"></path><path class="cls-6" d="M379.75,126.09h2.49v2.36h-2.49Zm2.35,19.34h-2.21V131.9h2.21Z"></path><path class="cls-6" d="M386.21,131.9v-2.59l2.21-1v3.59h3v1.66h-3v8.28c0,.21,0,.43,0,.67a1.29,1.29,0,0,0,.22.63,1.4,1.4,0,0,0,.6.47,3,3,0,0,0,1.18.19l.38,0,.61-.08v1.68c-.35,0-.72.08-1.09.14a8.11,8.11,0,0,1-1.09.08,3.56,3.56,0,0,1-2.32-.62,2.2,2.2,0,0,1-.73-1.79v-9.62H384V131.9Z"></path><rect class="cls-6" x="61.58" y="153.57" width="2.48" height="19.34"></rect><path class="cls-6" d="M75.94,172.91v-9.38a4.74,4.74,0,0,0-.11-1,2.13,2.13,0,0,0-.38-.85,1.84,1.84,0,0,0-.74-.56,3.13,3.13,0,0,0-1.18-.2,2.57,2.57,0,0,0-1.45.36,2.53,2.53,0,0,0-.84.94,3.74,3.74,0,0,0-.39,1.29,11.09,11.09,0,0,0-.09,1.4v8H68.54V162.19c0-.46,0-.93,0-1.4s-.06-.94-.09-1.41h2.35v1.74h.1a3.79,3.79,0,0,1,1.49-1.57,4.66,4.66,0,0,1,2.16-.44,4.6,4.6,0,0,1,1.79.31,2.58,2.58,0,0,1,1.12.9,3.73,3.73,0,0,1,.57,1.41,9.06,9.06,0,0,1,.16,1.8v9.38Z"></path><path class="cls-6" d="M82.31,159.38v-2.59l2.21-1v3.59h3V161h-3v8.28c0,.21,0,.43,0,.67a1.28,1.28,0,0,0,.21.63,1.44,1.44,0,0,0,.61.47,3.05,3.05,0,0,0,1.17.18,2.91,2.91,0,0,0,.38,0l.62-.08v1.68c-.36,0-.72.08-1.09.14a8.14,8.14,0,0,1-1.1.08,3.53,3.53,0,0,1-2.31-.62,2.2,2.2,0,0,1-.73-1.79V161H80.06v-1.66Z"></path><path class="cls-6" d="M91.75,166.86a11.11,11.11,0,0,0,.19,2.3,3.71,3.71,0,0,0,.54,1.38,1.74,1.74,0,0,0,.86.67,3.77,3.77,0,0,0,1.16.17,2.23,2.23,0,0,0,1-.21,2.29,2.29,0,0,0,.73-.57,2.48,2.48,0,0,0,.46-.81,3.55,3.55,0,0,0,.19-1h2.43A4.13,4.13,0,0,1,98,172.13a5.27,5.27,0,0,1-3.44,1.05,8.76,8.76,0,0,1-2-.23,3.3,3.3,0,0,1-1.64-.95,4.94,4.94,0,0,1-1.11-2.07,12.8,12.8,0,0,1-.4-3.58,24.79,24.79,0,0,1,.15-2.8,6.08,6.08,0,0,1,.67-2.3,3.88,3.88,0,0,1,1.55-1.56,5.8,5.8,0,0,1,2.81-.57,6.14,6.14,0,0,1,2.4.4,3.18,3.18,0,0,1,1.48,1.22,5.38,5.38,0,0,1,.76,2,17.43,17.43,0,0,1,.22,2.91v1.16Zm5.32-1.66a11.14,11.14,0,0,0-.2-2.35,3.83,3.83,0,0,0-.56-1.34,1.55,1.55,0,0,0-.86-.6,4.33,4.33,0,0,0-1.11-.13,3,3,0,0,0-1,.16,1.73,1.73,0,0,0-.81.64,3.89,3.89,0,0,0-.56,1.35,9.39,9.39,0,0,0-.22,2.27Z"></path><path class="cls-6" d="M105.41,161.42h0a5.24,5.24,0,0,1,.74-1.23,2.68,2.68,0,0,1,.89-.7,3.6,3.6,0,0,1,1.14-.31q.63-.06,1.44-.06v2.27l-.3,0-.29,0-.29,0h-.31a3.22,3.22,0,0,0-1.51.32,2.53,2.53,0,0,0-.94.83,3,3,0,0,0-.49,1.18,6.69,6.69,0,0,0-.13,1.34v8h-2.22V159.38h2.22Z"></path><path class="cls-6" d="M119.52,172.91v-9.38a4.74,4.74,0,0,0-.11-1,2.12,2.12,0,0,0-.37-.85,1.81,1.81,0,0,0-.75-.56,3.07,3.07,0,0,0-1.17-.2,2.61,2.61,0,0,0-1.46.36,2.53,2.53,0,0,0-.84.94,4,4,0,0,0-.39,1.29,11.09,11.09,0,0,0-.09,1.4v8h-2.21V162.19c0-.46,0-.93,0-1.4s0-.94-.09-1.41h2.35v1.74h.11a3.71,3.71,0,0,1,1.48-1.57,5.46,5.46,0,0,1,4-.13,2.7,2.7,0,0,1,1.12.9,3.89,3.89,0,0,1,.56,1.41,9.06,9.06,0,0,1,.16,1.8v9.38Z"></path><path class="cls-6" d="M132.66,171h0a3.67,3.67,0,0,1-1.32,1.7,3.81,3.81,0,0,1-2.11.53,4.23,4.23,0,0,1-1.79-.34,2.92,2.92,0,0,1-1.15-.92,3.62,3.62,0,0,1-.61-1.41,9,9,0,0,1-.17-1.78,3.83,3.83,0,0,1,.67-2.4,3.93,3.93,0,0,1,1.73-1.27,7.71,7.71,0,0,1,2.32-.48c.85-.06,1.66-.07,2.43-.06,0-.44,0-.89,0-1.33a3.77,3.77,0,0,0-.24-1.21,2,2,0,0,0-.69-.87,2.38,2.38,0,0,0-1.36-.33,2.05,2.05,0,0,0-1.69.67,2.25,2.25,0,0,0-.45,1.74h-2.4A4,4,0,0,1,127,160a5.42,5.42,0,0,1,3.36-.9,6.08,6.08,0,0,1,2.17.33,3.29,3.29,0,0,1,1.35.87,3.14,3.14,0,0,1,.7,1.28,6.32,6.32,0,0,1,.2,1.6v6.5c0,.54,0,1.08.07,1.62s.11,1.08.2,1.6h-2.43Zm0-4.76c-.52,0-1.07,0-1.66,0a5.83,5.83,0,0,0-1.61.27,2.66,2.66,0,0,0-1.2.79,2.46,2.46,0,0,0-.47,1.62,3,3,0,0,0,.51,1.74,1.82,1.82,0,0,0,1.62.75,3,3,0,0,0,1-.2,2.17,2.17,0,0,0,.95-.76,4.5,4.5,0,0,0,.66-1.58,10,10,0,0,0,.16-2.65"></path><path class="cls-6" d="M139.41,159.38v-2.59l2.21-1v3.59h3V161h-3v8.28c0,.21,0,.43,0,.67a1.29,1.29,0,0,0,.22.63,1.34,1.34,0,0,0,.6.47,3.07,3.07,0,0,0,1.18.18,2.77,2.77,0,0,0,.37,0l.62-.08v1.68c-.35,0-.72.08-1.09.14a8,8,0,0,1-1.09.08,3.56,3.56,0,0,1-2.32-.62,2.2,2.2,0,0,1-.73-1.79V161h-2.24v-1.66Z"></path><path class="cls-6" d="M146.51,153.57H149v2.36h-2.48Zm2.35,19.34h-2.22V159.38h2.22Z"></path><path class="cls-6" d="M157.52,173.18a8.76,8.76,0,0,1-2-.23,3.34,3.34,0,0,1-1.64-.95,5,5,0,0,1-1.11-2.06,12.88,12.88,0,0,1-.4-3.59,24.92,24.92,0,0,1,.15-2.8,6.25,6.25,0,0,1,.67-2.31,3.92,3.92,0,0,1,1.55-1.55,7.1,7.1,0,0,1,5.62,0,4,4,0,0,1,1.55,1.55,6.44,6.44,0,0,1,.67,2.31,24.92,24.92,0,0,1,.15,2.8,12.83,12.83,0,0,1-.41,3.59,5,5,0,0,1-1.1,2.06,3.37,3.37,0,0,1-1.65.95,8.68,8.68,0,0,1-2,.23m0-1.8a2.8,2.8,0,0,0,1.41-.32,2.13,2.13,0,0,0,.88-1,5.68,5.68,0,0,0,.45-1.83,27.37,27.37,0,0,0,.12-2.8,10.6,10.6,0,0,0-.2-2.26,3.72,3.72,0,0,0-.58-1.37,2,2,0,0,0-.91-.68,3.34,3.34,0,0,0-1.17-.19,3.4,3.4,0,0,0-1.18.19,1.9,1.9,0,0,0-.9.68,3.72,3.72,0,0,0-.58,1.37,10,10,0,0,0-.2,2.26,27.37,27.37,0,0,0,.12,2.8,6,6,0,0,0,.44,1.83,2.18,2.18,0,0,0,.88,1,2.84,2.84,0,0,0,1.42.32"></path><path class="cls-6" d="M173.63,172.91v-9.38a4.74,4.74,0,0,0-.11-1,2.13,2.13,0,0,0-.38-.85,1.78,1.78,0,0,0-.74-.56,3.07,3.07,0,0,0-1.17-.2,2.61,2.61,0,0,0-1.46.36,2.53,2.53,0,0,0-.84.94,4.23,4.23,0,0,0-.39,1.29,11.09,11.09,0,0,0-.09,1.4v8h-2.22V162.19c0-.46,0-.93,0-1.4s-.06-.94-.09-1.41h2.35v1.74h.11a3.71,3.71,0,0,1,1.48-1.57,4.68,4.68,0,0,1,2.16-.44,4.6,4.6,0,0,1,1.79.31,2.58,2.58,0,0,1,1.12.9,3.73,3.73,0,0,1,.57,1.41,9.06,9.06,0,0,1,.16,1.8v9.38Z"></path><path class="cls-6" d="M186.77,171h-.05a3.68,3.68,0,0,1-1.33,1.7,3.78,3.78,0,0,1-2.1.53,4.23,4.23,0,0,1-1.79-.34,2.92,2.92,0,0,1-1.15-.92,3.62,3.62,0,0,1-.61-1.41,9,9,0,0,1-.17-1.78,3.83,3.83,0,0,1,.67-2.4,3.93,3.93,0,0,1,1.73-1.27,7.65,7.65,0,0,1,2.32-.48c.84-.06,1.65-.07,2.43-.06,0-.44,0-.89,0-1.33a3.77,3.77,0,0,0-.24-1.21,2,2,0,0,0-.69-.87,2.39,2.39,0,0,0-1.37-.33,2,2,0,0,0-1.68.67,2.25,2.25,0,0,0-.45,1.74h-2.4a4,4,0,0,1,1.25-3.18,5.46,5.46,0,0,1,3.36-.9,6.1,6.1,0,0,1,2.18.33,3.43,3.43,0,0,1,1.35.87,3.14,3.14,0,0,1,.7,1.28,6.32,6.32,0,0,1,.2,1.6v6.5c0,.54,0,1.08.07,1.62s.11,1.08.2,1.6h-2.43Zm-.05-4.76c-.52,0-1.08,0-1.66,0a5.77,5.77,0,0,0-1.61.27,2.56,2.56,0,0,0-1.2.79,2.41,2.41,0,0,0-.47,1.62,3,3,0,0,0,.51,1.74,1.82,1.82,0,0,0,1.62.75,3,3,0,0,0,1-.2,2.17,2.17,0,0,0,1-.76,4.69,4.69,0,0,0,.66-1.58,10,10,0,0,0,.16-2.65"></path><rect class="cls-6" x="193.22" y="153.57" width="2.21" height="19.34"></rect></g></svg> 