<svg xmlns="http://www.w3.org/2000/svg" id="Layer_1" viewBox="0 0 450 200"> <defs> <style>.cls-1{fill:#00b9eb;}.cls-2{fill:#f4b619;}.cls-3{fill:#eb1d25;}.cls-4{fill:#231f20;}</style> </defs> <title>logo-ag</title> <path class="cls-1" d="M184.9,88.12s-1.32,0-2,0c-5.66,0-24.63,4.48-30.34,4.78A47.51,47.51,0,0,1,134.79,90V74.52a37.75,37.75,0,0,0,19,2.22c5.67-.69,22.27-5,27.92-5.53A53.11,53.11,0,0,1,196,71.7Z"></path> <path class="cls-1" d="M171,106.5c-5.71,1.36-12.52,3.63-16.42,4.13-5.67.74-15.77,0-19.82-1.47v15.47c4.05,1.48,13.35,2.21,19,1.48,1.17-.16,2.63-.46,4.27-.85Z"></path> <path class="cls-2" d="M266.15,124.86c6-1.13,9.29-2.05,15.5-1.7,6.46.37,10.91,4.05,18.6,5.9a28.83,28.83,0,0,0,15-1.11V109.53A39,39,0,0,1,299,111c-4.85-.75-10.54-4.43-15.37-5.9-4-1.21-10.11.05-17.53,1.35Z"></path> <path class="cls-3" d="M266.14,109.43c6.06-1,9.44-1.67,15.9-1.37,5.11.23,15,4.95,19.83,5.52,9.31,1.11,9.31.37,13.34-1.1V94.05A39,39,0,0,1,299,95.53c-4.85-.74-10.54-4.42-15.37-5.9-4-1.21-10.17.06-17.63,1.37Z"></path> <path class="cls-4" d="M266,91c6-1.11,8.95-1.94,14.79-1.35,5.09.51,13.35,5.2,18.21,5.9,7.69,1.1,12.14,0,16.17-1.48V75.63c-4,1.48-10.92,2.21-18.21.74-4.8-1-6.87-3.68-14.56-5.16-4.13-.79-9.4.22-16.56,1.43Z"></path> <path class="cls-4" d="M276,99.58c-4.38.35-7,.53-7,6.73v17.54c0,1.23-13.23,6.29-24.17,6.29-9.85,0-20.88-2.62-27.94-9.35-5.28-5.06-8.26-10.21-8.26-21.65,0-14.66,12.92-29.24,34-29.24,10,0,14.63,2.88,17.8,2.88.8,0,4.07-.43,4.68-2.88h2.19l.79,18.42h-2.29C263.13,82,258,73.39,244,73.39,234.6,73.39,220,78.89,220,101c0,15.79,10.34,25.67,25.76,25.67,6.76,0,13.63-2,13.63-5.15V107.35c0-7.24-2-7.32-8.75-7.76V98H276Z"></path> <path class="cls-4" d="M174.17,105.78,192,82.09l4.63,23.7ZM216,126.31c-4.22-.26-5.3-1.21-6.66-7.5L198.89,69.86h-1.94l-32,42.29c-2.91,3.79-7.67,10.07-10.52,12.23a9,9,0,0,1-5.48,1.89l-.47,1.64h19.24l.46-1.63c-2,0-6.61,0-5.59-3.63a11.6,11.6,0,0,1,1.69-3.27l7.28-10.08H197l1.66,8.27c.26,1.21.72,4.06.34,5.44-.9,3.18-4.12,3.27-7.72,3.27l-.45,1.64,24.76,0Z"></path> </svg>